<?xml version="1.0" encoding="UTF-8" standalone="no"?>
<!DOCTYPE svg PUBLIC "-//W3C//DTD SVG 1.1//EN"
 "http://www.w3.org/Graphics/SVG/1.1/DTD/svg11.dtd">
<!-- Generated by graphviz version 2.43.0 (0)
 -->
<!-- Title: squid/src/base/Assure.h Pages: 1 -->
<svg width="6499pt" height="214pt"
 viewBox="0.00 0.00 6499.00 214.00" xmlns="http://www.w3.org/2000/svg" xmlns:xlink="http://www.w3.org/1999/xlink">
<g id="graph0" class="graph" transform="scale(1 1) rotate(0) translate(4 210)">
<title>squid/src/base/Assure.h</title>
<!-- Node1 -->
<g id="Node000001" class="node">
<title>Node1</title>
<g id="a_Node000001"><a xlink:title=" ">
<polygon fill="#999999" stroke="#666666" points="4974.5,-206 4843.5,-206 4843.5,-187 4974.5,-187 4974.5,-206"/>
<text text-anchor="middle" x="4909" y="-194" font-family="Helvetica,sans-Serif" font-size="10.00">squid/src/base/Assure.h</text>
</a>
</g>
</g>
<!-- Node2 -->
<g id="Node000002" class="node">
<title>Node2</title>
<g id="a_Node000002"><a xlink:href="HttpHeader_8cc.html" target="_top" xlink:title=" ">
<polygon fill="white" stroke="#666666" points="2279,-145.5 2147,-145.5 2147,-126.5 2279,-126.5 2279,-145.5"/>
<text text-anchor="middle" x="2213" y="-133.5" font-family="Helvetica,sans-Serif" font-size="10.00">squid/src/HttpHeader.cc</text>
</a>
</g>
</g>
<!-- Node1&#45;&gt;Node2 -->
<g id="edge1_Node000001_Node000002" class="edge">
<title>Node1&#45;&gt;Node2</title>
<g id="a_edge1_Node000001_Node000002"><a xlink:title=" ">
<path fill="none" stroke="#63b8ff" d="M4833.25,-194.96C4430.36,-191.99 2547.48,-176.82 2289,-151 2276.99,-149.8 2264.02,-147.71 2252.27,-145.51"/>
<polygon fill="#63b8ff" stroke="#63b8ff" points="4833.31,-198.46 4843.34,-195.03 4833.36,-191.46 4833.31,-198.46"/>
</a>
</g>
</g>
<!-- Node3 -->
<g id="Node000003" class="node">
<title>Node3</title>
<g id="a_Node000003"><a xlink:href="ParameterizedNode_8h.html" target="_top" xlink:title=" ">
<polygon fill="white" stroke="#666666" points="2448.5,-151 2297.5,-151 2297.5,-121 2448.5,-121 2448.5,-151"/>
<text text-anchor="start" x="2305.5" y="-139" font-family="Helvetica,sans-Serif" font-size="10.00">squid/src/acl/Parameterized</text>
<text text-anchor="middle" x="2373" y="-128" font-family="Helvetica,sans-Serif" font-size="10.00">Node.h</text>
</a>
</g>
</g>
<!-- Node1&#45;&gt;Node3 -->
<g id="edge2_Node000001_Node000003" class="edge">
<title>Node1&#45;&gt;Node3</title>
<g id="a_edge2_Node000001_Node000003"><a xlink:title=" ">
<path fill="none" stroke="#63b8ff" d="M4833.3,-193.75C4460.34,-185.15 2821.29,-147.34 2448.59,-138.74"/>
<polygon fill="#63b8ff" stroke="#63b8ff" points="4833.36,-197.26 4843.44,-193.99 4833.53,-190.26 4833.36,-197.26"/>
</a>
</g>
</g>
<!-- Node73 -->
<g id="Node000073" class="node">
<title>Node73</title>
<g id="a_Node000073"><a xlink:href="Assure_8cc.html" target="_top" xlink:title=" ">
<polygon fill="white" stroke="#666666" points="4489,-79.5 4353,-79.5 4353,-60.5 4489,-60.5 4489,-79.5"/>
<text text-anchor="middle" x="4421" y="-67.5" font-family="Helvetica,sans-Serif" font-size="10.00">squid/src/base/Assure.cc</text>
</a>
</g>
</g>
<!-- Node1&#45;&gt;Node73 -->
<g id="edge32_Node000001_Node000073" class="edge">
<title>Node1&#45;&gt;Node73</title>
<g id="a_edge32_Node000001_Node000073"><a xlink:title=" ">
<path fill="none" stroke="#63b8ff" d="M4865.49,-184.4C4769.33,-159.87 4540.48,-101.48 4454.45,-79.53"/>
<polygon fill="#63b8ff" stroke="#63b8ff" points="4864.9,-187.86 4875.46,-186.94 4866.63,-181.08 4864.9,-187.86"/>
</a>
</g>
</g>
<!-- Node74 -->
<g id="Node000074" class="node">
<title>Node74</title>
<g id="a_Node000074"><a xlink:href="AsyncCallList_8cc.html" target="_top" xlink:title=" ">
<polygon fill="white" stroke="#666666" points="4977.5,-151 4840.5,-151 4840.5,-121 4977.5,-121 4977.5,-151"/>
<text text-anchor="start" x="4848.5" y="-139" font-family="Helvetica,sans-Serif" font-size="10.00">squid/src/base/AsyncCall</text>
<text text-anchor="middle" x="4909" y="-128" font-family="Helvetica,sans-Serif" font-size="10.00">List.cc</text>
</a>
</g>
</g>
<!-- Node1&#45;&gt;Node74 -->
<g id="edge33_Node000001_Node000074" class="edge">
<title>Node1&#45;&gt;Node74</title>
<g id="a_edge33_Node000001_Node000074"><a xlink:title=" ">
<path fill="none" stroke="#63b8ff" d="M4909,-176.65C4909,-168.36 4909,-158.78 4909,-151.11"/>
<polygon fill="#63b8ff" stroke="#63b8ff" points="4905.5,-176.87 4909,-186.87 4912.5,-176.87 4905.5,-176.87"/>
</a>
</g>
</g>
<!-- Node75 -->
<g id="Node000075" class="node">
<title>Node75</title>
<g id="a_Node000075"><a xlink:href="TextException_8h.html" target="_top" xlink:title=" ">
<polygon fill="#fff0f0" stroke="red" points="5373.5,-145.5 5206.5,-145.5 5206.5,-126.5 5373.5,-126.5 5373.5,-145.5"/>
<text text-anchor="middle" x="5290" y="-133.5" font-family="Helvetica,sans-Serif" font-size="10.00">squid/src/base/TextException.h</text>
</a>
</g>
</g>
<!-- Node1&#45;&gt;Node75 -->
<g id="edge34_Node000001_Node000075" class="edge">
<title>Node1&#45;&gt;Node75</title>
<g id="a_edge34_Node000001_Node000075"><a xlink:title=" ">
<path fill="none" stroke="#63b8ff" d="M4974.45,-185.45C5047.81,-174.19 5165.51,-156.11 5234.53,-145.52"/>
<polygon fill="#63b8ff" stroke="#63b8ff" points="4973.75,-182.02 4964.4,-186.99 4974.82,-188.94 4973.75,-182.02"/>
</a>
</g>
</g>
<!-- Node228 -->
<g id="Node000228" class="node">
<title>Node228</title>
<g id="a_Node000228"><a xlink:href="internal_8cc.html" target="_top" xlink:title=" ">
<polygon fill="white" stroke="#666666" points="5506,-145.5 5392,-145.5 5392,-126.5 5506,-126.5 5506,-145.5"/>
<text text-anchor="middle" x="5449" y="-133.5" font-family="Helvetica,sans-Serif" font-size="10.00">squid/src/internal.cc</text>
</a>
</g>
</g>
<!-- Node1&#45;&gt;Node228 -->
<g id="edge51_Node000001_Node000228" class="edge">
<title>Node1&#45;&gt;Node228</title>
<g id="a_edge51_Node000001_Node000228"><a xlink:title=" ">
<path fill="none" stroke="#63b8ff" d="M4985.11,-191.07C5079.02,-184.98 5243.4,-172.29 5383,-151 5392.61,-149.53 5402.93,-147.55 5412.48,-145.53"/>
<polygon fill="#63b8ff" stroke="#63b8ff" points="4984.61,-187.59 4974.85,-191.73 4985.05,-194.58 4984.61,-187.59"/>
</a>
</g>
</g>
<!-- Node868 -->
<g id="Node000868" class="node">
<title>Node868</title>
<g id="a_Node000868"><a xlink:href="LockingPointer_8h.html" target="_top" xlink:title=" ">
<polygon fill="#fff0f0" stroke="red" points="5626,-151 5524,-151 5524,-121 5626,-121 5626,-151"/>
<text text-anchor="start" x="5532" y="-139" font-family="Helvetica,sans-Serif" font-size="10.00">squid/src/security</text>
<text text-anchor="middle" x="5575" y="-128" font-family="Helvetica,sans-Serif" font-size="10.00">/LockingPointer.h</text>
</a>
</g>
</g>
<!-- Node1&#45;&gt;Node868 -->
<g id="edge52_Node000001_Node000868" class="edge">
<title>Node1&#45;&gt;Node868</title>
<g id="a_edge52_Node000001_Node000868"><a xlink:title=" ">
<path fill="none" stroke="#63b8ff" d="M4984.96,-193.72C5100.17,-190.16 5325.7,-179.86 5515,-151 5517.86,-150.56 5520.78,-150.07 5523.72,-149.52"/>
<polygon fill="#63b8ff" stroke="#63b8ff" points="4984.73,-190.22 4974.84,-194.02 4984.94,-197.22 4984.73,-190.22"/>
</a>
</g>
</g>
<!-- Node4 -->
<g id="Node000004" class="node">
<title>Node4</title>
<g id="a_Node000004"><a xlink:href="AdaptationService_8h.html" target="_top" xlink:title=" ">
<polygon fill="#fff0f0" stroke="red" points="134,-85 0,-85 0,-55 134,-55 134,-85"/>
<text text-anchor="start" x="8" y="-73" font-family="Helvetica,sans-Serif" font-size="10.00">squid/src/acl/Adaptation</text>
<text text-anchor="middle" x="67" y="-62" font-family="Helvetica,sans-Serif" font-size="10.00">Service.h</text>
</a>
</g>
</g>
<!-- Node3&#45;&gt;Node4 -->
<g id="edge3_Node000003_Node000004" class="edge">
<title>Node3&#45;&gt;Node4</title>
<g id="a_edge3_Node000003_Node000004"><a xlink:title=" ">
<path fill="none" stroke="#63b8ff" d="M2286.92,-121.02C1336.64,-36.31 1088.4,-179.35 143,-85 140.06,-84.71 137.07,-84.36 134.05,-83.97"/>
<polygon fill="#63b8ff" stroke="#63b8ff" points="2286.8,-124.52 2297.07,-121.93 2287.42,-117.55 2286.8,-124.52"/>
</a>
</g>
</g>
<!-- Node7 -->
<g id="Node000007" class="node">
<title>Node7</title>
<g id="a_Node000007"><a xlink:href="AtStep_8h.html" target="_top" xlink:title=" ">
<polygon fill="#fff0f0" stroke="red" points="274,-79.5 152,-79.5 152,-60.5 274,-60.5 274,-79.5"/>
<text text-anchor="middle" x="213" y="-67.5" font-family="Helvetica,sans-Serif" font-size="10.00">squid/src/acl/AtStep.h</text>
</a>
</g>
</g>
<!-- Node3&#45;&gt;Node7 -->
<g id="edge4_Node000003_Node000007" class="edge">
<title>Node3&#45;&gt;Node7</title>
<g id="a_edge4_Node000003_Node000007"><a xlink:title=" ">
<path fill="none" stroke="#63b8ff" d="M2286.92,-121.02C1398.64,-41.42 1165.74,-180.42 283,-85 271.91,-83.8 259.97,-81.72 249.14,-79.51"/>
<polygon fill="#63b8ff" stroke="#63b8ff" points="2286.8,-124.52 2297.07,-121.93 2287.43,-117.55 2286.8,-124.52"/>
</a>
</g>
</g>
<!-- Node9 -->
<g id="Node000009" class="node">
<title>Node9</title>
<g id="a_Node000009"><a xlink:href="acl_2Certificate_8h.html" target="_top" xlink:title=" ">
<polygon fill="#fff0f0" stroke="red" points="432,-79.5 292,-79.5 292,-60.5 432,-60.5 432,-79.5"/>
<text text-anchor="middle" x="362" y="-67.5" font-family="Helvetica,sans-Serif" font-size="10.00">squid/src/acl/Certificate.h</text>
</a>
</g>
</g>
<!-- Node3&#45;&gt;Node9 -->
<g id="edge5_Node000003_Node000009" class="edge">
<title>Node3&#45;&gt;Node9</title>
<g id="a_edge5_Node000003_Node000009"><a xlink:title=" ">
<path fill="none" stroke="#63b8ff" d="M2287.11,-121.03C1468.66,-47.04 1254.86,-164.56 441,-85 428.66,-83.79 415.35,-81.73 403.24,-79.56"/>
<polygon fill="#63b8ff" stroke="#63b8ff" points="2286.79,-124.52 2297.07,-121.94 2287.43,-117.55 2286.79,-124.52"/>
</a>
</g>
</g>
<!-- Node11 -->
<g id="Node000011" class="node">
<title>Node11</title>
<g id="a_Node000011"><a xlink:href="DestinationDomain_8h.html" target="_top" xlink:title=" ">
<polygon fill="#fff0f0" stroke="red" points="587.5,-85 450.5,-85 450.5,-55 587.5,-55 587.5,-85"/>
<text text-anchor="start" x="458.5" y="-73" font-family="Helvetica,sans-Serif" font-size="10.00">squid/src/acl/Destination</text>
<text text-anchor="middle" x="519" y="-62" font-family="Helvetica,sans-Serif" font-size="10.00">Domain.h</text>
</a>
</g>
</g>
<!-- Node3&#45;&gt;Node11 -->
<g id="edge6_Node000003_Node000011" class="edge">
<title>Node3&#45;&gt;Node11</title>
<g id="a_edge6_Node000003_Node000011"><a xlink:title=" ">
<path fill="none" stroke="#63b8ff" d="M2286.84,-121.01C1537.7,-52.71 1341.63,-159.29 597,-85 593.99,-84.7 590.92,-84.35 587.82,-83.95"/>
<polygon fill="#63b8ff" stroke="#63b8ff" points="2286.79,-124.52 2297.07,-121.95 2287.43,-117.54 2286.79,-124.52"/>
</a>
</g>
</g>
<!-- Node13 -->
<g id="Node000013" class="node">
<title>Node13</title>
<g id="a_Node000013"><a xlink:href="HasComponent_8h.html" target="_top" xlink:title=" ">
<polygon fill="#fff0f0" stroke="red" points="770,-79.5 606,-79.5 606,-60.5 770,-60.5 770,-79.5"/>
<text text-anchor="middle" x="688" y="-67.5" font-family="Helvetica,sans-Serif" font-size="10.00">squid/src/acl/HasComponent.h</text>
</a>
</g>
</g>
<!-- Node3&#45;&gt;Node13 -->
<g id="edge7_Node000003_Node000013" class="edge">
<title>Node3&#45;&gt;Node13</title>
<g id="a_edge7_Node000003_Node000013"><a xlink:title=" ">
<path fill="none" stroke="#63b8ff" d="M2286.7,-120.99C1618.29,-59.21 1443.82,-143.82 779,-85 764.99,-83.76 749.86,-81.72 736.03,-79.57"/>
<polygon fill="#63b8ff" stroke="#63b8ff" points="2286.79,-124.51 2297.07,-121.96 2287.44,-117.54 2286.79,-124.51"/>
</a>
</g>
</g>
<!-- Node15 -->
<g id="Node000015" class="node">
<title>Node15</title>
<g id="a_Node000015"><a xlink:href="HierCode_8h.html" target="_top" xlink:title=" ">
<polygon fill="#fff0f0" stroke="red" points="922,-79.5 788,-79.5 788,-60.5 922,-60.5 922,-79.5"/>
<text text-anchor="middle" x="855" y="-67.5" font-family="Helvetica,sans-Serif" font-size="10.00">squid/src/acl/HierCode.h</text>
</a>
</g>
</g>
<!-- Node3&#45;&gt;Node15 -->
<g id="edge8_Node000003_Node000015" class="edge">
<title>Node3&#45;&gt;Node15</title>
<g id="a_edge8_Node000003_Node000015"><a xlink:title=" ">
<path fill="none" stroke="#63b8ff" d="M2286.84,-121C1685.62,-64.78 1527.67,-147.49 931,-85 919.12,-83.76 906.32,-81.69 894.67,-79.51"/>
<polygon fill="#63b8ff" stroke="#63b8ff" points="2286.78,-124.51 2297.07,-121.97 2287.44,-117.54 2286.78,-124.51"/>
</a>
</g>
</g>
<!-- Node17 -->
<g id="Node000017" class="node">
<title>Node17</title>
<g id="a_Node000017"><a xlink:href="HttpRepHeader_8h.html" target="_top" xlink:title=" ">
<polygon fill="#fff0f0" stroke="red" points="1104,-79.5 940,-79.5 940,-60.5 1104,-60.5 1104,-79.5"/>
<text text-anchor="middle" x="1022" y="-67.5" font-family="Helvetica,sans-Serif" font-size="10.00">squid/src/acl/HttpRepHeader.h</text>
</a>
</g>
</g>
<!-- Node3&#45;&gt;Node17 -->
<g id="edge9_Node000003_Node000017" class="edge">
<title>Node3&#45;&gt;Node17</title>
<g id="a_edge9_Node000003_Node000017"><a xlink:title=" ">
<path fill="none" stroke="#63b8ff" d="M2287.04,-121.01C1766.26,-71.22 1629.97,-132.51 1113,-85 1098.99,-83.71 1083.86,-81.66 1070.04,-79.51"/>
<polygon fill="#63b8ff" stroke="#63b8ff" points="2286.78,-124.5 2297.07,-121.98 2287.45,-117.54 2286.78,-124.5"/>
</a>
</g>
</g>
<!-- Node19 -->
<g id="Node000019" class="node">
<title>Node19</title>
<g id="a_Node000019"><a xlink:href="HttpReqHeader_8h.html" target="_top" xlink:title=" ">
<polygon fill="#fff0f0" stroke="red" points="1286,-79.5 1122,-79.5 1122,-60.5 1286,-60.5 1286,-79.5"/>
<text text-anchor="middle" x="1204" y="-67.5" font-family="Helvetica,sans-Serif" font-size="10.00">squid/src/acl/HttpReqHeader.h</text>
</a>
</g>
</g>
<!-- Node3&#45;&gt;Node19 -->
<g id="edge10_Node000003_Node000019" class="edge">
<title>Node3&#45;&gt;Node19</title>
<g id="a_edge10_Node000003_Node000019"><a xlink:title=" ">
<path fill="none" stroke="#63b8ff" d="M2286.94,-121C1846.83,-77.77 1731.33,-126.33 1295,-85 1281.16,-83.69 1266.21,-81.65 1252.51,-79.53"/>
<polygon fill="#63b8ff" stroke="#63b8ff" points="2286.77,-124.5 2297.06,-122 2287.46,-117.53 2286.77,-124.5"/>
</a>
</g>
</g>
<!-- Node21 -->
<g id="Node000021" class="node">
<title>Node21</title>
<g id="a_Node000021"><a xlink:href="LocalPort_8h.html" target="_top" xlink:title=" ">
<polygon fill="#fff0f0" stroke="red" points="1438,-79.5 1304,-79.5 1304,-60.5 1438,-60.5 1438,-79.5"/>
<text text-anchor="middle" x="1371" y="-67.5" font-family="Helvetica,sans-Serif" font-size="10.00">squid/src/acl/LocalPort.h</text>
</a>
</g>
</g>
<!-- Node3&#45;&gt;Node21 -->
<g id="edge11_Node000003_Node000021" class="edge">
<title>Node3&#45;&gt;Node21</title>
<g id="a_edge11_Node000003_Node000021"><a xlink:title=" ">
<path fill="none" stroke="#63b8ff" d="M2287.08,-121.01C1914.13,-83.3 1815.49,-126.62 1447,-85 1435.4,-83.69 1422.91,-81.65 1411.47,-79.54"/>
<polygon fill="#63b8ff" stroke="#63b8ff" points="2286.76,-124.49 2297.06,-122.03 2287.47,-117.53 2286.76,-124.49"/>
</a>
</g>
</g>
<!-- Node23 -->
<g id="Node000023" class="node">
<title>Node23</title>
<g id="a_Node000023"><a xlink:href="Method_8h.html" target="_top" xlink:title=" ">
<polygon fill="#fff0f0" stroke="red" points="1582,-79.5 1456,-79.5 1456,-60.5 1582,-60.5 1582,-79.5"/>
<text text-anchor="middle" x="1519" y="-67.5" font-family="Helvetica,sans-Serif" font-size="10.00">squid/src/acl/Method.h</text>
</a>
</g>
</g>
<!-- Node3&#45;&gt;Node23 -->
<g id="edge12_Node000003_Node000023" class="edge">
<title>Node3&#45;&gt;Node23</title>
<g id="a_edge12_Node000003_Node000023"><a xlink:title=" ">
<path fill="none" stroke="#63b8ff" d="M2286.92,-120.98C1978.28,-88.51 1896.19,-121.86 1592,-85 1580.98,-83.67 1569.13,-81.65 1558.24,-79.56"/>
<polygon fill="#63b8ff" stroke="#63b8ff" points="2286.74,-124.48 2297.06,-122.06 2287.49,-117.52 2286.74,-124.48"/>
</a>
</g>
</g>
<!-- Node25 -->
<g id="Node000025" class="node">
<title>Node25</title>
<g id="a_Node000025"><a xlink:href="MyPortName_8h.html" target="_top" xlink:title=" ">
<polygon fill="#fff0f0" stroke="red" points="1753.5,-79.5 1600.5,-79.5 1600.5,-60.5 1753.5,-60.5 1753.5,-79.5"/>
<text text-anchor="middle" x="1677" y="-67.5" font-family="Helvetica,sans-Serif" font-size="10.00">squid/src/acl/MyPortName.h</text>
</a>
</g>
</g>
<!-- Node3&#45;&gt;Node25 -->
<g id="edge13_Node000003_Node000025" class="edge">
<title>Node3&#45;&gt;Node25</title>
<g id="a_edge13_Node000003_Node000025"><a xlink:title=" ">
<path fill="none" stroke="#63b8ff" d="M2286.9,-120.96C2053.94,-94.46 1992.05,-111.44 1763,-85 1750.53,-83.56 1737.1,-81.58 1724.65,-79.57"/>
<polygon fill="#63b8ff" stroke="#63b8ff" points="2286.72,-124.46 2297.05,-122.12 2287.52,-117.5 2286.72,-124.46"/>
</a>
</g>
</g>
<!-- Node27 -->
<g id="Node000027" class="node">
<title>Node27</title>
<g id="a_Node000027"><a xlink:href="Note_8h.html" target="_top" xlink:title=" ">
<polygon fill="#fff0f0" stroke="red" points="1884.5,-79.5 1771.5,-79.5 1771.5,-60.5 1884.5,-60.5 1884.5,-79.5"/>
<text text-anchor="middle" x="1828" y="-67.5" font-family="Helvetica,sans-Serif" font-size="10.00">squid/src/acl/Note.h</text>
</a>
</g>
</g>
<!-- Node3&#45;&gt;Node27 -->
<g id="edge14_Node000003_Node000027" class="edge">
<title>Node3&#45;&gt;Node27</title>
<g id="a_edge14_Node000003_Node000027"><a xlink:title=" ">
<path fill="none" stroke="#63b8ff" d="M2287.4,-121C2111.84,-99.15 2064.64,-110.8 1894,-85 1884.39,-83.55 1874.07,-81.56 1864.52,-79.55"/>
<polygon fill="#63b8ff" stroke="#63b8ff" points="2287.14,-124.49 2297.5,-122.27 2288.02,-117.55 2287.14,-124.49"/>
</a>
</g>
</g>
<!-- Node33 -->
<g id="Node000033" class="node">
<title>Node33</title>
<g id="a_Node000033"><a xlink:href="PeerName_8h.html" target="_top" xlink:title=" ">
<polygon fill="#fff0f0" stroke="red" points="2043,-79.5 1903,-79.5 1903,-60.5 2043,-60.5 2043,-79.5"/>
<text text-anchor="middle" x="1973" y="-67.5" font-family="Helvetica,sans-Serif" font-size="10.00">squid/src/acl/PeerName.h</text>
</a>
</g>
</g>
<!-- Node3&#45;&gt;Node33 -->
<g id="edge15_Node000003_Node000033" class="edge">
<title>Node3&#45;&gt;Node33</title>
<g id="a_edge15_Node000003_Node000033"><a xlink:title=" ">
<path fill="none" stroke="#63b8ff" d="M2287.36,-120.91C2181.98,-104.26 2154.11,-101.59 2053,-85 2042.56,-83.29 2031.38,-81.38 2020.77,-79.53"/>
<polygon fill="#63b8ff" stroke="#63b8ff" points="2287.04,-124.4 2297.46,-122.51 2288.13,-117.49 2287.04,-124.4"/>
</a>
</g>
</g>
<!-- Node35 -->
<g id="Node000035" class="node">
<title>Node35</title>
<g id="a_Node000035"><a xlink:href="Protocol_8h.html" target="_top" xlink:title=" ">
<polygon fill="#fff0f0" stroke="red" points="2190.5,-79.5 2061.5,-79.5 2061.5,-60.5 2190.5,-60.5 2190.5,-79.5"/>
<text text-anchor="middle" x="2126" y="-67.5" font-family="Helvetica,sans-Serif" font-size="10.00">squid/src/acl/Protocol.h</text>
</a>
</g>
</g>
<!-- Node3&#45;&gt;Node35 -->
<g id="edge16_Node000003_Node000035" class="edge">
<title>Node3&#45;&gt;Node35</title>
<g id="a_edge16_Node000003_Node000035"><a xlink:title=" ">
<path fill="none" stroke="#63b8ff" d="M2309.1,-118.44C2261.01,-105.98 2197.07,-89.42 2158.87,-79.52"/>
<polygon fill="#63b8ff" stroke="#63b8ff" points="2308.24,-121.83 2318.79,-120.95 2309.99,-115.06 2308.24,-121.83"/>
</a>
</g>
</g>
<!-- Node37 -->
<g id="Node000037" class="node">
<title>Node37</title>
<g id="a_Node000037"><a xlink:href="ReplyHeaderStrategy_8h.html" target="_top" xlink:title=" ">
<polygon fill="#fff0f0" stroke="red" points="2351.5,-85 2208.5,-85 2208.5,-55 2351.5,-55 2351.5,-85"/>
<text text-anchor="start" x="2216.5" y="-73" font-family="Helvetica,sans-Serif" font-size="10.00">squid/src/acl/ReplyHeader</text>
<text text-anchor="middle" x="2280" y="-62" font-family="Helvetica,sans-Serif" font-size="10.00">Strategy.h</text>
</a>
</g>
</g>
<!-- Node3&#45;&gt;Node37 -->
<g id="edge17_Node000003_Node000037" class="edge">
<title>Node3&#45;&gt;Node37</title>
<g id="a_edge17_Node000003_Node000037"><a xlink:title=" ">
<path fill="none" stroke="#63b8ff" d="M2343.98,-115.03C2329.91,-105.34 2313.33,-93.94 2300.58,-85.16"/>
<polygon fill="#63b8ff" stroke="#63b8ff" points="2342.14,-118.01 2352.36,-120.8 2346.11,-112.24 2342.14,-118.01"/>
</a>
</g>
</g>
<!-- Node39 -->
<g id="Node000039" class="node">
<title>Node39</title>
<g id="a_Node000039"><a xlink:href="RequestHeaderStrategy_8h.html" target="_top" xlink:title=" ">
<polygon fill="#fff0f0" stroke="red" points="2542.5,-85 2387.5,-85 2387.5,-55 2542.5,-55 2542.5,-85"/>
<text text-anchor="start" x="2395.5" y="-73" font-family="Helvetica,sans-Serif" font-size="10.00">squid/src/acl/RequestHeader</text>
<text text-anchor="middle" x="2465" y="-62" font-family="Helvetica,sans-Serif" font-size="10.00">Strategy.h</text>
</a>
</g>
</g>
<!-- Node3&#45;&gt;Node39 -->
<g id="edge19_Node000003_Node000039" class="edge">
<title>Node3&#45;&gt;Node39</title>
<g id="a_edge19_Node000003_Node000039"><a xlink:title=" ">
<path fill="none" stroke="#63b8ff" d="M2401.71,-115.03C2415.63,-105.34 2432.03,-93.94 2444.64,-85.16"/>
<polygon fill="#63b8ff" stroke="#63b8ff" points="2399.63,-112.21 2393.42,-120.8 2403.63,-117.96 2399.63,-112.21"/>
</a>
</g>
</g>
<!-- Node41 -->
<g id="Node000041" class="node">
<title>Node41</title>
<g id="a_Node000041"><a xlink:href="ServerCertificate_8h.html" target="_top" xlink:title=" ">
<polygon fill="#fff0f0" stroke="red" points="2731.5,-79.5 2560.5,-79.5 2560.5,-60.5 2731.5,-60.5 2731.5,-79.5"/>
<text text-anchor="middle" x="2646" y="-67.5" font-family="Helvetica,sans-Serif" font-size="10.00">squid/src/acl/ServerCertificate.h</text>
</a>
</g>
</g>
<!-- Node3&#45;&gt;Node41 -->
<g id="edge20_Node000003_Node000041" class="edge">
<title>Node3&#45;&gt;Node41</title>
<g id="a_edge20_Node000003_Node000041"><a xlink:title=" ">
<path fill="none" stroke="#63b8ff" d="M2442.97,-118.6C2496.19,-106.12 2567.27,-89.46 2609.67,-79.52"/>
<polygon fill="#63b8ff" stroke="#63b8ff" points="2441.85,-115.26 2432.91,-120.95 2443.45,-122.08 2441.85,-115.26"/>
</a>
</g>
</g>
<!-- Node43 -->
<g id="Node000043" class="node">
<title>Node43</title>
<g id="a_Node000043"><a xlink:href="ServerName_8h.html" target="_top" xlink:title=" ">
<polygon fill="#fff0f0" stroke="red" points="2900,-79.5 2750,-79.5 2750,-60.5 2900,-60.5 2900,-79.5"/>
<text text-anchor="middle" x="2825" y="-67.5" font-family="Helvetica,sans-Serif" font-size="10.00">squid/src/acl/ServerName.h</text>
</a>
</g>
</g>
<!-- Node3&#45;&gt;Node43 -->
<g id="edge21_Node000003_Node000043" class="edge">
<title>Node3&#45;&gt;Node43</title>
<g id="a_edge21_Node000003_Node000043"><a xlink:title=" ">
<path fill="none" stroke="#63b8ff" d="M2458.79,-124.09C2533.44,-114.41 2644.49,-99.59 2741,-85 2752.11,-83.32 2764.03,-81.4 2775.29,-79.54"/>
<polygon fill="#63b8ff" stroke="#63b8ff" points="2457.98,-120.66 2448.51,-125.42 2458.87,-127.6 2457.98,-120.66"/>
</a>
</g>
</g>
<!-- Node45 -->
<g id="Node000045" class="node">
<title>Node45</title>
<g id="a_Node000045"><a xlink:href="SourceDomain_8h.html" target="_top" xlink:title=" ">
<polygon fill="#fff0f0" stroke="red" points="3079.5,-79.5 2918.5,-79.5 2918.5,-60.5 3079.5,-60.5 3079.5,-79.5"/>
<text text-anchor="middle" x="2999" y="-67.5" font-family="Helvetica,sans-Serif" font-size="10.00">squid/src/acl/SourceDomain.h</text>
</a>
</g>
</g>
<!-- Node3&#45;&gt;Node45 -->
<g id="edge22_Node000003_Node000045" class="edge">
<title>Node3&#45;&gt;Node45</title>
<g id="a_edge22_Node000003_Node000045"><a xlink:title=" ">
<path fill="none" stroke="#63b8ff" d="M2458.61,-128.64C2564.56,-120.4 2750.42,-104.71 2909,-85 2921.55,-83.44 2935.05,-81.49 2947.67,-79.54"/>
<polygon fill="#63b8ff" stroke="#63b8ff" points="2458.31,-125.15 2448.61,-129.42 2458.85,-132.13 2458.31,-125.15"/>
</a>
</g>
</g>
<!-- Node47 -->
<g id="Node000047" class="node">
<title>Node47</title>
<g id="a_Node000047"><a xlink:href="SquidError_8h.html" target="_top" xlink:title=" ">
<polygon fill="#fff0f0" stroke="red" points="3236.5,-79.5 3097.5,-79.5 3097.5,-60.5 3236.5,-60.5 3236.5,-79.5"/>
<text text-anchor="middle" x="3167" y="-67.5" font-family="Helvetica,sans-Serif" font-size="10.00">squid/src/acl/SquidError.h</text>
</a>
</g>
</g>
<!-- Node3&#45;&gt;Node47 -->
<g id="edge23_Node000003_Node000047" class="edge">
<title>Node3&#45;&gt;Node47</title>
<g id="a_edge23_Node000003_Node000047"><a xlink:title=" ">
<path fill="none" stroke="#63b8ff" d="M2458.76,-132C2593.4,-126.62 2862.43,-113.16 3089,-85 3100.47,-83.57 3112.81,-81.58 3124.21,-79.54"/>
<polygon fill="#63b8ff" stroke="#63b8ff" points="2458.36,-128.52 2448.51,-132.41 2458.64,-135.51 2458.36,-128.52"/>
</a>
</g>
</g>
<!-- Node49 -->
<g id="Node000049" class="node">
<title>Node49</title>
<g id="a_Node000049"><a xlink:href="SslError_8h.html" target="_top" xlink:title=" ">
<polygon fill="#fff0f0" stroke="red" points="3381,-79.5 3255,-79.5 3255,-60.5 3381,-60.5 3381,-79.5"/>
<text text-anchor="middle" x="3318" y="-67.5" font-family="Helvetica,sans-Serif" font-size="10.00">squid/src/acl/SslError.h</text>
</a>
</g>
</g>
<!-- Node3&#45;&gt;Node49 -->
<g id="edge24_Node000003_Node000049" class="edge">
<title>Node3&#45;&gt;Node49</title>
<g id="a_edge24_Node000003_Node000049"><a xlink:title=" ">
<path fill="none" stroke="#63b8ff" d="M2458.69,-133.92C2615.5,-131.09 2958.94,-120.96 3246,-85 3256.87,-83.64 3268.56,-81.61 3279.29,-79.52"/>
<polygon fill="#63b8ff" stroke="#63b8ff" points="2458.57,-130.42 2448.63,-134.09 2458.69,-137.42 2458.57,-130.42"/>
</a>
</g>
</g>
<!-- Node51 -->
<g id="Node000051" class="node">
<title>Node51</title>
<g id="a_Node000051"><a xlink:href="Tag_8h.html" target="_top" xlink:title=" ">
<polygon fill="#fff0f0" stroke="red" points="3505,-79.5 3399,-79.5 3399,-60.5 3505,-60.5 3505,-79.5"/>
<text text-anchor="middle" x="3452" y="-67.5" font-family="Helvetica,sans-Serif" font-size="10.00">squid/src/acl/Tag.h</text>
</a>
</g>
</g>
<!-- Node3&#45;&gt;Node51 -->
<g id="edge25_Node000003_Node000051" class="edge">
<title>Node3&#45;&gt;Node51</title>
<g id="a_edge25_Node000003_Node000051"><a xlink:title=" ">
<path fill="none" stroke="#63b8ff" d="M2458.9,-135.77C2634.61,-136.25 3047.39,-131.75 3390,-85 3399.51,-83.7 3409.72,-81.67 3419.05,-79.55"/>
<polygon fill="#63b8ff" stroke="#63b8ff" points="2458.7,-132.27 2448.69,-135.74 2458.67,-139.27 2458.7,-132.27"/>
</a>
</g>
</g>
<!-- Node53 -->
<g id="Node000053" class="node">
<title>Node53</title>
<g id="a_Node000053"><a xlink:href="Time_8h.html" target="_top" xlink:title=" ">
<polygon fill="#fff0f0" stroke="red" points="3637,-79.5 3523,-79.5 3523,-60.5 3637,-60.5 3637,-79.5"/>
<text text-anchor="middle" x="3580" y="-67.5" font-family="Helvetica,sans-Serif" font-size="10.00">squid/src/acl/Time.h</text>
</a>
</g>
</g>
<!-- Node3&#45;&gt;Node53 -->
<g id="edge26_Node000003_Node000053" class="edge">
<title>Node3&#45;&gt;Node53</title>
<g id="a_edge26_Node000003_Node000053"><a xlink:title=" ">
<path fill="none" stroke="#63b8ff" d="M2458.99,-133.07C2688.17,-127.65 3310.11,-110.91 3514,-85 3524.11,-83.72 3534.97,-81.69 3544.9,-79.57"/>
<polygon fill="#63b8ff" stroke="#63b8ff" points="2458.61,-129.58 2448.7,-133.32 2458.78,-136.58 2458.61,-129.58"/>
</a>
</g>
</g>
<!-- Node55 -->
<g id="Node000055" class="node">
<title>Node55</title>
<g id="a_Node000055"><a xlink:href="Url_8h.html" target="_top" xlink:title=" ">
<polygon fill="#fff0f0" stroke="red" points="3759,-79.5 3655,-79.5 3655,-60.5 3759,-60.5 3759,-79.5"/>
<text text-anchor="middle" x="3707" y="-67.5" font-family="Helvetica,sans-Serif" font-size="10.00">squid/src/acl/Url.h</text>
</a>
</g>
</g>
<!-- Node3&#45;&gt;Node55 -->
<g id="edge27_Node000003_Node000055" class="edge">
<title>Node3&#45;&gt;Node55</title>
<g id="a_edge27_Node000003_Node000055"><a xlink:title=" ">
<path fill="none" stroke="#63b8ff" d="M2458.86,-133.71C2705.93,-129.68 3415.68,-115.68 3646,-85 3655.48,-83.74 3665.65,-81.69 3674.91,-79.54"/>
<polygon fill="#63b8ff" stroke="#63b8ff" points="2458.44,-130.22 2448.5,-133.88 2458.56,-137.22 2458.44,-130.22"/>
</a>
</g>
</g>
<!-- Node57 -->
<g id="Node000057" class="node">
<title>Node57</title>
<g id="a_Node000057"><a xlink:href="UrlLogin_8h.html" target="_top" xlink:title=" ">
<polygon fill="#fff0f0" stroke="red" points="3907,-79.5 3777,-79.5 3777,-60.5 3907,-60.5 3907,-79.5"/>
<text text-anchor="middle" x="3842" y="-67.5" font-family="Helvetica,sans-Serif" font-size="10.00">squid/src/acl/UrlLogin.h</text>
</a>
</g>
</g>
<!-- Node3&#45;&gt;Node57 -->
<g id="edge28_Node000003_Node000057" class="edge">
<title>Node3&#45;&gt;Node57</title>
<g id="a_edge28_Node000003_Node000057"><a xlink:title=" ">
<path fill="none" stroke="#63b8ff" d="M2458.76,-133.63C2721.41,-129.15 3512.36,-113.6 3768,-85 3779.43,-83.72 3791.75,-81.67 3802.99,-79.52"/>
<polygon fill="#63b8ff" stroke="#63b8ff" points="2458.46,-130.13 2448.52,-133.8 2458.58,-137.13 2458.46,-130.13"/>
</a>
</g>
</g>
<!-- Node59 -->
<g id="Node000059" class="node">
<title>Node59</title>
<g id="a_Node000059"><a xlink:href="UrlPath_8h.html" target="_top" xlink:title=" ">
<polygon fill="#fff0f0" stroke="red" points="4050.5,-79.5 3925.5,-79.5 3925.5,-60.5 4050.5,-60.5 4050.5,-79.5"/>
<text text-anchor="middle" x="3988" y="-67.5" font-family="Helvetica,sans-Serif" font-size="10.00">squid/src/acl/UrlPath.h</text>
</a>
</g>
</g>
<!-- Node3&#45;&gt;Node59 -->
<g id="edge29_Node000003_Node000059" class="edge">
<title>Node3&#45;&gt;Node59</title>
<g id="a_edge29_Node000003_Node000059"><a xlink:title=" ">
<path fill="none" stroke="#63b8ff" d="M2459.08,-134.02C2740.32,-130.54 3630.39,-117.19 3916,-85 3927.14,-83.75 3939.12,-81.7 3950.06,-79.55"/>
<polygon fill="#63b8ff" stroke="#63b8ff" points="2458.89,-130.52 2448.94,-134.15 2458.98,-137.52 2458.89,-130.52"/>
</a>
</g>
</g>
<!-- Node61 -->
<g id="Node000061" class="node">
<title>Node61</title>
<g id="a_Node000061"><a xlink:href="UrlPort_8h.html" target="_top" xlink:title=" ">
<polygon fill="#fff0f0" stroke="red" points="4191.5,-79.5 4068.5,-79.5 4068.5,-60.5 4191.5,-60.5 4191.5,-79.5"/>
<text text-anchor="middle" x="4130" y="-67.5" font-family="Helvetica,sans-Serif" font-size="10.00">squid/src/acl/UrlPort.h</text>
</a>
</g>
</g>
<!-- Node3&#45;&gt;Node61 -->
<g id="edge30_Node000003_Node000061" class="edge">
<title>Node3&#45;&gt;Node61</title>
<g id="a_edge30_Node000003_Node000061"><a xlink:title=" ">
<path fill="none" stroke="#63b8ff" d="M2458.86,-134.36C2756.79,-131.84 3744.95,-120.92 4060,-85 4070.96,-83.75 4082.76,-81.68 4093.49,-79.51"/>
<polygon fill="#63b8ff" stroke="#63b8ff" points="2458.53,-130.86 2448.56,-134.45 2458.59,-137.86 2458.53,-130.86"/>
</a>
</g>
</g>
<!-- Node63 -->
<g id="Node000063" class="node">
<title>Node63</title>
<g id="a_Node000063"><a xlink:href="snmp__core_8h.html" target="_top" xlink:title=" ">
<polygon fill="#fff0f0" stroke="red" points="4334.5,-79.5 4209.5,-79.5 4209.5,-60.5 4334.5,-60.5 4334.5,-79.5"/>
<text text-anchor="middle" x="4272" y="-67.5" font-family="Helvetica,sans-Serif" font-size="10.00">squid/src/snmp_core.h</text>
</a>
</g>
</g>
<!-- Node3&#45;&gt;Node63 -->
<g id="edge31_Node000003_Node000063" class="edge">
<title>Node3&#45;&gt;Node63</title>
<g id="a_edge31_Node000003_Node000063"><a xlink:title=" ">
<path fill="none" stroke="#63b8ff" d="M2459.04,-134.56C2773.07,-132.64 3857.04,-123.34 4201,-85 4212.11,-83.76 4224.08,-81.69 4234.96,-79.52"/>
<polygon fill="#63b8ff" stroke="#63b8ff" points="2458.62,-131.06 2448.64,-134.62 2458.66,-138.06 2458.62,-131.06"/>
</a>
</g>
</g>
<!-- Node37&#45;&gt;Node37 -->
<g id="edge18_Node000037_Node000037" class="edge">
<title>Node37&#45;&gt;Node37</title>
<g id="a_edge18_Node000037_Node000037"><a xlink:title=" ">
<path fill="none" stroke="#63b8ff" d="M2361.61,-77.79C2366.54,-75.94 2369.5,-73.34 2369.5,-70 2369.5,-64.79 2362.29,-61.38 2351.63,-59.79"/>
<polygon fill="#63b8ff" stroke="#63b8ff" points="2360.52,-74.45 2351.63,-80.21 2362.17,-81.26 2360.52,-74.45"/>
</a>
</g>
</g>
<!-- Node75&#45;&gt;Node73 -->
<g id="edge50_Node000075_Node000073" class="edge">
<title>Node75&#45;&gt;Node73</title>
<g id="a_edge50_Node000075_Node000073"><a xlink:title=" ">
<path fill="none" stroke="#63b8ff" d="M5196.1,-130.45C5016.53,-121.53 4630.56,-101.18 4498,-85 4486.54,-83.6 4474.2,-81.59 4462.83,-79.52"/>
<polygon fill="#63b8ff" stroke="#63b8ff" points="5196.16,-133.96 5206.32,-130.96 5196.5,-126.97 5196.16,-133.96"/>
</a>
</g>
</g>
<!-- Node76 -->
<g id="Node000076" class="node">
<title>Node76</title>
<g id="a_Node000076"><a xlink:href="BodyPipe_8cc.html" target="_top" xlink:title=" ">
<polygon fill="white" stroke="#666666" points="4629,-79.5 4507,-79.5 4507,-60.5 4629,-60.5 4629,-79.5"/>
<text text-anchor="middle" x="4568" y="-67.5" font-family="Helvetica,sans-Serif" font-size="10.00">squid/src/BodyPipe.cc</text>
</a>
</g>
</g>
<!-- Node75&#45;&gt;Node76 -->
<g id="edge35_Node000075_Node000076" class="edge">
<title>Node75&#45;&gt;Node76</title>
<g id="a_edge35_Node000075_Node000076"><a xlink:title=" ">
<path fill="none" stroke="#63b8ff" d="M5196.36,-131.28C5069.55,-125.46 4836.38,-111.94 4639,-85 4628.54,-83.57 4617.3,-81.57 4606.92,-79.53"/>
<polygon fill="#63b8ff" stroke="#63b8ff" points="5196.28,-134.78 5206.43,-131.74 5196.6,-127.79 5196.28,-134.78"/>
</a>
</g>
</g>
<!-- Node77 -->
<g id="Node000077" class="node">
<title>Node77</title>
<g id="a_Node000077"><a xlink:href="CpuAffinity_8cc.html" target="_top" xlink:title=" ">
<polygon fill="white" stroke="#666666" points="4776.5,-79.5 4647.5,-79.5 4647.5,-60.5 4776.5,-60.5 4776.5,-79.5"/>
<text text-anchor="middle" x="4712" y="-67.5" font-family="Helvetica,sans-Serif" font-size="10.00">squid/src/CpuAffinity.cc</text>
</a>
</g>
</g>
<!-- Node75&#45;&gt;Node77 -->
<g id="edge36_Node000075_Node000077" class="edge">
<title>Node75&#45;&gt;Node77</title>
<g id="a_edge36_Node000075_Node000077"><a xlink:title=" ">
<path fill="none" stroke="#63b8ff" d="M5196.13,-128.17C5094.68,-120.22 4928.41,-105.49 4786,-85 4775.52,-83.49 4764.26,-81.54 4753.77,-79.57"/>
<polygon fill="#63b8ff" stroke="#63b8ff" points="5196.1,-131.68 5206.34,-128.97 5196.65,-124.7 5196.1,-131.68"/>
</a>
</g>
</g>
<!-- Node78 -->
<g id="Node000078" class="node">
<title>Node78</title>
<g id="a_Node000078"><a xlink:href="CpuAffinityMap_8cc.html" target="_top" xlink:title=" ">
<polygon fill="white" stroke="#666666" points="4947,-79.5 4795,-79.5 4795,-60.5 4947,-60.5 4947,-79.5"/>
<text text-anchor="middle" x="4871" y="-67.5" font-family="Helvetica,sans-Serif" font-size="10.00">squid/src/CpuAffinityMap.cc</text>
</a>
</g>
</g>
<!-- Node75&#45;&gt;Node78 -->
<g id="edge37_Node000075_Node000078" class="edge">
<title>Node75&#45;&gt;Node78</title>
<g id="a_edge37_Node000075_Node000078"><a xlink:title=" ">
<path fill="none" stroke="#63b8ff" d="M5221.34,-125.02C5153.79,-115.13 5047.73,-99.42 4956,-85 4945.07,-83.28 4933.35,-81.39 4922.22,-79.56"/>
<polygon fill="#63b8ff" stroke="#63b8ff" points="5221.03,-128.51 5231.44,-126.5 5222.05,-121.59 5221.03,-128.51"/>
</a>
</g>
</g>
<!-- Node79 -->
<g id="Node000079" class="node">
<title>Node79</title>
<g id="a_Node000079"><a xlink:href="CpuAffinitySet_8cc.html" target="_top" xlink:title=" ">
<polygon fill="white" stroke="#666666" points="5111,-79.5 4965,-79.5 4965,-60.5 5111,-60.5 5111,-79.5"/>
<text text-anchor="middle" x="5038" y="-67.5" font-family="Helvetica,sans-Serif" font-size="10.00">squid/src/CpuAffinitySet.cc</text>
</a>
</g>
</g>
<!-- Node75&#45;&gt;Node79 -->
<g id="edge38_Node000075_Node000079" class="edge">
<title>Node75&#45;&gt;Node79</title>
<g id="a_edge38_Node000075_Node000079"><a xlink:title=" ">
<path fill="none" stroke="#63b8ff" d="M5246.46,-123.94C5196.78,-111.32 5116.59,-90.96 5071.52,-79.51"/>
<polygon fill="#63b8ff" stroke="#63b8ff" points="5245.72,-127.37 5256.28,-126.44 5247.44,-120.58 5245.72,-127.37"/>
</a>
</g>
</g>
<!-- Node80 -->
<g id="Node000080" class="node">
<title>Node80</title>
<g id="a_Node000080"><a xlink:href="DiskdAction_8cc.html" target="_top" xlink:title=" ">
<polygon fill="white" stroke="#666666" points="5290.5,-85 5129.5,-85 5129.5,-55 5290.5,-55 5290.5,-85"/>
<text text-anchor="start" x="5137.5" y="-73" font-family="Helvetica,sans-Serif" font-size="10.00">squid/src/DiskIO/DiskDaemon</text>
<text text-anchor="middle" x="5210" y="-62" font-family="Helvetica,sans-Serif" font-size="10.00">/DiskdAction.cc</text>
</a>
</g>
</g>
<!-- Node75&#45;&gt;Node80 -->
<g id="edge39_Node000075_Node000080" class="edge">
<title>Node75&#45;&gt;Node80</title>
<g id="a_edge39_Node000075_Node000080"><a xlink:title=" ">
<path fill="none" stroke="#63b8ff" d="M5271.27,-120.02C5258.09,-109.48 5240.57,-95.46 5227.64,-85.12"/>
<polygon fill="#63b8ff" stroke="#63b8ff" points="5269.22,-122.85 5279.21,-126.37 5273.59,-117.39 5269.22,-122.85"/>
</a>
</g>
</g>
<!-- Node81 -->
<g id="Node000081" class="node">
<title>Node81</title>
<g id="a_Node000081"><a xlink:href="IpcIoFile_8cc.html" target="_top" xlink:title=" ">
<polygon fill="white" stroke="#666666" points="5431,-85 5309,-85 5309,-55 5431,-55 5431,-85"/>
<text text-anchor="start" x="5317" y="-73" font-family="Helvetica,sans-Serif" font-size="10.00">squid/src/DiskIO/IpcIo</text>
<text text-anchor="middle" x="5370" y="-62" font-family="Helvetica,sans-Serif" font-size="10.00">/IpcIoFile.cc</text>
</a>
</g>
</g>
<!-- Node75&#45;&gt;Node81 -->
<g id="edge40_Node000075_Node000081" class="edge">
<title>Node75&#45;&gt;Node81</title>
<g id="a_edge40_Node000075_Node000081"><a xlink:title=" ">
<path fill="none" stroke="#63b8ff" d="M5308.73,-120.02C5321.91,-109.48 5339.43,-95.46 5352.36,-85.12"/>
<polygon fill="#63b8ff" stroke="#63b8ff" points="5306.41,-117.39 5300.79,-126.37 5310.78,-122.85 5306.41,-117.39"/>
</a>
</g>
</g>
<!-- Node82 -->
<g id="Node000082" class="node">
<title>Node82</title>
<g id="a_Node000082"><a xlink:href="FadingCounter_8cc.html" target="_top" xlink:title=" ">
<polygon fill="white" stroke="#666666" points="5595,-79.5 5449,-79.5 5449,-60.5 5595,-60.5 5595,-79.5"/>
<text text-anchor="middle" x="5522" y="-67.5" font-family="Helvetica,sans-Serif" font-size="10.00">squid/src/FadingCounter.cc</text>
</a>
</g>
</g>
<!-- Node75&#45;&gt;Node82 -->
<g id="edge41_Node000075_Node000082" class="edge">
<title>Node75&#45;&gt;Node82</title>
<g id="a_edge41_Node000075_Node000082"><a xlink:title=" ">
<path fill="none" stroke="#63b8ff" d="M5331.17,-123.64C5376.88,-111.03 5449.62,-90.97 5490.84,-79.6"/>
<polygon fill="#63b8ff" stroke="#63b8ff" points="5330,-120.34 5321.29,-126.37 5331.86,-127.08 5330,-120.34"/>
</a>
</g>
</g>
<!-- Node83 -->
<g id="Node000083" class="node">
<title>Node83</title>
<g id="a_Node000083"><a xlink:href="LoadableModule_8cc.html" target="_top" xlink:title=" ">
<polygon fill="white" stroke="#666666" points="5770.5,-79.5 5613.5,-79.5 5613.5,-60.5 5770.5,-60.5 5770.5,-79.5"/>
<text text-anchor="middle" x="5692" y="-67.5" font-family="Helvetica,sans-Serif" font-size="10.00">squid/src/LoadableModule.cc</text>
</a>
</g>
</g>
<!-- Node75&#45;&gt;Node83 -->
<g id="edge42_Node000075_Node000083" class="edge">
<title>Node75&#45;&gt;Node83</title>
<g id="a_edge42_Node000075_Node000083"><a xlink:title=" ">
<path fill="none" stroke="#63b8ff" d="M5354.07,-124.8C5432.81,-112.26 5564.98,-91.22 5638.52,-79.51"/>
<polygon fill="#63b8ff" stroke="#63b8ff" points="5353.12,-121.41 5343.8,-126.44 5354.22,-128.32 5353.12,-121.41"/>
</a>
</g>
</g>
<!-- Node84 -->
<g id="Node000084" class="node">
<title>Node84</title>
<g id="a_Node000084"><a xlink:href="SquidString_8h.html" target="_top" xlink:title=" ">
<polygon fill="#fff0f0" stroke="red" points="5917,-79.5 5789,-79.5 5789,-60.5 5917,-60.5 5917,-79.5"/>
<text text-anchor="middle" x="5853" y="-67.5" font-family="Helvetica,sans-Serif" font-size="10.00">squid/src/SquidString.h</text>
</a>
</g>
</g>
<!-- Node75&#45;&gt;Node84 -->
<g id="edge43_Node000075_Node000084" class="edge">
<title>Node75&#45;&gt;Node84</title>
<g id="a_edge43_Node000075_Node000084"><a xlink:title=" ">
<path fill="none" stroke="#63b8ff" d="M5352.96,-125.01C5363,-123.56 5373.27,-122.17 5383,-121 5558.9,-99.8 5604.56,-109.71 5780,-85 5790.48,-83.52 5801.73,-81.56 5812.19,-79.57"/>
<polygon fill="#63b8ff" stroke="#63b8ff" points="5352.43,-121.55 5343.04,-126.46 5353.44,-128.47 5352.43,-121.55"/>
</a>
</g>
</g>
<!-- Node602 -->
<g id="Node000602" class="node">
<title>Node602</title>
<g id="a_Node000602"><a xlink:href="StrList_8cc.html" target="_top" xlink:title=" ">
<polygon fill="white" stroke="#666666" points="5952.5,-19 5845.5,-19 5845.5,0 5952.5,0 5952.5,-19"/>
<text text-anchor="middle" x="5899" y="-7" font-family="Helvetica,sans-Serif" font-size="10.00">squid/src/StrList.cc</text>
</a>
</g>
</g>
<!-- Node75&#45;&gt;Node602 -->
<g id="edge45_Node000075_Node000602" class="edge">
<title>Node75&#45;&gt;Node602</title>
<g id="a_edge45_Node000075_Node000602"><a xlink:title=" ">
<path fill="none" stroke="#63b8ff" d="M5351.49,-125.01C5361.98,-123.51 5372.79,-122.11 5383,-121 5443.11,-114.49 5884.68,-129.15 5926,-85 5943.67,-66.12 5920.83,-34.79 5907.44,-19.48"/>
<polygon fill="#63b8ff" stroke="#63b8ff" points="5350.94,-121.55 5341.55,-126.46 5351.95,-128.48 5350.94,-121.55"/>
</a>
</g>
</g>
<!-- Node115 -->
<g id="Node000115" class="node">
<title>Node115</title>
<g id="a_Node000115"><a xlink:href="AccessCheck_8cc.html" target="_top" xlink:title=" ">
<polygon fill="white" stroke="#666666" points="6089,-85 5973,-85 5973,-55 6089,-55 6089,-85"/>
<text text-anchor="start" x="5981" y="-73" font-family="Helvetica,sans-Serif" font-size="10.00">squid/src/adaptation</text>
<text text-anchor="middle" x="6031" y="-62" font-family="Helvetica,sans-Serif" font-size="10.00">/AccessCheck.cc</text>
</a>
</g>
</g>
<!-- Node75&#45;&gt;Node115 -->
<g id="edge46_Node000075_Node000115" class="edge">
<title>Node75&#45;&gt;Node115</title>
<g id="a_edge46_Node000075_Node000115"><a xlink:title=" ">
<path fill="none" stroke="#63b8ff" d="M5351.11,-125.03C5361.72,-123.52 5372.66,-122.1 5383,-121 5638.06,-93.88 5704.57,-117.55 5959,-85 5963.55,-84.42 5968.24,-83.72 5972.95,-82.96"/>
<polygon fill="#63b8ff" stroke="#63b8ff" points="5350.45,-121.59 5341.06,-126.5 5351.46,-128.51 5350.45,-121.59"/>
</a>
</g>
</g>
<!-- Node520 -->
<g id="Node000520" class="node">
<title>Node520</title>
<g id="a_Node000520"><a xlink:href="History_8cc.html" target="_top" xlink:title=" ">
<polygon fill="white" stroke="#666666" points="6223,-85 6107,-85 6107,-55 6223,-55 6223,-85"/>
<text text-anchor="start" x="6115" y="-73" font-family="Helvetica,sans-Serif" font-size="10.00">squid/src/adaptation</text>
<text text-anchor="middle" x="6165" y="-62" font-family="Helvetica,sans-Serif" font-size="10.00">/History.cc</text>
</a>
</g>
</g>
<!-- Node75&#45;&gt;Node520 -->
<g id="edge47_Node000075_Node000520" class="edge">
<title>Node75&#45;&gt;Node520</title>
<g id="a_edge47_Node000075_Node000520"><a xlink:title=" ">
<path fill="none" stroke="#63b8ff" d="M5350.72,-124.97C5361.45,-123.46 5372.54,-122.05 5383,-121 5699.6,-89.28 5782.43,-125.66 6098,-85 6100.95,-84.62 6103.96,-84.18 6106.99,-83.7"/>
<polygon fill="#63b8ff" stroke="#63b8ff" points="5349.95,-121.55 5340.57,-126.46 5350.97,-128.48 5349.95,-121.55"/>
</a>
</g>
</g>
<!-- Node324 -->
<g id="Node000324" class="node">
<title>Node324</title>
<g id="a_Node000324"><a xlink:href="Iterator_8cc.html" target="_top" xlink:title=" ">
<polygon fill="white" stroke="#666666" points="6357,-85 6241,-85 6241,-55 6357,-55 6357,-85"/>
<text text-anchor="start" x="6249" y="-73" font-family="Helvetica,sans-Serif" font-size="10.00">squid/src/adaptation</text>
<text text-anchor="middle" x="6299" y="-62" font-family="Helvetica,sans-Serif" font-size="10.00">/Iterator.cc</text>
</a>
</g>
</g>
<!-- Node75&#45;&gt;Node324 -->
<g id="edge48_Node000075_Node000324" class="edge">
<title>Node75&#45;&gt;Node324</title>
<g id="a_edge48_Node000075_Node000324"><a xlink:title=" ">
<path fill="none" stroke="#63b8ff" d="M5349.99,-125.01C5360.95,-123.46 5372.3,-122.03 5383,-121 5758.94,-84.84 5857.24,-131.78 6232,-85 6234.95,-84.63 6237.96,-84.2 6240.99,-83.73"/>
<polygon fill="#63b8ff" stroke="#63b8ff" points="5349.46,-121.55 5340.07,-126.46 5350.48,-128.47 5349.46,-121.55"/>
</a>
</g>
</g>
<!-- Node596 -->
<g id="Node000596" class="node">
<title>Node596</title>
<g id="a_Node000596"><a xlink:href="adaptation_2Message_8cc.html" target="_top" xlink:title=" ">
<polygon fill="white" stroke="#666666" points="6491,-85 6375,-85 6375,-55 6491,-55 6491,-85"/>
<text text-anchor="start" x="6383" y="-73" font-family="Helvetica,sans-Serif" font-size="10.00">squid/src/adaptation</text>
<text text-anchor="middle" x="6433" y="-62" font-family="Helvetica,sans-Serif" font-size="10.00">/Message.cc</text>
</a>
</g>
</g>
<!-- Node75&#45;&gt;Node596 -->
<g id="edge49_Node000075_Node000596" class="edge">
<title>Node75&#45;&gt;Node596</title>
<g id="a_edge49_Node000075_Node000596"><a xlink:title=" ">
<path fill="none" stroke="#63b8ff" d="M5349.61,-125.01C5360.68,-123.44 5372.17,-122.01 5383,-121 5818.29,-80.4 5932.03,-137.9 6366,-85 6368.95,-84.64 6371.96,-84.22 6375,-83.75"/>
<polygon fill="#63b8ff" stroke="#63b8ff" points="5348.97,-121.56 5339.59,-126.48 5349.99,-128.49 5348.97,-121.56"/>
</a>
</g>
</g>
<!-- Node84&#45;&gt;Node602 -->
<g id="edge44_Node000084_Node000602" class="edge">
<title>Node84&#45;&gt;Node602</title>
<g id="a_edge44_Node000084_Node000602"><a xlink:title=" ">
<path fill="none" stroke="#63b8ff" d="M5866.01,-52.45C5874.53,-41.62 5885.31,-27.91 5892.18,-19.17"/>
<polygon fill="#63b8ff" stroke="#63b8ff" points="5863.22,-50.34 5859.79,-60.37 5868.72,-54.67 5863.22,-50.34"/>
</a>
</g>
</g>
</g>
</svg>
