<?xml version="1.0" encoding="UTF-8" standalone="no"?>
<!DOCTYPE svg PUBLIC "-//W3C//DTD SVG 1.1//EN"
 "http://www.w3.org/Graphics/SVG/1.1/DTD/svg11.dtd">
<!-- Generated by graphviz version 2.43.0 (0)
 -->
<!-- Title: squid/src/acl/BoolOps.h Pages: 1 -->
<svg width="1372pt" height="148pt"
 viewBox="0.00 0.00 1372.00 148.00" xmlns="http://www.w3.org/2000/svg" xmlns:xlink="http://www.w3.org/1999/xlink">
<g id="graph0" class="graph" transform="scale(1 1) rotate(0) translate(4 144)">
<title>squid/src/acl/BoolOps.h</title>
<!-- Node1 -->
<g id="Node000001" class="node">
<title>Node1</title>
<g id="a_Node000001"><a xlink:title=" ">
<polygon fill="#999999" stroke="#666666" points="406,-140 276,-140 276,-121 406,-121 406,-140"/>
<text text-anchor="middle" x="341" y="-128" font-family="Helvetica,sans-Serif" font-size="10.00">squid/src/acl/BoolOps.h</text>
</a>
</g>
</g>
<!-- Node2 -->
<g id="Node000002" class="node">
<title>Node2</title>
<g id="a_Node000002"><a xlink:href="AllOf_8cc.html" target="_top" xlink:title=" ">
<polygon fill="white" stroke="#666666" points="118.5,-85 1.5,-85 1.5,-66 118.5,-66 118.5,-85"/>
<text text-anchor="middle" x="60" y="-73" font-family="Helvetica,sans-Serif" font-size="10.00">squid/src/acl/AllOf.cc</text>
</a>
</g>
</g>
<!-- Node1&#45;&gt;Node2 -->
<g id="edge1_Node000001_Node000002" class="edge">
<title>Node1&#45;&gt;Node2</title>
<g id="a_edge1_Node000001_Node000002"><a xlink:title=" ">
<path fill="none" stroke="#63b8ff" d="M286,-119.13C233.32,-109.19 154.76,-94.37 105.5,-85.08"/>
<polygon fill="#63b8ff" stroke="#63b8ff" points="285.38,-122.57 295.85,-120.98 286.67,-115.69 285.38,-122.57"/>
</a>
</g>
</g>
<!-- Node3 -->
<g id="Node000003" class="node">
<title>Node3</title>
<g id="a_Node000003"><a xlink:href="AnyOf_8h.html" target="_top" xlink:title=" ">
<polygon fill="white" stroke="#666666" points="255.5,-85 136.5,-85 136.5,-66 255.5,-66 255.5,-85"/>
<text text-anchor="middle" x="196" y="-73" font-family="Helvetica,sans-Serif" font-size="10.00">squid/src/acl/AnyOf.h</text>
</a>
</g>
</g>
<!-- Node1&#45;&gt;Node3 -->
<g id="edge2_Node000001_Node000003" class="edge">
<title>Node1&#45;&gt;Node3</title>
<g id="a_edge2_Node000001_Node000003"><a xlink:title=" ">
<path fill="none" stroke="#63b8ff" d="M308.31,-117.55C281.38,-107.71 243.84,-93.98 219.72,-85.17"/>
<polygon fill="#63b8ff" stroke="#63b8ff" points="307.11,-120.84 317.7,-120.98 309.51,-114.26 307.11,-120.84"/>
</a>
</g>
</g>
<!-- Node6 -->
<g id="Node000006" class="node">
<title>Node6</title>
<g id="a_Node000006"><a xlink:href="BoolOps_8cc.html" target="_top" xlink:title=" ">
<polygon fill="white" stroke="#666666" points="408,-85 274,-85 274,-66 408,-66 408,-85"/>
<text text-anchor="middle" x="341" y="-73" font-family="Helvetica,sans-Serif" font-size="10.00">squid/src/acl/BoolOps.cc</text>
</a>
</g>
</g>
<!-- Node1&#45;&gt;Node6 -->
<g id="edge5_Node000001_Node000006" class="edge">
<title>Node1&#45;&gt;Node6</title>
<g id="a_edge5_Node000001_Node000006"><a xlink:title=" ">
<path fill="none" stroke="#63b8ff" d="M341,-110.66C341,-101.93 341,-91.99 341,-85.09"/>
<polygon fill="#63b8ff" stroke="#63b8ff" points="337.5,-110.75 341,-120.75 344.5,-110.75 337.5,-110.75"/>
</a>
</g>
</g>
<!-- Node7 -->
<g id="Node000007" class="node">
<title>Node7</title>
<g id="a_Node000007"><a xlink:href="InnerNode_8cc.html" target="_top" xlink:title=" ">
<polygon fill="white" stroke="#666666" points="570,-85 426,-85 426,-66 570,-66 570,-85"/>
<text text-anchor="middle" x="498" y="-73" font-family="Helvetica,sans-Serif" font-size="10.00">squid/src/acl/InnerNode.cc</text>
</a>
</g>
</g>
<!-- Node1&#45;&gt;Node7 -->
<g id="edge6_Node000001_Node000007" class="edge">
<title>Node1&#45;&gt;Node7</title>
<g id="a_edge6_Node000001_Node000007"><a xlink:title=" ">
<path fill="none" stroke="#63b8ff" d="M376.05,-117.67C405.32,-107.79 446.37,-93.93 472.58,-85.08"/>
<polygon fill="#63b8ff" stroke="#63b8ff" points="374.58,-114.47 366.22,-120.98 376.82,-121.1 374.58,-114.47"/>
</a>
</g>
</g>
<!-- Node8 -->
<g id="Node000008" class="node">
<title>Node8</title>
<g id="a_Node000008"><a xlink:href="Tree_8h.html" target="_top" xlink:title=" ">
<polygon fill="white" stroke="#666666" points="820,-85 710,-85 710,-66 820,-66 820,-85"/>
<text text-anchor="middle" x="765" y="-73" font-family="Helvetica,sans-Serif" font-size="10.00">squid/src/acl/Tree.h</text>
</a>
</g>
</g>
<!-- Node1&#45;&gt;Node8 -->
<g id="edge7_Node000001_Node000008" class="edge">
<title>Node1&#45;&gt;Node8</title>
<g id="a_edge7_Node000001_Node000008"><a xlink:title=" ">
<path fill="none" stroke="#63b8ff" d="M416.33,-120.08C500.5,-109.56 634.76,-92.78 709.74,-83.41"/>
<polygon fill="#63b8ff" stroke="#63b8ff" points="415.81,-116.62 406.32,-121.33 416.68,-123.57 415.81,-116.62"/>
</a>
</g>
</g>
<!-- Node4 -->
<g id="Node000004" class="node">
<title>Node4</title>
<g id="a_Node000004"><a xlink:href="AclRegs_8cc.html" target="_top" xlink:title=" ">
<polygon fill="white" stroke="#666666" points="116,-24.5 0,-24.5 0,-5.5 116,-5.5 116,-24.5"/>
<text text-anchor="middle" x="58" y="-12.5" font-family="Helvetica,sans-Serif" font-size="10.00">squid/src/AclRegs.cc</text>
</a>
</g>
</g>
<!-- Node3&#45;&gt;Node4 -->
<g id="edge3_Node000003_Node000004" class="edge">
<title>Node3&#45;&gt;Node4</title>
<g id="a_edge3_Node000003_Node000004"><a xlink:title=" ">
<path fill="none" stroke="#63b8ff" d="M166.71,-62.08C140.05,-50.78 101.4,-34.4 78.09,-24.52"/>
<polygon fill="#63b8ff" stroke="#63b8ff" points="165.36,-65.31 175.93,-65.99 168.09,-58.87 165.36,-65.31"/>
</a>
</g>
</g>
<!-- Node5 -->
<g id="Node000005" class="node">
<title>Node5</title>
<g id="a_Node000005"><a xlink:href="AnyOf_8cc.html" target="_top" xlink:title=" ">
<polygon fill="white" stroke="#666666" points="257.5,-24.5 134.5,-24.5 134.5,-5.5 257.5,-5.5 257.5,-24.5"/>
<text text-anchor="middle" x="196" y="-12.5" font-family="Helvetica,sans-Serif" font-size="10.00">squid/src/acl/AnyOf.cc</text>
</a>
</g>
</g>
<!-- Node3&#45;&gt;Node5 -->
<g id="edge4_Node000003_Node000005" class="edge">
<title>Node3&#45;&gt;Node5</title>
<g id="a_edge4_Node000003_Node000005"><a xlink:title=" ">
<path fill="none" stroke="#63b8ff" d="M196,-55.66C196,-45.24 196,-32.8 196,-24.67"/>
<polygon fill="#63b8ff" stroke="#63b8ff" points="192.5,-55.87 196,-65.87 199.5,-55.87 192.5,-55.87"/>
</a>
</g>
</g>
<!-- Node9 -->
<g id="Node000009" class="node">
<title>Node9</title>
<g id="a_Node000009"><a xlink:href="Notes_8cc.html" target="_top" xlink:title=" ">
<polygon fill="white" stroke="#666666" points="380.5,-24.5 275.5,-24.5 275.5,-5.5 380.5,-5.5 380.5,-24.5"/>
<text text-anchor="middle" x="328" y="-12.5" font-family="Helvetica,sans-Serif" font-size="10.00">squid/src/Notes.cc</text>
</a>
</g>
</g>
<!-- Node8&#45;&gt;Node9 -->
<g id="edge8_Node000008_Node000009" class="edge">
<title>Node8&#45;&gt;Node9</title>
<g id="a_edge8_Node000008_Node000009"><a xlink:title=" ">
<path fill="none" stroke="#63b8ff" d="M699.67,-68.92C624.42,-62 497.25,-48.77 389,-30 380.22,-28.48 370.81,-26.49 362.07,-24.5"/>
<polygon fill="#63b8ff" stroke="#63b8ff" points="699.66,-72.44 709.93,-69.86 700.29,-65.46 699.66,-72.44"/>
</a>
</g>
</g>
<!-- Node10 -->
<g id="Node000010" class="node">
<title>Node10</title>
<g id="a_Node000010"><a xlink:href="Checklist_8cc.html" target="_top" xlink:title=" ">
<polygon fill="white" stroke="#666666" points="537.5,-24.5 398.5,-24.5 398.5,-5.5 537.5,-5.5 537.5,-24.5"/>
<text text-anchor="middle" x="468" y="-12.5" font-family="Helvetica,sans-Serif" font-size="10.00">squid/src/acl/Checklist.cc</text>
</a>
</g>
</g>
<!-- Node8&#45;&gt;Node10 -->
<g id="edge9_Node000008_Node000010" class="edge">
<title>Node8&#45;&gt;Node10</title>
<g id="a_edge9_Node000008_Node000010"><a xlink:title=" ">
<path fill="none" stroke="#63b8ff" d="M711.86,-64.03C654.54,-52.74 564.38,-34.98 511.24,-24.52"/>
<polygon fill="#63b8ff" stroke="#63b8ff" points="711.33,-67.49 721.81,-65.99 712.68,-60.63 711.33,-67.49"/>
</a>
</g>
</g>
<!-- Node11 -->
<g id="Node000011" class="node">
<title>Node11</title>
<g id="a_Node000011"><a xlink:href="acl_2Gadgets_8cc.html" target="_top" xlink:title=" ">
<polygon fill="white" stroke="#666666" points="690,-24.5 556,-24.5 556,-5.5 690,-5.5 690,-24.5"/>
<text text-anchor="middle" x="623" y="-12.5" font-family="Helvetica,sans-Serif" font-size="10.00">squid/src/acl/Gadgets.cc</text>
</a>
</g>
</g>
<!-- Node8&#45;&gt;Node11 -->
<g id="edge10_Node000008_Node000011" class="edge">
<title>Node8&#45;&gt;Node11</title>
<g id="a_edge10_Node000008_Node000011"><a xlink:title=" ">
<path fill="none" stroke="#63b8ff" d="M734.86,-62.08C707.43,-50.78 667.66,-34.4 643.67,-24.52"/>
<polygon fill="#63b8ff" stroke="#63b8ff" points="733.77,-65.42 744.35,-65.99 736.44,-58.95 733.77,-65.42"/>
</a>
</g>
</g>
<!-- Node12 -->
<g id="Node000012" class="node">
<title>Node12</title>
<g id="a_Node000012"><a xlink:href="Tree_8cc.html" target="_top" xlink:title=" ">
<polygon fill="white" stroke="#666666" points="822,-24.5 708,-24.5 708,-5.5 822,-5.5 822,-24.5"/>
<text text-anchor="middle" x="765" y="-12.5" font-family="Helvetica,sans-Serif" font-size="10.00">squid/src/acl/Tree.cc</text>
</a>
</g>
</g>
<!-- Node8&#45;&gt;Node12 -->
<g id="edge11_Node000008_Node000012" class="edge">
<title>Node8&#45;&gt;Node12</title>
<g id="a_edge11_Node000008_Node000012"><a xlink:title=" ">
<path fill="none" stroke="#63b8ff" d="M765,-55.66C765,-45.24 765,-32.8 765,-24.67"/>
<polygon fill="#63b8ff" stroke="#63b8ff" points="761.5,-55.87 765,-65.87 768.5,-55.87 761.5,-55.87"/>
</a>
</g>
</g>
<!-- Node13 -->
<g id="Node000013" class="node">
<title>Node13</title>
<g id="a_Node000013"><a xlink:href="AccessRule_8cc.html" target="_top" xlink:title=" ">
<polygon fill="white" stroke="#666666" points="956,-30 840,-30 840,0 956,0 956,-30"/>
<text text-anchor="start" x="848" y="-18" font-family="Helvetica,sans-Serif" font-size="10.00">squid/src/adaptation</text>
<text text-anchor="middle" x="898" y="-7" font-family="Helvetica,sans-Serif" font-size="10.00">/AccessRule.cc</text>
</a>
</g>
</g>
<!-- Node8&#45;&gt;Node13 -->
<g id="edge12_Node000008_Node000013" class="edge">
<title>Node8&#45;&gt;Node13</title>
<g id="a_edge12_Node000008_Node000013"><a xlink:title=" ">
<path fill="none" stroke="#63b8ff" d="M793.52,-61.95C814.82,-52.59 843.94,-39.78 866.02,-30.06"/>
<polygon fill="#63b8ff" stroke="#63b8ff" points="792.08,-58.76 784.34,-65.99 794.9,-65.17 792.08,-58.76"/>
</a>
</g>
</g>
<!-- Node14 -->
<g id="Node000014" class="node">
<title>Node14</title>
<g id="a_Node000014"><a xlink:href="auth_2Config_8cc.html" target="_top" xlink:title=" ">
<polygon fill="white" stroke="#666666" points="1106,-24.5 974,-24.5 974,-5.5 1106,-5.5 1106,-24.5"/>
<text text-anchor="middle" x="1040" y="-12.5" font-family="Helvetica,sans-Serif" font-size="10.00">squid/src/auth/Config.cc</text>
</a>
</g>
</g>
<!-- Node8&#45;&gt;Node14 -->
<g id="edge13_Node000008_Node000014" class="edge">
<title>Node8&#45;&gt;Node14</title>
<g id="a_edge13_Node000008_Node000014"><a xlink:title=" ">
<path fill="none" stroke="#63b8ff" d="M814.86,-63.89C867.96,-52.6 950.96,-34.94 999.96,-24.52"/>
<polygon fill="#63b8ff" stroke="#63b8ff" points="814.04,-60.49 804.99,-65.99 815.5,-67.34 814.04,-60.49"/>
</a>
</g>
</g>
<!-- Node15 -->
<g id="Node000015" class="node">
<title>Node15</title>
<g id="a_Node000015"><a xlink:href="cache__cf_8cc.html" target="_top" xlink:title=" ">
<polygon fill="white" stroke="#666666" points="1243.5,-24.5 1124.5,-24.5 1124.5,-5.5 1243.5,-5.5 1243.5,-24.5"/>
<text text-anchor="middle" x="1184" y="-12.5" font-family="Helvetica,sans-Serif" font-size="10.00">squid/src/cache_cf.cc</text>
</a>
</g>
</g>
<!-- Node8&#45;&gt;Node15 -->
<g id="edge14_Node000008_Node000015" class="edge">
<title>Node8&#45;&gt;Node15</title>
<g id="a_edge14_Node000008_Node000015"><a xlink:title=" ">
<path fill="none" stroke="#63b8ff" d="M830.1,-67.68C900.54,-59.95 1016.06,-46.3 1115,-30 1124.53,-28.43 1134.75,-26.5 1144.32,-24.57"/>
<polygon fill="#63b8ff" stroke="#63b8ff" points="829.61,-64.21 820.04,-68.77 830.36,-71.17 829.61,-64.21"/>
</a>
</g>
</g>
<!-- Node16 -->
<g id="Node000016" class="node">
<title>Node16</title>
<g id="a_Node000016"><a xlink:href="KeyLog_8cc.html" target="_top" xlink:title=" ">
<polygon fill="white" stroke="#666666" points="1364,-30 1262,-30 1262,0 1364,0 1364,-30"/>
<text text-anchor="start" x="1270" y="-18" font-family="Helvetica,sans-Serif" font-size="10.00">squid/src/security</text>
<text text-anchor="middle" x="1313" y="-7" font-family="Helvetica,sans-Serif" font-size="10.00">/KeyLog.cc</text>
</a>
</g>
</g>
<!-- Node8&#45;&gt;Node16 -->
<g id="edge15_Node000008_Node000016" class="edge">
<title>Node8&#45;&gt;Node16</title>
<g id="a_edge15_Node000008_Node000016"><a xlink:title=" ">
<path fill="none" stroke="#63b8ff" d="M830.41,-71.42C924.38,-66.33 1102.84,-54.25 1253,-30 1255.85,-29.54 1258.77,-29.02 1261.71,-28.46"/>
<polygon fill="#63b8ff" stroke="#63b8ff" points="830,-67.93 820.2,-71.96 830.37,-74.92 830,-67.93"/>
</a>
</g>
</g>
</g>
</svg>
