<?xml version="1.0" encoding="UTF-8" standalone="no"?>
<!DOCTYPE svg PUBLIC "-//W3C//DTD SVG 1.1//EN"
 "http://www.w3.org/Graphics/SVG/1.1/DTD/svg11.dtd">
<!-- Generated by graphviz version 2.43.0 (0)
 -->
<!-- Title: squid/src/tests Pages: 1 -->
<svg width="1701pt" height="133pt"
 viewBox="0.00 0.00 1701.00 133.00" xmlns="http://www.w3.org/2000/svg" xmlns:xlink="http://www.w3.org/1999/xlink">
<g id="graph0" class="graph" transform="scale(1 1) rotate(0) translate(4 129)">
<title>squid/src/tests</title>
<g id="clust1" class="cluster">
<title>clusterdir_27a06220d184fcc3bd2c56b7794ae45b</title>
<g id="a_clust1"><a xlink:href="dir_27a06220d184fcc3bd2c56b7794ae45b.html" target="_top" xlink:title="src">
<polygon fill="#edf0f7" stroke="#7f7f7f" stroke-dasharray="5,2" points="8,-8 8,-117 1560,-117 1560,-8 8,-8"/>
<text text-anchor="middle" x="784" y="-105" font-family="Helvetica,sans-Serif" font-size="10.00">src</text>
</a>
</g>
</g>
<!-- dir_008e24b6ef3ec489277636e4133de850 -->
<g id="node1" class="node">
<title>dir_008e24b6ef3ec489277636e4133de850</title>
<g id="a_node1"><a xlink:href="dir_008e24b6ef3ec489277636e4133de850.html" target="_top" xlink:title="sbuf">
<polygon fill="#eaeef6" stroke="#404040" points="54,-35 16,-35 16,-16 54,-16 54,-35"/>
<text text-anchor="middle" x="35" y="-23" font-family="Helvetica,sans-Serif" font-size="10.00">sbuf</text>
</a>
</g>
</g>
<!-- dir_1229afb8e52dfc1c3c62a62edc39069e -->
<g id="node2" class="node">
<title>dir_1229afb8e52dfc1c3c62a62edc39069e</title>
<g id="a_node2"><a xlink:href="dir_1229afb8e52dfc1c3c62a62edc39069e.html" target="_top" xlink:title="store">
<polygon fill="#eaeef6" stroke="#404040" points="113.5,-35 72.5,-35 72.5,-16 113.5,-16 113.5,-35"/>
<text text-anchor="middle" x="93" y="-23" font-family="Helvetica,sans-Serif" font-size="10.00">store</text>
</a>
</g>
</g>
<!-- dir_1ad05120b44f4919e1d77d58275d4190 -->
<g id="node3" class="node">
<title>dir_1ad05120b44f4919e1d77d58275d4190</title>
<g id="a_node3"><a xlink:href="dir_1ad05120b44f4919e1d77d58275d4190.html" target="_top" xlink:title="html">
<polygon fill="#eaeef6" stroke="#404040" points="170.5,-35 131.5,-35 131.5,-16 170.5,-16 170.5,-35"/>
<text text-anchor="middle" x="151" y="-23" font-family="Helvetica,sans-Serif" font-size="10.00">html</text>
</a>
</g>
</g>
<!-- dir_27bf6a35aa2eb0312e6ebe0593a6cab3 -->
<g id="node4" class="node">
<title>dir_27bf6a35aa2eb0312e6ebe0593a6cab3</title>
<g id="a_node4"><a xlink:href="dir_27bf6a35aa2eb0312e6ebe0593a6cab3.html" target="_top" xlink:title="dns">
<polygon fill="#eaeef6" stroke="#404040" points="223,-35 189,-35 189,-16 223,-16 223,-35"/>
<text text-anchor="middle" x="206" y="-23" font-family="Helvetica,sans-Serif" font-size="10.00">dns</text>
</a>
</g>
</g>
<!-- dir_2926faa6d81a8066318a65bfc336f67b -->
<g id="node5" class="node">
<title>dir_2926faa6d81a8066318a65bfc336f67b</title>
<g id="a_node5"><a xlink:href="dir_2926faa6d81a8066318a65bfc336f67b.html" target="_top" xlink:title="acl">
<polygon fill="#eaeef6" stroke="red" points="272.5,-35 241.5,-35 241.5,-16 272.5,-16 272.5,-35"/>
<text text-anchor="middle" x="257" y="-23" font-family="Helvetica,sans-Serif" font-size="10.00">acl</text>
</a>
</g>
</g>
<!-- dir_2e21134419e2db2c9a4ff64f0ab0ad8d -->
<g id="node6" class="node">
<title>dir_2e21134419e2db2c9a4ff64f0ab0ad8d</title>
<g id="a_node6"><a xlink:href="dir_2e21134419e2db2c9a4ff64f0ab0ad8d.html" target="_top" xlink:title="time">
<polygon fill="#eaeef6" stroke="#404040" points="329.5,-35 290.5,-35 290.5,-16 329.5,-16 329.5,-35"/>
<text text-anchor="middle" x="310" y="-23" font-family="Helvetica,sans-Serif" font-size="10.00">time</text>
</a>
</g>
</g>
<!-- dir_34d8c116a98ee54e3e383a09eadea7c5 -->
<g id="node7" class="node">
<title>dir_34d8c116a98ee54e3e383a09eadea7c5</title>
<g id="a_node7"><a xlink:href="dir_34d8c116a98ee54e3e383a09eadea7c5.html" target="_top" xlink:title="ssl">
<polygon fill="#eaeef6" stroke="#404040" points="378,-35 348,-35 348,-16 378,-16 378,-35"/>
<text text-anchor="middle" x="363" y="-23" font-family="Helvetica,sans-Serif" font-size="10.00">ssl</text>
</a>
</g>
</g>
<!-- dir_46e48f159c6fdd75bd63e946ebf1533e -->
<g id="node8" class="node">
<title>dir_46e48f159c6fdd75bd63e946ebf1533e</title>
<g id="a_node8"><a xlink:href="dir_46e48f159c6fdd75bd63e946ebf1533e.html" target="_top" xlink:title="http">
<polygon fill="#eaeef6" stroke="red" points="432,-35 396,-35 396,-16 432,-16 432,-35"/>
<text text-anchor="middle" x="414" y="-23" font-family="Helvetica,sans-Serif" font-size="10.00">http</text>
</a>
</g>
</g>
<!-- dir_49892635ae30f06b98770bacb35a9385 -->
<g id="node9" class="node">
<title>dir_49892635ae30f06b98770bacb35a9385</title>
<g id="a_node9"><a xlink:href="dir_49892635ae30f06b98770bacb35a9385.html" target="_top" xlink:title="base">
<polygon fill="#eaeef6" stroke="#404040" points="490,-35 450,-35 450,-16 490,-16 490,-35"/>
<text text-anchor="middle" x="470" y="-23" font-family="Helvetica,sans-Serif" font-size="10.00">base</text>
</a>
</g>
</g>
<!-- dir_55b0ad995e1786cdb535c62f30120969 -->
<g id="node10" class="node">
<title>dir_55b0ad995e1786cdb535c62f30120969</title>
<g id="a_node10"><a xlink:href="dir_55b0ad995e1786cdb535c62f30120969.html" target="_top" xlink:title="log">
<polygon fill="#eaeef6" stroke="red" points="540,-35 508,-35 508,-16 540,-16 540,-35"/>
<text text-anchor="middle" x="524" y="-23" font-family="Helvetica,sans-Serif" font-size="10.00">log</text>
</a>
</g>
</g>
<!-- dir_6b7615169cf4177f323b6deda6409b41 -->
<g id="node11" class="node">
<title>dir_6b7615169cf4177f323b6deda6409b41</title>
<g id="a_node11"><a xlink:href="dir_6b7615169cf4177f323b6deda6409b41.html" target="_top" xlink:title="anyp">
<polygon fill="#eaeef6" stroke="#404040" points="599.5,-35 558.5,-35 558.5,-16 599.5,-16 599.5,-35"/>
<text text-anchor="middle" x="579" y="-23" font-family="Helvetica,sans-Serif" font-size="10.00">anyp</text>
</a>
</g>
</g>
<!-- dir_72bd1cc4908af49389bffee6af8ae79c -->
<g id="node12" class="node">
<title>dir_72bd1cc4908af49389bffee6af8ae79c</title>
<g id="a_node12"><a xlink:href="dir_72bd1cc4908af49389bffee6af8ae79c.html" target="_top" xlink:title="mem">
<polygon fill="#eaeef6" stroke="#404040" points="660,-35 618,-35 618,-16 660,-16 660,-35"/>
<text text-anchor="middle" x="639" y="-23" font-family="Helvetica,sans-Serif" font-size="10.00">mem</text>
</a>
</g>
</g>
<!-- dir_81f981ce9e735fdd4ac8452d01660f4f -->
<g id="node13" class="node">
<title>dir_81f981ce9e735fdd4ac8452d01660f4f</title>
<g id="a_node13"><a xlink:href="dir_81f981ce9e735fdd4ac8452d01660f4f.html" target="_top" xlink:title="security">
<polygon fill="#eaeef6" stroke="red" points="734,-35 678,-35 678,-16 734,-16 734,-35"/>
<text text-anchor="middle" x="706" y="-23" font-family="Helvetica,sans-Serif" font-size="10.00">security</text>
</a>
</g>
</g>
<!-- dir_877c6be962203536ec0ede72ce1d02d8 -->
<g id="node14" class="node">
<title>dir_877c6be962203536ec0ede72ce1d02d8</title>
<g id="a_node14"><a xlink:href="dir_877c6be962203536ec0ede72ce1d02d8.html" target="_top" xlink:title="eui">
<polygon fill="#eaeef6" stroke="#404040" points="784,-35 752,-35 752,-16 784,-16 784,-35"/>
<text text-anchor="middle" x="768" y="-23" font-family="Helvetica,sans-Serif" font-size="10.00">eui</text>
</a>
</g>
</g>
<!-- dir_900fadd3908af8f5d091140c3df49239 -->
<g id="node15" class="node">
<title>dir_900fadd3908af8f5d091140c3df49239</title>
<g id="a_node15"><a xlink:href="dir_900fadd3908af8f5d091140c3df49239.html" target="_top" xlink:title="ip">
<polygon fill="#eaeef6" stroke="#404040" points="831.5,-35 802.5,-35 802.5,-16 831.5,-16 831.5,-35"/>
<text text-anchor="middle" x="817" y="-23" font-family="Helvetica,sans-Serif" font-size="10.00">ip</text>
</a>
</g>
</g>
<!-- dir_974c35a9e5da76de066be5bc9a9208f0 -->
<g id="node16" class="node">
<title>dir_974c35a9e5da76de066be5bc9a9208f0</title>
<g id="a_node16"><a xlink:href="dir_974c35a9e5da76de066be5bc9a9208f0.html" target="_top" xlink:title="debug">
<polygon fill="#eaeef6" stroke="#404040" points="896.5,-35 849.5,-35 849.5,-16 896.5,-16 896.5,-35"/>
<text text-anchor="middle" x="873" y="-23" font-family="Helvetica,sans-Serif" font-size="10.00">debug</text>
</a>
</g>
</g>
<!-- dir_a709f1c13cdcc3dd32e0e7a9b41904a5 -->
<g id="node17" class="node">
<title>dir_a709f1c13cdcc3dd32e0e7a9b41904a5</title>
<g id="a_node17"><a xlink:href="dir_a709f1c13cdcc3dd32e0e7a9b41904a5.html" target="_top" xlink:title="DiskIO">
<polygon fill="#eaeef6" stroke="red" points="963.5,-35 914.5,-35 914.5,-16 963.5,-16 963.5,-35"/>
<text text-anchor="middle" x="939" y="-23" font-family="Helvetica,sans-Serif" font-size="10.00">DiskIO</text>
</a>
</g>
</g>
<!-- dir_aa9ab13a9492763818e06702b5c02d59 -->
<g id="node18" class="node">
<title>dir_aa9ab13a9492763818e06702b5c02d59</title>
<g id="a_node18"><a xlink:href="dir_aa9ab13a9492763818e06702b5c02d59.html" target="_top" xlink:title="icmp">
<polygon fill="#eaeef6" stroke="#404040" points="1022.5,-35 981.5,-35 981.5,-16 1022.5,-16 1022.5,-35"/>
<text text-anchor="middle" x="1002" y="-23" font-family="Helvetica,sans-Serif" font-size="10.00">icmp</text>
</a>
</g>
</g>
<!-- dir_aac6bef21c08f140b9c9770a74a20a95 -->
<g id="node19" class="node">
<title>dir_aac6bef21c08f140b9c9770a74a20a95</title>
<g id="a_node19"><a xlink:href="dir_aac6bef21c08f140b9c9770a74a20a95.html" target="_top" xlink:title="auth">
<polygon fill="#eaeef6" stroke="red" points="1079,-35 1041,-35 1041,-16 1079,-16 1079,-35"/>
<text text-anchor="middle" x="1060" y="-23" font-family="Helvetica,sans-Serif" font-size="10.00">auth</text>
</a>
</g>
</g>
<!-- dir_c5d369d8d52b23f00d4897c91e3e9a7a -->
<g id="node20" class="node">
<title>dir_c5d369d8d52b23f00d4897c91e3e9a7a</title>
<g id="a_node20"><a xlink:href="dir_c5d369d8d52b23f00d4897c91e3e9a7a.html" target="_top" xlink:title="mgr">
<polygon fill="#eaeef6" stroke="#404040" points="1133,-35 1097,-35 1097,-16 1133,-16 1133,-35"/>
<text text-anchor="middle" x="1115" y="-23" font-family="Helvetica,sans-Serif" font-size="10.00">mgr</text>
</a>
</g>
</g>
<!-- dir_c63f27843881769261e9f0e02d97c751 -->
<g id="node21" class="node">
<title>dir_c63f27843881769261e9f0e02d97c751</title>
<g id="a_node21"><a xlink:href="dir_c63f27843881769261e9f0e02d97c751.html" target="_top" xlink:title="error">
<polygon fill="#eaeef6" stroke="#404040" points="1191,-35 1151,-35 1151,-16 1191,-16 1191,-35"/>
<text text-anchor="middle" x="1171" y="-23" font-family="Helvetica,sans-Serif" font-size="10.00">error</text>
</a>
</g>
</g>
<!-- dir_c8beb12667e670be2c1fb7f9efa8bac3 -->
<g id="node22" class="node">
<title>dir_c8beb12667e670be2c1fb7f9efa8bac3</title>
<g id="a_node22"><a xlink:href="dir_c8beb12667e670be2c1fb7f9efa8bac3.html" target="_top" xlink:title="comm">
<polygon fill="#eaeef6" stroke="#404040" points="1256.5,-35 1209.5,-35 1209.5,-16 1256.5,-16 1256.5,-35"/>
<text text-anchor="middle" x="1233" y="-23" font-family="Helvetica,sans-Serif" font-size="10.00">comm</text>
</a>
</g>
</g>
<!-- dir_cce7e4eda75c585c784c6ea3659dc5d2 -->
<g id="node23" class="node">
<title>dir_cce7e4eda75c585c784c6ea3659dc5d2</title>
<g id="a_node23"><a xlink:href="dir_cce7e4eda75c585c784c6ea3659dc5d2.html" target="_top" xlink:title="helper">
<polygon fill="#eaeef6" stroke="#404040" points="1321.5,-35 1274.5,-35 1274.5,-16 1321.5,-16 1321.5,-35"/>
<text text-anchor="middle" x="1298" y="-23" font-family="Helvetica,sans-Serif" font-size="10.00">helper</text>
</a>
</g>
</g>
<!-- dir_d213a8fe46ca211aae8dbe539bb9aa31 -->
<g id="node24" class="node">
<title>dir_d213a8fe46ca211aae8dbe539bb9aa31</title>
<g id="a_node24"><a xlink:href="dir_d213a8fe46ca211aae8dbe539bb9aa31.html" target="_top" xlink:title="format">
<polygon fill="#eaeef6" stroke="#404040" points="1390,-35 1340,-35 1340,-16 1390,-16 1390,-35"/>
<text text-anchor="middle" x="1365" y="-23" font-family="Helvetica,sans-Serif" font-size="10.00">format</text>
</a>
</g>
</g>
<!-- dir_d7fd326be3a24d275f9d3ec413e71e70 -->
<g id="node25" class="node">
<title>dir_d7fd326be3a24d275f9d3ec413e71e70</title>
<g id="a_node25"><a xlink:href="dir_d7fd326be3a24d275f9d3ec413e71e70.html" target="_top" xlink:title="fs">
<polygon fill="#eaeef6" stroke="red" points="1437.5,-35 1408.5,-35 1408.5,-16 1437.5,-16 1437.5,-35"/>
<text text-anchor="middle" x="1423" y="-23" font-family="Helvetica,sans-Serif" font-size="10.00">fs</text>
</a>
</g>
</g>
<!-- dir_dd4f5294299cd91ca8f126727715fb74 -->
<g id="node26" class="node">
<title>dir_dd4f5294299cd91ca8f126727715fb74</title>
<g id="a_node26"><a xlink:href="dir_dd4f5294299cd91ca8f126727715fb74.html" target="_top" xlink:title="ipc">
<polygon fill="#eaeef6" stroke="red" points="1486.5,-35 1455.5,-35 1455.5,-16 1486.5,-16 1486.5,-35"/>
<text text-anchor="middle" x="1471" y="-23" font-family="Helvetica,sans-Serif" font-size="10.00">ipc</text>
</a>
</g>
</g>
<!-- dir_f9425c2010de9e0bfd045f1ea46112c8 -->
<g id="node27" class="node">
<title>dir_f9425c2010de9e0bfd045f1ea46112c8</title>
<g id="a_node27"><a xlink:href="dir_f9425c2010de9e0bfd045f1ea46112c8.html" target="_top" xlink:title="parser">
<polygon fill="#eaeef6" stroke="#404040" points="1551.5,-35 1504.5,-35 1504.5,-16 1551.5,-16 1551.5,-35"/>
<text text-anchor="middle" x="1528" y="-23" font-family="Helvetica,sans-Serif" font-size="10.00">parser</text>
</a>
</g>
</g>
<!-- dir_78cc654a211fbf15eaa8c471d4d5c5ff -->
<g id="node28" class="node">
<title>dir_78cc654a211fbf15eaa8c471d4d5c5ff</title>
<g id="a_node28"><a xlink:href="dir_78cc654a211fbf15eaa8c471d4d5c5ff.html" target="_top" xlink:title="tests">
<polygon fill="#edf0f7" stroke="#404040" stroke-width="2" points="837.5,-90 796.5,-90 796.5,-71 837.5,-71 837.5,-90"/>
<text text-anchor="middle" x="817" y="-78" font-family="Helvetica,sans-Serif" font-size="10.00">tests</text>
</a>
</g>
</g>
<!-- dir_78cc654a211fbf15eaa8c471d4d5c5ff&#45;&gt;dir_008e24b6ef3ec489277636e4133de850 -->
<g id="edge1" class="edge">
<title>dir_78cc654a211fbf15eaa8c471d4d5c5ff&#45;&gt;dir_008e24b6ef3ec489277636e4133de850</title>
<g id="a_edge1"><a xlink:href="dir_000094_000077.html" target="_top">
<path fill="none" stroke="#63b8ff" d="M796.19,-78.91C690.29,-75.79 210.6,-60.48 64,-35 63.9,-34.98 63.8,-34.96 63.7,-34.95"/>
<polygon fill="#63b8ff" stroke="#63b8ff" points="64.73,-31.59 54.2,-32.79 63.17,-38.42 64.73,-31.59"/>
</a>
</g>
<g id="a_edge1&#45;headlabel"><a xlink:href="dir_000094_000077.html" target="_top" xlink:title="16">
<text text-anchor="middle" x="68.86" y="-27.12" font-family="Helvetica,sans-Serif" font-size="10.00" fill="#63b8ff">16</text>
</a>
</g>
</g>
<!-- dir_78cc654a211fbf15eaa8c471d4d5c5ff&#45;&gt;dir_1229afb8e52dfc1c3c62a62edc39069e -->
<g id="edge2" class="edge">
<title>dir_78cc654a211fbf15eaa8c471d4d5c5ff&#45;&gt;dir_1229afb8e52dfc1c3c62a62edc39069e</title>
<g id="a_edge2"><a xlink:href="dir_000094_000091.html" target="_top">
<path fill="none" stroke="#63b8ff" d="M796.38,-79.76C713.14,-80.5 393.9,-80.17 123.53,-34.64"/>
<polygon fill="#63b8ff" stroke="#63b8ff" points="123.97,-31.17 113.52,-32.94 122.79,-38.07 123.97,-31.17"/>
</a>
</g>
<g id="a_edge2&#45;headlabel"><a xlink:href="dir_000094_000091.html" target="_top" xlink:title="14">
<text text-anchor="middle" x="127.99" y="-26.48" font-family="Helvetica,sans-Serif" font-size="10.00" fill="#63b8ff">14</text>
</a>
</g>
</g>
<!-- dir_78cc654a211fbf15eaa8c471d4d5c5ff&#45;&gt;dir_1ad05120b44f4919e1d77d58275d4190 -->
<g id="edge3" class="edge">
<title>dir_78cc654a211fbf15eaa8c471d4d5c5ff&#45;&gt;dir_1ad05120b44f4919e1d77d58275d4190</title>
<g id="a_edge3"><a xlink:href="dir_000094_000041.html" target="_top">
<path fill="none" stroke="#63b8ff" d="M796.45,-79.66C717.66,-79.96 427.31,-78 180.39,-34.6"/>
<polygon fill="#63b8ff" stroke="#63b8ff" points="180.98,-31.15 170.52,-32.84 179.75,-38.04 180.98,-31.15"/>
</a>
</g>
<g id="a_edge3&#45;headlabel"><a xlink:href="dir_000094_000041.html" target="_top" xlink:title="1">
<text text-anchor="middle" x="185.02" y="-26.49" font-family="Helvetica,sans-Serif" font-size="10.00" fill="#63b8ff">1</text>
</a>
</g>
</g>
<!-- dir_78cc654a211fbf15eaa8c471d4d5c5ff&#45;&gt;dir_27bf6a35aa2eb0312e6ebe0593a6cab3 -->
<g id="edge4" class="edge">
<title>dir_78cc654a211fbf15eaa8c471d4d5c5ff&#45;&gt;dir_27bf6a35aa2eb0312e6ebe0593a6cab3</title>
<g id="a_edge4"><a xlink:href="dir_000094_000020.html" target="_top">
<path fill="none" stroke="#63b8ff" d="M796.34,-79.62C720.49,-79.73 450.41,-76.93 233,-35 232.9,-34.98 232.8,-34.96 232.7,-34.94"/>
<polygon fill="#63b8ff" stroke="#63b8ff" points="233.83,-31.62 223.28,-32.58 232.13,-38.41 233.83,-31.62"/>
</a>
</g>
<g id="a_edge4&#45;headlabel"><a xlink:href="dir_000094_000020.html" target="_top" xlink:title="1">
<text text-anchor="middle" x="238.01" y="-27.24" font-family="Helvetica,sans-Serif" font-size="10.00" fill="#63b8ff">1</text>
</a>
</g>
</g>
<!-- dir_78cc654a211fbf15eaa8c471d4d5c5ff&#45;&gt;dir_2926faa6d81a8066318a65bfc336f67b -->
<g id="edge5" class="edge">
<title>dir_78cc654a211fbf15eaa8c471d4d5c5ff&#45;&gt;dir_2926faa6d81a8066318a65bfc336f67b</title>
<g id="a_edge5"><a xlink:href="dir_000094_000000.html" target="_top">
<path fill="none" stroke="#63b8ff" d="M796.33,-79.59C725.62,-79.51 486.95,-76.16 282.71,-34.57"/>
<polygon fill="#63b8ff" stroke="#63b8ff" points="283.21,-31.09 272.71,-32.49 281.79,-37.95 283.21,-31.09"/>
</a>
</g>
<g id="a_edge5&#45;headlabel"><a xlink:href="dir_000094_000000.html" target="_top" xlink:title="6">
<text text-anchor="middle" x="287.31" y="-26.54" font-family="Helvetica,sans-Serif" font-size="10.00" fill="#63b8ff">6</text>
</a>
</g>
</g>
<!-- dir_78cc654a211fbf15eaa8c471d4d5c5ff&#45;&gt;dir_2e21134419e2db2c9a4ff64f0ab0ad8d -->
<g id="edge6" class="edge">
<title>dir_78cc654a211fbf15eaa8c471d4d5c5ff&#45;&gt;dir_2e21134419e2db2c9a4ff64f0ab0ad8d</title>
<g id="a_edge6"><a xlink:href="dir_000094_000095.html" target="_top">
<path fill="none" stroke="#63b8ff" d="M796.3,-78.99C730.7,-77.08 521.52,-68.74 339.55,-34.68"/>
<polygon fill="#63b8ff" stroke="#63b8ff" points="340.01,-31.21 329.53,-32.78 338.7,-38.09 340.01,-31.21"/>
</a>
</g>
<g id="a_edge6&#45;headlabel"><a xlink:href="dir_000094_000095.html" target="_top" xlink:title="5">
<text text-anchor="middle" x="344.07" y="-26.59" font-family="Helvetica,sans-Serif" font-size="10.00" fill="#63b8ff">5</text>
</a>
</g>
</g>
<!-- dir_78cc654a211fbf15eaa8c471d4d5c5ff&#45;&gt;dir_34d8c116a98ee54e3e383a09eadea7c5 -->
<g id="edge7" class="edge">
<title>dir_78cc654a211fbf15eaa8c471d4d5c5ff&#45;&gt;dir_34d8c116a98ee54e3e383a09eadea7c5</title>
<g id="a_edge7"><a xlink:href="dir_000094_000087.html" target="_top">
<path fill="none" stroke="#63b8ff" d="M796.13,-79.09C734.71,-77.51 549.3,-70.14 388.16,-34.71"/>
<polygon fill="#63b8ff" stroke="#63b8ff" points="388.6,-31.22 378.08,-32.45 387.07,-38.05 388.6,-31.22"/>
</a>
</g>
<g id="a_edge7&#45;headlabel"><a xlink:href="dir_000094_000087.html" target="_top" xlink:title="4">
<text text-anchor="middle" x="392.73" y="-26.74" font-family="Helvetica,sans-Serif" font-size="10.00" fill="#63b8ff">4</text>
</a>
</g>
</g>
<!-- dir_78cc654a211fbf15eaa8c471d4d5c5ff&#45;&gt;dir_46e48f159c6fdd75bd63e946ebf1533e -->
<g id="edge8" class="edge">
<title>dir_78cc654a211fbf15eaa8c471d4d5c5ff&#45;&gt;dir_46e48f159c6fdd75bd63e946ebf1533e</title>
<g id="a_edge8"><a xlink:href="dir_000094_000042.html" target="_top">
<path fill="none" stroke="#63b8ff" d="M796.4,-78.42C740.69,-75.21 582.34,-64.22 442.23,-34.87"/>
<polygon fill="#63b8ff" stroke="#63b8ff" points="442.69,-31.39 432.18,-32.73 441.23,-38.24 442.69,-31.39"/>
</a>
</g>
<g id="a_edge8&#45;headlabel"><a xlink:href="dir_000094_000042.html" target="_top" xlink:title="14">
<text text-anchor="middle" x="446.79" y="-26.87" font-family="Helvetica,sans-Serif" font-size="10.00" fill="#63b8ff">14</text>
</a>
</g>
</g>
<!-- dir_78cc654a211fbf15eaa8c471d4d5c5ff&#45;&gt;dir_49892635ae30f06b98770bacb35a9385 -->
<g id="edge9" class="edge">
<title>dir_78cc654a211fbf15eaa8c471d4d5c5ff&#45;&gt;dir_49892635ae30f06b98770bacb35a9385</title>
<g id="a_edge9"><a xlink:href="dir_000094_000007.html" target="_top">
<path fill="none" stroke="#63b8ff" d="M796.36,-77.67C746.82,-73.04 617.25,-59.64 500.04,-34.94"/>
<polygon fill="#63b8ff" stroke="#63b8ff" points="500.7,-31.5 490.18,-32.83 499.23,-38.34 500.7,-31.5"/>
</a>
</g>
<g id="a_edge9&#45;headlabel"><a xlink:href="dir_000094_000007.html" target="_top" xlink:title="19">
<text text-anchor="middle" x="504.81" y="-26.97" font-family="Helvetica,sans-Serif" font-size="10.00" fill="#63b8ff">19</text>
</a>
</g>
</g>
<!-- dir_78cc654a211fbf15eaa8c471d4d5c5ff&#45;&gt;dir_55b0ad995e1786cdb535c62f30120969 -->
<g id="edge10" class="edge">
<title>dir_78cc654a211fbf15eaa8c471d4d5c5ff&#45;&gt;dir_55b0ad995e1786cdb535c62f30120969</title>
<g id="a_edge10"><a xlink:href="dir_000094_000056.html" target="_top">
<path fill="none" stroke="#63b8ff" d="M796.35,-77.14C751.23,-71.74 640.6,-57.22 550,-35 549.9,-34.98 549.8,-34.95 549.7,-34.93"/>
<polygon fill="#63b8ff" stroke="#63b8ff" points="550.7,-31.57 540.12,-32.19 548.77,-38.3 550.7,-31.57"/>
</a>
</g>
<g id="a_edge10&#45;headlabel"><a xlink:href="dir_000094_000056.html" target="_top" xlink:title="10">
<text text-anchor="middle" x="554.93" y="-27.33" font-family="Helvetica,sans-Serif" font-size="10.00" fill="#63b8ff">10</text>
</a>
</g>
</g>
<!-- dir_78cc654a211fbf15eaa8c471d4d5c5ff&#45;&gt;dir_6b7615169cf4177f323b6deda6409b41 -->
<g id="edge12" class="edge">
<title>dir_78cc654a211fbf15eaa8c471d4d5c5ff&#45;&gt;dir_6b7615169cf4177f323b6deda6409b41</title>
<g id="a_edge12"><a xlink:href="dir_000094_000004.html" target="_top">
<path fill="none" stroke="#63b8ff" d="M796.23,-75.52C760.3,-68.55 684.03,-53.3 609.62,-35.01"/>
<polygon fill="#63b8ff" stroke="#63b8ff" points="610.16,-31.54 599.61,-32.53 608.47,-38.33 610.16,-31.54"/>
</a>
</g>
<g id="a_edge12&#45;headlabel"><a xlink:href="dir_000094_000004.html" target="_top" xlink:title="4">
<text text-anchor="middle" x="614.33" y="-27.15" font-family="Helvetica,sans-Serif" font-size="10.00" fill="#63b8ff">4</text>
</a>
</g>
</g>
<!-- dir_78cc654a211fbf15eaa8c471d4d5c5ff&#45;&gt;dir_72bd1cc4908af49389bffee6af8ae79c -->
<g id="edge13" class="edge">
<title>dir_78cc654a211fbf15eaa8c471d4d5c5ff&#45;&gt;dir_72bd1cc4908af49389bffee6af8ae79c</title>
<g id="a_edge13"><a xlink:href="dir_000094_000059.html" target="_top">
<path fill="none" stroke="#63b8ff" d="M796.23,-73.32C765.18,-64.07 706.44,-46.58 670.21,-35.79"/>
<polygon fill="#63b8ff" stroke="#63b8ff" points="670.77,-32.31 660.19,-32.81 668.77,-39.02 670.77,-32.31"/>
</a>
</g>
<g id="a_edge13&#45;headlabel"><a xlink:href="dir_000094_000059.html" target="_top" xlink:title="6">
<text text-anchor="middle" x="675.03" y="-28.11" font-family="Helvetica,sans-Serif" font-size="10.00" fill="#63b8ff">6</text>
</a>
</g>
</g>
<!-- dir_78cc654a211fbf15eaa8c471d4d5c5ff&#45;&gt;dir_81f981ce9e735fdd4ac8452d01660f4f -->
<g id="edge14" class="edge">
<title>dir_78cc654a211fbf15eaa8c471d4d5c5ff&#45;&gt;dir_81f981ce9e735fdd4ac8452d01660f4f</title>
<g id="a_edge14"><a xlink:href="dir_000094_000079.html" target="_top">
<path fill="none" stroke="#63b8ff" d="M799.17,-70.98C781.39,-62.5 753.85,-49.35 733.32,-39.54"/>
<polygon fill="#63b8ff" stroke="#63b8ff" points="734.69,-36.32 724.16,-35.17 731.67,-42.64 734.69,-36.32"/>
</a>
</g>
<g id="a_edge14&#45;headlabel"><a xlink:href="dir_000094_000079.html" target="_top" xlink:title="13">
<text text-anchor="middle" x="739.16" y="-32.81" font-family="Helvetica,sans-Serif" font-size="10.00" fill="#63b8ff">13</text>
</a>
</g>
</g>
<!-- dir_78cc654a211fbf15eaa8c471d4d5c5ff&#45;&gt;dir_877c6be962203536ec0ede72ce1d02d8 -->
<g id="edge15" class="edge">
<title>dir_78cc654a211fbf15eaa8c471d4d5c5ff&#45;&gt;dir_877c6be962203536ec0ede72ce1d02d8</title>
<g id="a_edge15"><a xlink:href="dir_000094_000026.html" target="_top">
<path fill="none" stroke="#63b8ff" d="M808.91,-70.75C801.84,-63.11 791.41,-51.82 782.85,-42.56"/>
<polygon fill="#63b8ff" stroke="#63b8ff" points="785.3,-40.06 775.94,-35.09 780.16,-44.81 785.3,-40.06"/>
</a>
</g>
<g id="a_edge15&#45;headlabel"><a xlink:href="dir_000094_000026.html" target="_top" xlink:title="3">
<text text-anchor="middle" x="789.82" y="-38.27" font-family="Helvetica,sans-Serif" font-size="10.00" fill="#63b8ff">3</text>
</a>
</g>
</g>
<!-- dir_78cc654a211fbf15eaa8c471d4d5c5ff&#45;&gt;dir_900fadd3908af8f5d091140c3df49239 -->
<g id="edge16" class="edge">
<title>dir_78cc654a211fbf15eaa8c471d4d5c5ff&#45;&gt;dir_900fadd3908af8f5d091140c3df49239</title>
<g id="a_edge16"><a xlink:href="dir_000094_000046.html" target="_top">
<path fill="none" stroke="#63b8ff" d="M817,-70.75C817,-63.8 817,-53.85 817,-45.13"/>
<polygon fill="#63b8ff" stroke="#63b8ff" points="820.5,-45.09 817,-35.09 813.5,-45.09 820.5,-45.09"/>
</a>
</g>
<g id="a_edge16&#45;headlabel"><a xlink:href="dir_000094_000046.html" target="_top" xlink:title="7">
<text text-anchor="middle" x="823.34" y="-46.18" font-family="Helvetica,sans-Serif" font-size="10.00" fill="#63b8ff">7</text>
</a>
</g>
</g>
<!-- dir_78cc654a211fbf15eaa8c471d4d5c5ff&#45;&gt;dir_974c35a9e5da76de066be5bc9a9208f0 -->
<g id="edge17" class="edge">
<title>dir_78cc654a211fbf15eaa8c471d4d5c5ff&#45;&gt;dir_974c35a9e5da76de066be5bc9a9208f0</title>
<g id="a_edge17"><a xlink:href="dir_000094_000014.html" target="_top">
<path fill="none" stroke="#63b8ff" d="M826,-70.98C834.19,-63.23 846.51,-51.58 856.47,-42.14"/>
<polygon fill="#63b8ff" stroke="#63b8ff" points="858.98,-44.59 863.84,-35.17 854.17,-39.5 858.98,-44.59"/>
</a>
</g>
<g id="a_edge17&#45;headlabel"><a xlink:href="dir_000094_000014.html" target="_top" xlink:title="4">
<text text-anchor="middle" x="858.32" y="-46.62" font-family="Helvetica,sans-Serif" font-size="10.00" fill="#63b8ff">4</text>
</a>
</g>
</g>
<!-- dir_78cc654a211fbf15eaa8c471d4d5c5ff&#45;&gt;dir_a709f1c13cdcc3dd32e0e7a9b41904a5 -->
<g id="edge18" class="edge">
<title>dir_78cc654a211fbf15eaa8c471d4d5c5ff&#45;&gt;dir_a709f1c13cdcc3dd32e0e7a9b41904a5</title>
<g id="a_edge18"><a xlink:href="dir_000094_000018.html" target="_top">
<path fill="none" stroke="#63b8ff" d="M836.6,-70.98C856.32,-62.42 886.95,-49.11 909.58,-39.28"/>
<polygon fill="#63b8ff" stroke="#63b8ff" points="911.26,-42.37 919.04,-35.17 908.48,-35.94 911.26,-42.37"/>
</a>
</g>
<g id="a_edge18&#45;headlabel"><a xlink:href="dir_000094_000018.html" target="_top" xlink:title="7">
<text text-anchor="middle" x="909.1" y="-43.9" font-family="Helvetica,sans-Serif" font-size="10.00" fill="#63b8ff">7</text>
</a>
</g>
</g>
<!-- dir_78cc654a211fbf15eaa8c471d4d5c5ff&#45;&gt;dir_aa9ab13a9492763818e06702b5c02d59 -->
<g id="edge19" class="edge">
<title>dir_78cc654a211fbf15eaa8c471d4d5c5ff&#45;&gt;dir_aa9ab13a9492763818e06702b5c02d59</title>
<g id="a_edge19"><a xlink:href="dir_000094_000044.html" target="_top">
<path fill="none" stroke="#63b8ff" d="M837.71,-73.65C865.9,-65.66 918.2,-50.81 971.76,-35.35"/>
<polygon fill="#63b8ff" stroke="#63b8ff" points="972.78,-38.69 981.41,-32.55 970.83,-31.97 972.78,-38.69"/>
</a>
</g>
<g id="a_edge19&#45;headlabel"><a xlink:href="dir_000094_000044.html" target="_top" xlink:title="4">
<text text-anchor="middle" x="970.11" y="-39.92" font-family="Helvetica,sans-Serif" font-size="10.00" fill="#63b8ff">4</text>
</a>
</g>
</g>
<!-- dir_78cc654a211fbf15eaa8c471d4d5c5ff&#45;&gt;dir_aac6bef21c08f140b9c9770a74a20a95 -->
<g id="edge20" class="edge">
<title>dir_78cc654a211fbf15eaa8c471d4d5c5ff&#45;&gt;dir_aac6bef21c08f140b9c9770a74a20a95</title>
<g id="a_edge20"><a xlink:href="dir_000094_000006.html" target="_top">
<path fill="none" stroke="#63b8ff" d="M837.6,-75.88C874.47,-69.26 954.35,-54.31 1030.97,-35.08"/>
<polygon fill="#63b8ff" stroke="#63b8ff" points="1031.95,-38.44 1040.78,-32.58 1030.23,-31.65 1031.95,-38.44"/>
</a>
</g>
<g id="a_edge20&#45;headlabel"><a xlink:href="dir_000094_000006.html" target="_top" xlink:title="14">
<text text-anchor="middle" x="1029.17" y="-39.57" font-family="Helvetica,sans-Serif" font-size="10.00" fill="#63b8ff">14</text>
</a>
</g>
</g>
<!-- dir_78cc654a211fbf15eaa8c471d4d5c5ff&#45;&gt;dir_c5d369d8d52b23f00d4897c91e3e9a7a -->
<g id="edge21" class="edge">
<title>dir_78cc654a211fbf15eaa8c471d4d5c5ff&#45;&gt;dir_c5d369d8d52b23f00d4897c91e3e9a7a</title>
<g id="a_edge21"><a xlink:href="dir_000094_000060.html" target="_top">
<path fill="none" stroke="#63b8ff" d="M837.6,-77.13C881.68,-71.86 988.52,-57.93 1086.99,-34.94"/>
<polygon fill="#63b8ff" stroke="#63b8ff" points="1087.88,-38.33 1096.8,-32.62 1086.26,-31.52 1087.88,-38.33"/>
</a>
</g>
<g id="a_edge21&#45;headlabel"><a xlink:href="dir_000094_000060.html" target="_top" xlink:title="26">
<text text-anchor="middle" x="1085.03" y="-39.42" font-family="Helvetica,sans-Serif" font-size="10.00" fill="#63b8ff">26</text>
</a>
</g>
</g>
<!-- dir_78cc654a211fbf15eaa8c471d4d5c5ff&#45;&gt;dir_c63f27843881769261e9f0e02d97c751 -->
<g id="edge22" class="edge">
<title>dir_78cc654a211fbf15eaa8c471d4d5c5ff&#45;&gt;dir_c63f27843881769261e9f0e02d97c751</title>
<g id="a_edge22"><a xlink:href="dir_000094_000025.html" target="_top">
<path fill="none" stroke="#63b8ff" d="M837.72,-77.74C888.05,-73.25 1020.86,-60.04 1140.74,-34.97"/>
<polygon fill="#63b8ff" stroke="#63b8ff" points="1141.76,-38.34 1150.82,-32.83 1140.31,-31.49 1141.76,-38.34"/>
</a>
</g>
<g id="a_edge22&#45;headlabel"><a xlink:href="dir_000094_000025.html" target="_top" xlink:title="2">
<text text-anchor="middle" x="1138.84" y="-39.36" font-family="Helvetica,sans-Serif" font-size="10.00" fill="#63b8ff">2</text>
</a>
</g>
</g>
<!-- dir_78cc654a211fbf15eaa8c471d4d5c5ff&#45;&gt;dir_c8beb12667e670be2c1fb7f9efa8bac3 -->
<g id="edge23" class="edge">
<title>dir_78cc654a211fbf15eaa8c471d4d5c5ff&#45;&gt;dir_c8beb12667e670be2c1fb7f9efa8bac3</title>
<g id="a_edge23"><a xlink:href="dir_000094_000012.html" target="_top">
<path fill="none" stroke="#63b8ff" d="M837.91,-78.08C894.53,-74.02 1055.65,-61.06 1199.41,-34.85"/>
<polygon fill="#63b8ff" stroke="#63b8ff" points="1200.1,-38.28 1209.29,-33.02 1198.82,-31.4 1200.1,-38.28"/>
</a>
</g>
<g id="a_edge23&#45;headlabel"><a xlink:href="dir_000094_000012.html" target="_top" xlink:title="18">
<text text-anchor="middle" x="1197.08" y="-39.23" font-family="Helvetica,sans-Serif" font-size="10.00" fill="#63b8ff">18</text>
</a>
</g>
</g>
<!-- dir_78cc654a211fbf15eaa8c471d4d5c5ff&#45;&gt;dir_cce7e4eda75c585c784c6ea3659dc5d2 -->
<g id="edge25" class="edge">
<title>dir_78cc654a211fbf15eaa8c471d4d5c5ff&#45;&gt;dir_cce7e4eda75c585c784c6ea3659dc5d2</title>
<g id="a_edge25"><a xlink:href="dir_000094_000040.html" target="_top">
<path fill="none" stroke="#63b8ff" d="M837.75,-78.63C900.66,-75.75 1094.81,-65.03 1264.24,-35.06"/>
<polygon fill="#63b8ff" stroke="#63b8ff" points="1265.11,-38.46 1274.33,-33.24 1263.87,-31.57 1265.11,-38.46"/>
</a>
</g>
<g id="a_edge25&#45;headlabel"><a xlink:href="dir_000094_000040.html" target="_top" xlink:title="1">
<text text-anchor="middle" x="1262.07" y="-39.39" font-family="Helvetica,sans-Serif" font-size="10.00" fill="#63b8ff">1</text>
</a>
</g>
</g>
<!-- dir_78cc654a211fbf15eaa8c471d4d5c5ff&#45;&gt;dir_d213a8fe46ca211aae8dbe539bb9aa31 -->
<g id="edge26" class="edge">
<title>dir_78cc654a211fbf15eaa8c471d4d5c5ff&#45;&gt;dir_d213a8fe46ca211aae8dbe539bb9aa31</title>
<g id="a_edge26"><a xlink:href="dir_000094_000035.html" target="_top">
<path fill="none" stroke="#63b8ff" d="M837.71,-78.89C906.46,-76.6 1133.36,-67.08 1329.91,-34.91"/>
<polygon fill="#63b8ff" stroke="#63b8ff" points="1330.55,-38.35 1339.84,-33.26 1329.4,-31.45 1330.55,-38.35"/>
</a>
</g>
<g id="a_edge26&#45;headlabel"><a xlink:href="dir_000094_000035.html" target="_top" xlink:title="1">
<text text-anchor="middle" x="1327.47" y="-39.24" font-family="Helvetica,sans-Serif" font-size="10.00" fill="#63b8ff">1</text>
</a>
</g>
</g>
<!-- dir_78cc654a211fbf15eaa8c471d4d5c5ff&#45;&gt;dir_d7fd326be3a24d275f9d3ec413e71e70 -->
<g id="edge27" class="edge">
<title>dir_78cc654a211fbf15eaa8c471d4d5c5ff&#45;&gt;dir_d7fd326be3a24d275f9d3ec413e71e70</title>
<g id="a_edge27"><a xlink:href="dir_000094_000036.html" target="_top">
<path fill="none" stroke="#63b8ff" d="M837.64,-79.87C912.3,-80.82 1175.25,-80.65 1398.52,-34.43"/>
<polygon fill="#63b8ff" stroke="#63b8ff" points="1399.39,-37.83 1408.45,-32.34 1397.95,-30.98 1399.39,-37.83"/>
</a>
</g>
<g id="a_edge27&#45;headlabel"><a xlink:href="dir_000094_000036.html" target="_top" xlink:title="2">
<text text-anchor="middle" x="1396.46" y="-38.85" font-family="Helvetica,sans-Serif" font-size="10.00" fill="#63b8ff">2</text>
</a>
</g>
</g>
<!-- dir_78cc654a211fbf15eaa8c471d4d5c5ff&#45;&gt;dir_dd4f5294299cd91ca8f126727715fb74 -->
<g id="edge28" class="edge">
<title>dir_78cc654a211fbf15eaa8c471d4d5c5ff&#45;&gt;dir_dd4f5294299cd91ca8f126727715fb74</title>
<g id="a_edge28"><a xlink:href="dir_000094_000047.html" target="_top">
<path fill="none" stroke="#63b8ff" d="M837.8,-78.79C930.53,-75.48 1307.47,-60.85 1445.52,-34.68"/>
<polygon fill="#63b8ff" stroke="#63b8ff" points="1446.31,-38.1 1455.42,-32.7 1444.93,-31.23 1446.31,-38.1"/>
</a>
</g>
<g id="a_edge28&#45;headlabel"><a xlink:href="dir_000094_000047.html" target="_top" xlink:title="5">
<text text-anchor="middle" x="1443.34" y="-39.09" font-family="Helvetica,sans-Serif" font-size="10.00" fill="#63b8ff">5</text>
</a>
</g>
</g>
<!-- dir_78cc654a211fbf15eaa8c471d4d5c5ff&#45;&gt;dir_f9425c2010de9e0bfd045f1ea46112c8 -->
<g id="edge29" class="edge">
<title>dir_78cc654a211fbf15eaa8c471d4d5c5ff&#45;&gt;dir_f9425c2010de9e0bfd045f1ea46112c8</title>
<g id="a_edge29"><a xlink:href="dir_000094_000070.html" target="_top">
<path fill="none" stroke="#63b8ff" d="M837.72,-79.6C919.91,-79.7 1230.91,-77.22 1494.21,-34.98"/>
<polygon fill="#63b8ff" stroke="#63b8ff" points="1495.04,-38.39 1504.35,-33.33 1493.91,-31.48 1495.04,-38.39"/>
</a>
</g>
<g id="a_edge29&#45;headlabel"><a xlink:href="dir_000094_000070.html" target="_top" xlink:title="1">
<text text-anchor="middle" x="1491.95" y="-39.27" font-family="Helvetica,sans-Serif" font-size="10.00" fill="#63b8ff">1</text>
</a>
</g>
</g>
<!-- dir_669c8d98ab0a41d3f42c455aff8a0105 -->
<g id="node29" class="node">
<title>dir_669c8d98ab0a41d3f42c455aff8a0105</title>
<g id="a_node29"><a xlink:href="dir_669c8d98ab0a41d3f42c455aff8a0105.html" target="_top" xlink:title="compat">
<polygon fill="#edf0f7" stroke="red" stroke-dasharray="5,2" points="1622.5,-35 1569.5,-35 1569.5,-16 1622.5,-16 1622.5,-35"/>
<text text-anchor="middle" x="1596" y="-23" font-family="Helvetica,sans-Serif" font-size="10.00">compat</text>
</a>
</g>
</g>
<!-- dir_78cc654a211fbf15eaa8c471d4d5c5ff&#45;&gt;dir_669c8d98ab0a41d3f42c455aff8a0105 -->
<g id="edge11" class="edge">
<title>dir_78cc654a211fbf15eaa8c471d4d5c5ff&#45;&gt;dir_669c8d98ab0a41d3f42c455aff8a0105</title>
<g id="a_edge11"><a xlink:href="dir_000094_000013.html" target="_top">
<path fill="none" stroke="#63b8ff" d="M837.66,-79.78C924.78,-80.63 1270.69,-80.87 1558.97,-35.66"/>
<polygon fill="#63b8ff" stroke="#63b8ff" points="1559.87,-39.06 1569.2,-34.04 1558.77,-32.15 1559.87,-39.06"/>
</a>
</g>
<g id="a_edge11&#45;headlabel"><a xlink:href="dir_000094_000013.html" target="_top" xlink:title="42">
<text text-anchor="middle" x="1556.77" y="-39.93" font-family="Helvetica,sans-Serif" font-size="10.00" fill="#63b8ff">42</text>
</a>
</g>
</g>
<!-- dir_cba44140afe74f820e83d8e084616738 -->
<g id="node30" class="node">
<title>dir_cba44140afe74f820e83d8e084616738</title>
<g id="a_node30"><a xlink:href="dir_cba44140afe74f820e83d8e084616738.html" target="_top" xlink:title="include">
<polygon fill="#edf0f7" stroke="#7f7f7f" points="1693,-35 1641,-35 1641,-16 1693,-16 1693,-35"/>
<text text-anchor="middle" x="1667" y="-23" font-family="Helvetica,sans-Serif" font-size="10.00">include</text>
</a>
</g>
</g>
<!-- dir_78cc654a211fbf15eaa8c471d4d5c5ff&#45;&gt;dir_cba44140afe74f820e83d8e084616738 -->
<g id="edge24" class="edge">
<title>dir_78cc654a211fbf15eaa8c471d4d5c5ff&#45;&gt;dir_cba44140afe74f820e83d8e084616738</title>
<g id="a_edge24"><a xlink:href="dir_000094_000045.html" target="_top">
<path fill="none" stroke="#63b8ff" d="M837.61,-79.76C929.43,-80.64 1310.4,-81.24 1630.79,-34.88"/>
<polygon fill="#63b8ff" stroke="#63b8ff" points="1631.34,-38.34 1640.73,-33.43 1630.33,-31.41 1631.34,-38.34"/>
</a>
</g>
<g id="a_edge24&#45;headlabel"><a xlink:href="dir_000094_000045.html" target="_top" xlink:title="162">
<text text-anchor="middle" x="1628.2" y="-39.17" font-family="Helvetica,sans-Serif" font-size="10.00" fill="#63b8ff">162</text>
</a>
</g>
</g>
</g>
</svg>
