<?xml version="1.0" encoding="UTF-8" standalone="no"?>
<!DOCTYPE svg PUBLIC "-//W3C//DTD SVG 1.1//EN"
 "http://www.w3.org/Graphics/SVG/1.1/DTD/svg11.dtd">
<!-- Generated by graphviz version 2.43.0 (0)
 -->
<!-- Title: squid/src/ExternalACLEntry.h Pages: 1 -->
<svg width="604pt" height="93pt"
 viewBox="0.00 0.00 603.50 93.00" xmlns="http://www.w3.org/2000/svg" xmlns:xlink="http://www.w3.org/1999/xlink">
<g id="graph0" class="graph" transform="scale(1 1) rotate(0) translate(4 89)">
<title>squid/src/ExternalACLEntry.h</title>
<!-- Node1 -->
<g id="Node000001" class="node">
<title>Node1</title>
<g id="a_Node000001"><a xlink:title=" ">
<polygon fill="#999999" stroke="#666666" points="414.5,-85 259.5,-85 259.5,-66 414.5,-66 414.5,-85"/>
<text text-anchor="middle" x="337" y="-73" font-family="Helvetica,sans-Serif" font-size="10.00">squid/src/ExternalACLEntry.h</text>
</a>
</g>
</g>
<!-- Node2 -->
<g id="Node000002" class="node">
<title>Node2</title>
<g id="a_Node000002"><a xlink:href="ExternalACLEntry_8cc.html" target="_top" xlink:title=" ">
<polygon fill="white" stroke="#666666" points="160,-24.5 0,-24.5 0,-5.5 160,-5.5 160,-24.5"/>
<text text-anchor="middle" x="80" y="-12.5" font-family="Helvetica,sans-Serif" font-size="10.00">squid/src/ExternalACLEntry.cc</text>
</a>
</g>
</g>
<!-- Node1&#45;&gt;Node2 -->
<g id="edge1_Node000001_Node000002" class="edge">
<title>Node1&#45;&gt;Node2</title>
<g id="a_edge1_Node000001_Node000002"><a xlink:title=" ">
<path fill="none" stroke="#63b8ff" d="M289.78,-63.75C240.13,-52.45 163.02,-34.9 117.42,-24.52"/>
<polygon fill="#63b8ff" stroke="#63b8ff" points="289.1,-67.19 299.63,-65.99 290.66,-60.36 289.1,-67.19"/>
</a>
</g>
</g>
<!-- Node3 -->
<g id="Node000003" class="node">
<title>Node3</title>
<g id="a_Node000003"><a xlink:href="FilledChecklist_8cc.html" target="_top" xlink:title=" ">
<polygon fill="white" stroke="#666666" points="343.5,-24.5 178.5,-24.5 178.5,-5.5 343.5,-5.5 343.5,-24.5"/>
<text text-anchor="middle" x="261" y="-12.5" font-family="Helvetica,sans-Serif" font-size="10.00">squid/src/acl/FilledChecklist.cc</text>
</a>
</g>
</g>
<!-- Node1&#45;&gt;Node3 -->
<g id="edge2_Node000001_Node000003" class="edge">
<title>Node1&#45;&gt;Node3</title>
<g id="a_edge2_Node000001_Node000003"><a xlink:title=" ">
<path fill="none" stroke="#63b8ff" d="M317.56,-59.54C303.21,-48.49 284.18,-33.84 272.26,-24.67"/>
<polygon fill="#63b8ff" stroke="#63b8ff" points="315.73,-62.54 325.79,-65.87 320,-56.99 315.73,-62.54"/>
</a>
</g>
</g>
<!-- Node4 -->
<g id="Node000004" class="node">
<title>Node4</title>
<g id="a_Node000004"><a xlink:href="external__acl_8cc.html" target="_top" xlink:title=" ">
<polygon fill="white" stroke="#666666" points="466,-30 362,-30 362,0 466,0 466,-30"/>
<text text-anchor="start" x="370" y="-18" font-family="Helvetica,sans-Serif" font-size="10.00">squid/src/external</text>
<text text-anchor="middle" x="414" y="-7" font-family="Helvetica,sans-Serif" font-size="10.00">_acl.cc</text>
</a>
</g>
</g>
<!-- Node1&#45;&gt;Node4 -->
<g id="edge3_Node000001_Node000004" class="edge">
<title>Node1&#45;&gt;Node4</title>
<g id="a_edge3_Node000001_Node000004"><a xlink:title=" ">
<path fill="none" stroke="#63b8ff" d="M356.39,-59.77C368.35,-50.68 383.61,-39.09 395.42,-30.11"/>
<polygon fill="#63b8ff" stroke="#63b8ff" points="354.21,-57.03 348.36,-65.87 358.44,-62.61 354.21,-57.03"/>
</a>
</g>
</g>
<!-- Node5 -->
<g id="Node000005" class="node">
<title>Node5</title>
<g id="a_Node000005"><a xlink:href="stub__external__acl_8cc.html" target="_top" xlink:title=" ">
<polygon fill="white" stroke="#666666" points="595.5,-30 484.5,-30 484.5,0 595.5,0 595.5,-30"/>
<text text-anchor="start" x="492.5" y="-18" font-family="Helvetica,sans-Serif" font-size="10.00">squid/src/tests/stub</text>
<text text-anchor="middle" x="540" y="-7" font-family="Helvetica,sans-Serif" font-size="10.00">_external_acl.cc</text>
</a>
</g>
</g>
<!-- Node1&#45;&gt;Node5 -->
<g id="edge4_Node000001_Node000005" class="edge">
<title>Node1&#45;&gt;Node5</title>
<g id="a_edge4_Node000001_Node000005"><a xlink:title=" ">
<path fill="none" stroke="#63b8ff" d="M376.21,-63.2C409.02,-53.75 455.97,-40.22 491.2,-30.06"/>
<polygon fill="#63b8ff" stroke="#63b8ff" points="375.16,-59.86 366.52,-65.99 377.1,-66.59 375.16,-59.86"/>
</a>
</g>
</g>
</g>
</svg>
