<?xml version="1.0" encoding="UTF-8" standalone="no"?>
<!DOCTYPE svg PUBLIC "-//W3C//DTD SVG 1.1//EN"
 "http://www.w3.org/Graphics/SVG/1.1/DTD/svg11.dtd">
<!-- Generated by graphviz version 2.43.0 (0)
 -->
<!-- Title: squid/src/format/Quoting.h Pages: 1 -->
<svg width="1093pt" height="93pt"
 viewBox="0.00 0.00 1093.00 93.00" xmlns="http://www.w3.org/2000/svg" xmlns:xlink="http://www.w3.org/1999/xlink">
<g id="graph0" class="graph" transform="scale(1 1) rotate(0) translate(4 89)">
<title>squid/src/format/Quoting.h</title>
<!-- Node1 -->
<g id="Node000001" class="node">
<title>Node1</title>
<g id="a_Node000001"><a xlink:title=" ">
<polygon fill="#999999" stroke="#666666" points="603.5,-85 457.5,-85 457.5,-66 603.5,-66 603.5,-85"/>
<text text-anchor="middle" x="530.5" y="-73" font-family="Helvetica,sans-Serif" font-size="10.00">squid/src/format/Quoting.h</text>
</a>
</g>
</g>
<!-- Node2 -->
<g id="Node000002" class="node">
<title>Node2</title>
<g id="a_Node000002"><a xlink:href="Format_8cc.html" target="_top" xlink:title=" ">
<polygon fill="white" stroke="#666666" points="147,-24.5 0,-24.5 0,-5.5 147,-5.5 147,-24.5"/>
<text text-anchor="middle" x="73.5" y="-12.5" font-family="Helvetica,sans-Serif" font-size="10.00">squid/src/format/Format.cc</text>
</a>
</g>
</g>
<!-- Node1&#45;&gt;Node2 -->
<g id="edge1_Node000001_Node000002" class="edge">
<title>Node1&#45;&gt;Node2</title>
<g id="a_edge1_Node000001_Node000002"><a xlink:title=" ">
<path fill="none" stroke="#63b8ff" d="M447.41,-65.87C371.31,-57.67 255.63,-44.48 155.5,-30 144.35,-28.39 132.38,-26.46 121.13,-24.55"/>
<polygon fill="#63b8ff" stroke="#63b8ff" points="447.1,-69.36 457.41,-66.94 447.84,-62.4 447.1,-69.36"/>
</a>
</g>
</g>
<!-- Node3 -->
<g id="Node000003" class="node">
<title>Node3</title>
<g id="a_Node000003"><a xlink:href="format_2Quoting_8cc.html" target="_top" xlink:title=" ">
<polygon fill="white" stroke="#666666" points="316,-24.5 165,-24.5 165,-5.5 316,-5.5 316,-24.5"/>
<text text-anchor="middle" x="240.5" y="-12.5" font-family="Helvetica,sans-Serif" font-size="10.00">squid/src/format/Quoting.cc</text>
</a>
</g>
</g>
<!-- Node1&#45;&gt;Node3 -->
<g id="edge2_Node000001_Node000003" class="edge">
<title>Node1&#45;&gt;Node3</title>
<g id="a_edge2_Node000001_Node000003"><a xlink:title=" ">
<path fill="none" stroke="#63b8ff" d="M478.26,-63.96C422.28,-52.67 334.5,-34.96 282.72,-24.52"/>
<polygon fill="#63b8ff" stroke="#63b8ff" points="477.84,-67.45 488.33,-65.99 479.22,-60.59 477.84,-67.45"/>
</a>
</g>
</g>
<!-- Node4 -->
<g id="Node000004" class="node">
<title>Node4</title>
<g id="a_Node000004"><a xlink:href="helper_8cc.html" target="_top" xlink:title=" ">
<polygon fill="white" stroke="#666666" points="441,-24.5 334,-24.5 334,-5.5 441,-5.5 441,-24.5"/>
<text text-anchor="middle" x="387.5" y="-12.5" font-family="Helvetica,sans-Serif" font-size="10.00">squid/src/helper.cc</text>
</a>
</g>
</g>
<!-- Node1&#45;&gt;Node4 -->
<g id="edge3_Node000001_Node000004" class="edge">
<title>Node1&#45;&gt;Node4</title>
<g id="a_edge3_Node000001_Node000004"><a xlink:title=" ">
<path fill="none" stroke="#63b8ff" d="M500.14,-62.08C472.52,-50.78 432.48,-34.4 408.32,-24.52"/>
<polygon fill="#63b8ff" stroke="#63b8ff" points="499.13,-65.45 509.71,-65.99 501.78,-58.97 499.13,-65.45"/>
</a>
</g>
</g>
<!-- Node5 -->
<g id="Node000005" class="node">
<title>Node5</title>
<g id="a_Node000005"><a xlink:href="FormatHttpdCombined_8cc.html" target="_top" xlink:title=" ">
<polygon fill="white" stroke="#666666" points="602,-30 459,-30 459,0 602,0 602,-30"/>
<text text-anchor="start" x="467" y="-18" font-family="Helvetica,sans-Serif" font-size="10.00">squid/src/log/FormatHttpd</text>
<text text-anchor="middle" x="530.5" y="-7" font-family="Helvetica,sans-Serif" font-size="10.00">Combined.cc</text>
</a>
</g>
</g>
<!-- Node1&#45;&gt;Node5 -->
<g id="edge4_Node000001_Node000005" class="edge">
<title>Node1&#45;&gt;Node5</title>
<g id="a_edge4_Node000001_Node000005"><a xlink:title=" ">
<path fill="none" stroke="#63b8ff" d="M530.5,-55.65C530.5,-47.36 530.5,-37.78 530.5,-30.11"/>
<polygon fill="#63b8ff" stroke="#63b8ff" points="527,-55.87 530.5,-65.87 534,-55.87 527,-55.87"/>
</a>
</g>
</g>
<!-- Node6 -->
<g id="Node000006" class="node">
<title>Node6</title>
<g id="a_Node000006"><a xlink:href="FormatHttpdCommon_8cc.html" target="_top" xlink:title=" ">
<polygon fill="white" stroke="#666666" points="763,-30 620,-30 620,0 763,0 763,-30"/>
<text text-anchor="start" x="628" y="-18" font-family="Helvetica,sans-Serif" font-size="10.00">squid/src/log/FormatHttpd</text>
<text text-anchor="middle" x="691.5" y="-7" font-family="Helvetica,sans-Serif" font-size="10.00">Common.cc</text>
</a>
</g>
</g>
<!-- Node1&#45;&gt;Node6 -->
<g id="edge5_Node000001_Node000006" class="edge">
<title>Node1&#45;&gt;Node6</title>
<g id="a_edge5_Node000001_Node000006"><a xlink:title=" ">
<path fill="none" stroke="#63b8ff" d="M563.64,-62.46C589.54,-53.05 625.58,-39.95 652.79,-30.06"/>
<polygon fill="#63b8ff" stroke="#63b8ff" points="562.11,-59.29 553.91,-65.99 564.5,-65.87 562.11,-59.29"/>
</a>
</g>
</g>
<!-- Node7 -->
<g id="Node000007" class="node">
<title>Node7</title>
<g id="a_Node000007"><a xlink:href="FormatSquidIcap_8cc.html" target="_top" xlink:title=" ">
<polygon fill="white" stroke="#666666" points="924,-30 781,-30 781,0 924,0 924,-30"/>
<text text-anchor="start" x="789" y="-18" font-family="Helvetica,sans-Serif" font-size="10.00">squid/src/log/FormatSquid</text>
<text text-anchor="middle" x="852.5" y="-7" font-family="Helvetica,sans-Serif" font-size="10.00">Icap.cc</text>
</a>
</g>
</g>
<!-- Node1&#45;&gt;Node7 -->
<g id="edge6_Node000001_Node000007" class="edge">
<title>Node1&#45;&gt;Node7</title>
<g id="a_edge6_Node000001_Node000007"><a xlink:title=" ">
<path fill="none" stroke="#63b8ff" d="M587.4,-64.16C641.35,-54.36 722.61,-39.6 780.93,-29"/>
<polygon fill="#63b8ff" stroke="#63b8ff" points="586.53,-60.76 577.32,-65.99 587.79,-67.65 586.53,-60.76"/>
</a>
</g>
</g>
<!-- Node8 -->
<g id="Node000008" class="node">
<title>Node8</title>
<g id="a_Node000008"><a xlink:href="FormatSquidNative_8cc.html" target="_top" xlink:title=" ">
<polygon fill="white" stroke="#666666" points="1085,-30 942,-30 942,0 1085,0 1085,-30"/>
<text text-anchor="start" x="950" y="-18" font-family="Helvetica,sans-Serif" font-size="10.00">squid/src/log/FormatSquid</text>
<text text-anchor="middle" x="1013.5" y="-7" font-family="Helvetica,sans-Serif" font-size="10.00">Native.cc</text>
</a>
</g>
</g>
<!-- Node1&#45;&gt;Node8 -->
<g id="edge7_Node000001_Node000008" class="edge">
<title>Node1&#45;&gt;Node8</title>
<g id="a_edge7_Node000001_Node000008"><a xlink:title=" ">
<path fill="none" stroke="#63b8ff" d="M614.06,-66.83C695.7,-58.97 823.4,-45.7 933.5,-30 936.15,-29.62 938.85,-29.22 941.58,-28.81"/>
<polygon fill="#63b8ff" stroke="#63b8ff" points="613.47,-63.37 603.85,-67.81 614.13,-70.34 613.47,-63.37"/>
</a>
</g>
</g>
</g>
</svg>
