<?xml version="1.0" encoding="UTF-8" standalone="no"?>
<!DOCTYPE svg PUBLIC "-//W3C//DTD SVG 1.1//EN"
 "http://www.w3.org/Graphics/SVG/1.1/DTD/svg11.dtd">
<!-- Generated by graphviz version 2.43.0 (0)
 -->
<!-- Title: squid/src/icmp/IcmpSquid.cc Pages: 1 -->
<svg width="2803pt" height="247pt"
 viewBox="0.00 0.00 2803.00 247.00" xmlns="http://www.w3.org/2000/svg" xmlns:xlink="http://www.w3.org/1999/xlink">
<g id="graph0" class="graph" transform="scale(1 1) rotate(0) translate(4 243)">
<title>squid/src/icmp/IcmpSquid.cc</title>
<!-- Node1 -->
<g id="Node000001" class="node">
<title>Node1</title>
<g id="a_Node000001"><a xlink:title=" ">
<polygon fill="#999999" stroke="#666666" points="1827.5,-239 1672.5,-239 1672.5,-220 1827.5,-220 1827.5,-239"/>
<text text-anchor="middle" x="1750" y="-227" font-family="Helvetica,sans-Serif" font-size="10.00">squid/src/icmp/IcmpSquid.cc</text>
</a>
</g>
</g>
<!-- Node2 -->
<g id="Node000002" class="node">
<title>Node2</title>
<g id="a_Node000002"><a xlink:href="squid_8h.html" target="_top" xlink:title=" ">
<polygon fill="white" stroke="#666666" points="253,-184 201,-184 201,-165 253,-165 253,-184"/>
<text text-anchor="middle" x="227" y="-172" font-family="Helvetica,sans-Serif" font-size="10.00">squid.h</text>
</a>
</g>
</g>
<!-- Node1&#45;&gt;Node2 -->
<g id="edge1_Node000001_Node000002" class="edge">
<title>Node1&#45;&gt;Node2</title>
<g id="a_edge1_Node000001_Node000002"><a xlink:title=" ">
<path fill="none" stroke="#63b8ff" d="M1672.38,-225.8C1395.01,-216.15 458.96,-183.57 263.11,-176.76"/>
<polygon fill="#63b8ff" stroke="#63b8ff" points="263.18,-173.26 253.06,-176.41 262.94,-180.25 263.18,-173.26"/>
</a>
</g>
</g>
<!-- Node45 -->
<g id="Node000045" class="node">
<title>Node45</title>
<g id="a_Node000045"><a xlink:href="comm_8h.html" target="_top" xlink:title=" ">
<polygon fill="white" stroke="#666666" points="596,-184 540,-184 540,-165 596,-165 596,-184"/>
<text text-anchor="middle" x="568" y="-172" font-family="Helvetica,sans-Serif" font-size="10.00">comm.h</text>
</a>
</g>
</g>
<!-- Node1&#45;&gt;Node45 -->
<g id="edge9_Node000001_Node000045" class="edge">
<title>Node1&#45;&gt;Node45</title>
<g id="a_edge9_Node000001_Node000045"><a xlink:title=" ">
<path fill="none" stroke="#63b8ff" d="M1672.45,-225.02C1443.16,-214.74 774.06,-184.74 606.43,-177.22"/>
<polygon fill="#63b8ff" stroke="#63b8ff" points="606.49,-173.72 596.34,-176.77 606.17,-180.72 606.49,-173.72"/>
</a>
</g>
</g>
<!-- Node145 -->
<g id="Node000145" class="node">
<title>Node145</title>
<g id="a_Node000145"><a xlink:href="Loops_8h.html" target="_top" xlink:title=" ">
<polygon fill="white" stroke="#666666" points="870,-184 782,-184 782,-165 870,-165 870,-184"/>
<text text-anchor="middle" x="826" y="-172" font-family="Helvetica,sans-Serif" font-size="10.00">comm/Loops.h</text>
</a>
</g>
</g>
<!-- Node1&#45;&gt;Node145 -->
<g id="edge19_Node000001_Node000145" class="edge">
<title>Node1&#45;&gt;Node145</title>
<g id="a_edge19_Node000001_Node000145"><a xlink:title=" ">
<path fill="none" stroke="#63b8ff" d="M1672.33,-225.63C1524.02,-219.87 1190.29,-205.59 910,-184 900.45,-183.26 890.31,-182.35 880.5,-181.4"/>
<polygon fill="#63b8ff" stroke="#63b8ff" points="880.73,-177.9 870.43,-180.4 880.04,-184.87 880.73,-177.9"/>
</a>
</g>
</g>
<!-- Node93 -->
<g id="Node000093" class="node">
<title>Node93</title>
<g id="a_Node000093"><a xlink:href="defines_8h.html" target="_top" xlink:title=" ">
<polygon fill="white" stroke="#666666" points="931.5,-129 870.5,-129 870.5,-110 931.5,-110 931.5,-129"/>
<text text-anchor="middle" x="901" y="-117" font-family="Helvetica,sans-Serif" font-size="10.00">defines.h</text>
</a>
</g>
</g>
<!-- Node1&#45;&gt;Node93 -->
<g id="edge24_Node000001_Node000093" class="edge">
<title>Node1&#45;&gt;Node93</title>
<g id="a_edge24_Node000001_Node000093"><a xlink:title=" ">
<path fill="none" stroke="#63b8ff" d="M1672.34,-221.76C1529.48,-208.76 1215.4,-177.3 941.66,-129"/>
<polygon fill="#63b8ff" stroke="#63b8ff" points="941.99,-125.51 931.53,-127.21 940.77,-132.4 941.99,-125.51"/>
</a>
</g>
</g>
<!-- Node146 -->
<g id="Node000146" class="node">
<title>Node146</title>
<g id="a_Node000146"><a xlink:href="socket_8h.html" target="_top" xlink:title=" ">
<polygon fill="white" stroke="#666666" points="2031.5,-184 1934.5,-184 1934.5,-165 2031.5,-165 2031.5,-184"/>
<text text-anchor="middle" x="1983" y="-172" font-family="Helvetica,sans-Serif" font-size="10.00">compat/socket.h</text>
</a>
</g>
</g>
<!-- Node1&#45;&gt;Node146 -->
<g id="edge23_Node000001_Node000146" class="edge">
<title>Node1&#45;&gt;Node146</title>
<g id="a_edge23_Node000001_Node000146"><a xlink:title=" ">
<path fill="none" stroke="#63b8ff" d="M1787.44,-219.98C1827.65,-210.84 1891.68,-196.27 1935.44,-186.32"/>
<polygon fill="#63b8ff" stroke="#63b8ff" points="1936.3,-189.71 1945.27,-184.08 1934.74,-182.89 1936.3,-189.71"/>
</a>
</g>
</g>
<!-- Node147 -->
<g id="Node000147" class="node">
<title>Node147</title>
<g id="a_Node000147"><a xlink:href="fd_8h.html" target="_top" xlink:title=" ">
<polygon fill="white" stroke="#666666" points="2084.5,-184 2049.5,-184 2049.5,-165 2084.5,-165 2084.5,-184"/>
<text text-anchor="middle" x="2067" y="-172" font-family="Helvetica,sans-Serif" font-size="10.00">fd.h</text>
</a>
</g>
</g>
<!-- Node1&#45;&gt;Node147 -->
<g id="edge25_Node000001_Node000147" class="edge">
<title>Node1&#45;&gt;Node147</title>
<g id="a_edge25_Node000001_Node000147"><a xlink:title=" ">
<path fill="none" stroke="#63b8ff" d="M1827.56,-220.16C1884.15,-213.26 1962.77,-202 2039.64,-184"/>
<polygon fill="#63b8ff" stroke="#63b8ff" points="2040.57,-187.38 2049.49,-181.66 2038.95,-180.57 2040.57,-187.38"/>
</a>
</g>
</g>
<!-- Node148 -->
<g id="Node000148" class="node">
<title>Node148</title>
<g id="a_Node000148"><a xlink:href="IcmpConfig_8h.html" target="_top" xlink:title=" ">
<polygon fill="white" stroke="#666666" points="1916.5,-184 1809.5,-184 1809.5,-165 1916.5,-165 1916.5,-184"/>
<text text-anchor="middle" x="1863" y="-172" font-family="Helvetica,sans-Serif" font-size="10.00">icmp/IcmpConfig.h</text>
</a>
</g>
</g>
<!-- Node1&#45;&gt;Node148 -->
<g id="edge26_Node000001_Node000148" class="edge">
<title>Node1&#45;&gt;Node148</title>
<g id="a_edge26_Node000001_Node000148"><a xlink:title=" ">
<path fill="none" stroke="#63b8ff" d="M1768.16,-219.98C1786.25,-211.5 1814.28,-198.35 1835.19,-188.54"/>
<polygon fill="#63b8ff" stroke="#63b8ff" points="1836.95,-191.59 1844.51,-184.17 1833.97,-185.25 1836.95,-191.59"/>
</a>
</g>
</g>
<!-- Node150 -->
<g id="Node000150" class="node">
<title>Node150</title>
<g id="a_Node000150"><a xlink:href="IcmpSquid_8h.html" target="_top" xlink:title=" ">
<polygon fill="white" stroke="#666666" points="1435,-184 1331,-184 1331,-165 1435,-165 1435,-184"/>
<text text-anchor="middle" x="1383" y="-172" font-family="Helvetica,sans-Serif" font-size="10.00">icmp/IcmpSquid.h</text>
</a>
</g>
</g>
<!-- Node1&#45;&gt;Node150 -->
<g id="edge29_Node000001_Node000150" class="edge">
<title>Node1&#45;&gt;Node150</title>
<g id="a_edge29_Node000001_Node000150"><a xlink:title=" ">
<path fill="none" stroke="#63b8ff" d="M1691.04,-219.98C1623.77,-210.27 1514.24,-194.45 1445.53,-184.53"/>
<polygon fill="#63b8ff" stroke="#63b8ff" points="1445.68,-181.02 1435.28,-183.05 1444.68,-187.94 1445.68,-181.02"/>
</a>
</g>
</g>
<!-- Node152 -->
<g id="Node000152" class="node">
<title>Node152</title>
<g id="a_Node000152"><a xlink:href="net__db_8h.html" target="_top" xlink:title=" ">
<polygon fill="white" stroke="#666666" points="852,-129 766,-129 766,-110 852,-110 852,-129"/>
<text text-anchor="middle" x="809" y="-117" font-family="Helvetica,sans-Serif" font-size="10.00">icmp/net_db.h</text>
</a>
</g>
</g>
<!-- Node1&#45;&gt;Node152 -->
<g id="edge33_Node000001_Node000152" class="edge">
<title>Node1&#45;&gt;Node152</title>
<g id="a_edge33_Node000001_Node000152"><a xlink:title=" ">
<path fill="none" stroke="#63b8ff" d="M1672.47,-224.68C1562.75,-218.76 1356.03,-205.74 1181,-184 1066.51,-169.78 933.52,-145.08 861.64,-131.04"/>
<polygon fill="#63b8ff" stroke="#63b8ff" points="861.98,-127.54 851.49,-129.05 860.63,-134.41 861.98,-127.54"/>
</a>
</g>
</g>
<!-- Node153 -->
<g id="Node000153" class="node">
<title>Node153</title>
<g id="a_Node000153"><a xlink:href="ip_2tools_8h.html" target="_top" xlink:title=" ">
<polygon fill="white" stroke="#666666" points="2165,-184 2103,-184 2103,-165 2165,-165 2165,-184"/>
<text text-anchor="middle" x="2134" y="-172" font-family="Helvetica,sans-Serif" font-size="10.00">ip/tools.h</text>
</a>
</g>
</g>
<!-- Node1&#45;&gt;Node153 -->
<g id="edge39_Node000001_Node000153" class="edge">
<title>Node1&#45;&gt;Node153</title>
<g id="a_edge39_Node000001_Node000153"><a xlink:title=" ">
<path fill="none" stroke="#63b8ff" d="M1827.8,-220.25C1895.38,-212.67 1996.07,-200.37 2092.67,-184.11"/>
<polygon fill="#63b8ff" stroke="#63b8ff" points="2093.33,-187.55 2102.6,-182.42 2092.16,-180.65 2093.33,-187.55"/>
</a>
</g>
</g>
<!-- Node154 -->
<g id="Node000154" class="node">
<title>Node154</title>
<g id="a_Node000154"><a xlink:href="SquidConfig_8h.html" target="_top" xlink:title=" ">
<polygon fill="white" stroke="#666666" points="1791.5,-184 1708.5,-184 1708.5,-165 1791.5,-165 1791.5,-184"/>
<text text-anchor="middle" x="1750" y="-172" font-family="Helvetica,sans-Serif" font-size="10.00">SquidConfig.h</text>
</a>
</g>
</g>
<!-- Node1&#45;&gt;Node154 -->
<g id="edge40_Node000001_Node000154" class="edge">
<title>Node1&#45;&gt;Node154</title>
<g id="a_edge40_Node000001_Node000154"><a xlink:title=" ">
<path fill="none" stroke="#63b8ff" d="M1750,-219.75C1750,-212.8 1750,-202.85 1750,-194.13"/>
<polygon fill="#63b8ff" stroke="#63b8ff" points="1753.5,-194.09 1750,-184.09 1746.5,-194.09 1753.5,-194.09"/>
</a>
</g>
</g>
<!-- Node185 -->
<g id="Node000185" class="node">
<title>Node185</title>
<g id="a_Node000185"><a xlink:href="SquidIpc_8h.html" target="_top" xlink:title=" ">
<polygon fill="white" stroke="#666666" points="2250.5,-184 2183.5,-184 2183.5,-165 2250.5,-165 2250.5,-184"/>
<text text-anchor="middle" x="2217" y="-172" font-family="Helvetica,sans-Serif" font-size="10.00">SquidIpc.h</text>
</a>
</g>
</g>
<!-- Node1&#45;&gt;Node185 -->
<g id="edge70_Node000001_Node000185" class="edge">
<title>Node1&#45;&gt;Node185</title>
<g id="a_edge70_Node000001_Node000185"><a xlink:title=" ">
<path fill="none" stroke="#63b8ff" d="M1827.64,-222.48C1910.7,-215.55 2046.5,-202.84 2173.35,-183.96"/>
<polygon fill="#63b8ff" stroke="#63b8ff" points="2173.88,-187.42 2183.25,-182.47 2172.84,-180.5 2173.88,-187.42"/>
</a>
</g>
</g>
<!-- Node186 -->
<g id="Node000186" class="node">
<title>Node186</title>
<g id="a_Node000186"><a xlink:title=" ">
<polygon fill="#e0e0e0" stroke="#999999" points="2315.5,-184 2268.5,-184 2268.5,-165 2315.5,-165 2315.5,-184"/>
<text text-anchor="middle" x="2292" y="-172" font-family="Helvetica,sans-Serif" font-size="10.00">cerrno</text>
</a>
</g>
</g>
<!-- Node1&#45;&gt;Node186 -->
<g id="edge71_Node000001_Node000186" class="edge">
<title>Node1&#45;&gt;Node186</title>
<g id="a_edge71_Node000001_Node000186"><a xlink:title=" ">
<path fill="none" stroke="#63b8ff" d="M1827.87,-225.88C1926.3,-221.64 2100.98,-211 2258.47,-183.99"/>
<polygon fill="#63b8ff" stroke="#63b8ff" points="2259.08,-187.44 2268.34,-182.27 2257.88,-180.54 2259.08,-187.44"/>
</a>
</g>
</g>
<!-- Node3 -->
<g id="Node000003" class="node">
<title>Node3</title>
<g id="a_Node000003"><a xlink:href="autoconf_8h.html" target="_top" xlink:title=" ">
<polygon fill="white" stroke="#666666" points="128,-129 60,-129 60,-110 128,-110 128,-129"/>
<text text-anchor="middle" x="94" y="-117" font-family="Helvetica,sans-Serif" font-size="10.00">autoconf.h</text>
</a>
</g>
</g>
<!-- Node2&#45;&gt;Node3 -->
<g id="edge2_Node000002_Node000003" class="edge">
<title>Node2&#45;&gt;Node3</title>
<g id="a_edge2_Node000002_Node000003"><a xlink:title=" ">
<path fill="none" stroke="#63b8ff" d="M205.63,-164.98C183.85,-156.3 149.84,-142.75 125.08,-132.88"/>
<polygon fill="#63b8ff" stroke="#63b8ff" points="126.34,-129.62 115.76,-129.17 123.75,-136.12 126.34,-129.62"/>
</a>
</g>
</g>
<!-- Node4 -->
<g id="Node000004" class="node">
<title>Node4</title>
<g id="a_Node000004"><a xlink:href="version_8h.html" target="_top" xlink:title=" ">
<polygon fill="white" stroke="#666666" points="208,-129 146,-129 146,-110 208,-110 208,-129"/>
<text text-anchor="middle" x="177" y="-117" font-family="Helvetica,sans-Serif" font-size="10.00">version.h</text>
</a>
</g>
</g>
<!-- Node2&#45;&gt;Node4 -->
<g id="edge3_Node000002_Node000004" class="edge">
<title>Node2&#45;&gt;Node4</title>
<g id="a_edge3_Node000002_Node000004"><a xlink:title=" ">
<path fill="none" stroke="#63b8ff" d="M218.74,-164.75C211.54,-157.11 200.89,-145.82 192.15,-136.56"/>
<polygon fill="#63b8ff" stroke="#63b8ff" points="194.51,-133.96 185.1,-129.09 189.42,-138.76 194.51,-133.96"/>
</a>
</g>
</g>
<!-- Node5 -->
<g id="Node000005" class="node">
<title>Node5</title>
<g id="a_Node000005"><a xlink:href="compat_8h.html" target="_top" xlink:title=" ">
<polygon fill="#fff0f0" stroke="red" points="328,-129 226,-129 226,-110 328,-110 328,-129"/>
<text text-anchor="middle" x="277" y="-117" font-family="Helvetica,sans-Serif" font-size="10.00">compat/compat.h</text>
</a>
</g>
</g>
<!-- Node2&#45;&gt;Node5 -->
<g id="edge4_Node000002_Node000005" class="edge">
<title>Node2&#45;&gt;Node5</title>
<g id="a_edge4_Node000002_Node000005"><a xlink:title=" ">
<path fill="none" stroke="#63b8ff" d="M235.26,-164.75C242.46,-157.11 253.11,-145.82 261.85,-136.56"/>
<polygon fill="#63b8ff" stroke="#63b8ff" points="264.58,-138.76 268.9,-129.09 259.49,-133.96 264.58,-138.76"/>
</a>
</g>
</g>
<!-- Node6 -->
<g id="Node000006" class="node">
<title>Node6</title>
<g id="a_Node000006"><a xlink:href="osdetect_8h.html" target="_top" xlink:title=" ">
<polygon fill="white" stroke="#666666" points="330.5,-74 223.5,-74 223.5,-55 330.5,-55 330.5,-74"/>
<text text-anchor="middle" x="277" y="-62" font-family="Helvetica,sans-Serif" font-size="10.00">compat/osdetect.h</text>
</a>
</g>
</g>
<!-- Node5&#45;&gt;Node6 -->
<g id="edge5_Node000005_Node000006" class="edge">
<title>Node5&#45;&gt;Node6</title>
<g id="a_edge5_Node000005_Node000006"><a xlink:title=" ">
<path fill="none" stroke="#63b8ff" d="M277,-109.75C277,-102.8 277,-92.85 277,-84.13"/>
<polygon fill="#63b8ff" stroke="#63b8ff" points="280.5,-84.09 277,-74.09 273.5,-84.09 280.5,-84.09"/>
</a>
</g>
</g>
<!-- Node7 -->
<g id="Node000007" class="node">
<title>Node7</title>
<g id="a_Node000007"><a xlink:href="fdsetsize_8h.html" target="_top" xlink:title=" ">
<polygon fill="white" stroke="#666666" points="459,-74 349,-74 349,-55 459,-55 459,-74"/>
<text text-anchor="middle" x="404" y="-62" font-family="Helvetica,sans-Serif" font-size="10.00">compat/fdsetsize.h</text>
</a>
</g>
</g>
<!-- Node5&#45;&gt;Node7 -->
<g id="edge6_Node000005_Node000007" class="edge">
<title>Node5&#45;&gt;Node7</title>
<g id="a_edge6_Node000005_Node000007"><a xlink:title=" ">
<path fill="none" stroke="#63b8ff" d="M297.4,-109.98C318.02,-101.38 350.11,-87.99 373.69,-78.15"/>
<polygon fill="#63b8ff" stroke="#63b8ff" points="375.34,-81.25 383.22,-74.17 372.65,-74.79 375.34,-81.25"/>
</a>
</g>
</g>
<!-- Node8 -->
<g id="Node000008" class="node">
<title>Node8</title>
<g id="a_Node000008"><a xlink:href="types_8h.html" target="_top" xlink:title=" ">
<polygon fill="#fff0f0" stroke="red" points="92,-74 0,-74 0,-55 92,-55 92,-74"/>
<text text-anchor="middle" x="46" y="-62" font-family="Helvetica,sans-Serif" font-size="10.00">compat/types.h</text>
</a>
</g>
</g>
<!-- Node5&#45;&gt;Node8 -->
<g id="edge7_Node000005_Node000008" class="edge">
<title>Node5&#45;&gt;Node8</title>
<g id="a_edge7_Node000005_Node000008"><a xlink:title=" ">
<path fill="none" stroke="#63b8ff" d="M239.89,-109.98C200.01,-100.84 136.54,-86.27 93.16,-76.32"/>
<polygon fill="#63b8ff" stroke="#63b8ff" points="93.93,-72.91 83.41,-74.08 92.37,-79.73 93.93,-72.91"/>
</a>
</g>
</g>
<!-- Node10 -->
<g id="Node000010" class="node">
<title>Node10</title>
<g id="a_Node000010"><a xlink:href="aix_8h.html" target="_top" xlink:title=" ">
<polygon fill="white" stroke="#666666" points="205.5,-74 110.5,-74 110.5,-55 205.5,-55 205.5,-74"/>
<text text-anchor="middle" x="158" y="-62" font-family="Helvetica,sans-Serif" font-size="10.00">compat/os/aix.h</text>
</a>
</g>
</g>
<!-- Node5&#45;&gt;Node10 -->
<g id="edge8_Node000005_Node000010" class="edge">
<title>Node5&#45;&gt;Node10</title>
<g id="a_edge8_Node000005_Node000010"><a xlink:title=" ">
<path fill="none" stroke="#63b8ff" d="M257.88,-109.98C238.65,-101.42 208.77,-88.11 186.69,-78.28"/>
<polygon fill="#63b8ff" stroke="#63b8ff" points="188.03,-75.04 177.47,-74.17 185.18,-81.44 188.03,-75.04"/>
</a>
</g>
</g>
<!-- Node46 -->
<g id="Node000046" class="node">
<title>Node46</title>
<g id="a_Node000046"><a xlink:href="IoCallback_8h.html" target="_top" xlink:title=" ">
<polygon fill="#fff0f0" stroke="red" points="564,-129 454,-129 454,-110 564,-110 564,-129"/>
<text text-anchor="middle" x="509" y="-117" font-family="Helvetica,sans-Serif" font-size="10.00">comm/IoCallback.h</text>
</a>
</g>
</g>
<!-- Node45&#45;&gt;Node46 -->
<g id="edge10_Node000045_Node000046" class="edge">
<title>Node45&#45;&gt;Node46</title>
<g id="a_edge10_Node000045_Node000046"><a xlink:title=" ">
<path fill="none" stroke="#63b8ff" d="M558.52,-164.98C549.8,-157.15 536.66,-145.34 526.1,-135.86"/>
<polygon fill="#63b8ff" stroke="#63b8ff" points="528.43,-133.25 518.65,-129.17 523.75,-138.46 528.43,-133.25"/>
</a>
</g>
</g>
<!-- Node70 -->
<g id="Node000070" class="node">
<title>Node70</title>
<g id="a_Node000070"><a xlink:href="CommCalls_8h.html" target="_top" xlink:title=" ">
<polygon fill="#fff0f0" stroke="red" points="436,-129 354,-129 354,-110 436,-110 436,-129"/>
<text text-anchor="middle" x="395" y="-117" font-family="Helvetica,sans-Serif" font-size="10.00">CommCalls.h</text>
</a>
</g>
</g>
<!-- Node45&#45;&gt;Node70 -->
<g id="edge15_Node000045_Node000070" class="edge">
<title>Node45&#45;&gt;Node70</title>
<g id="a_edge15_Node000045_Node000070"><a xlink:title=" ">
<path fill="none" stroke="#63b8ff" d="M540.2,-164.98C511.03,-156.05 465,-141.94 432.6,-132.02"/>
<polygon fill="#63b8ff" stroke="#63b8ff" points="433.6,-128.66 423.01,-129.08 431.55,-135.36 433.6,-128.66"/>
</a>
</g>
</g>
<!-- Node142 -->
<g id="Node000142" class="node">
<title>Node142</title>
<g id="a_Node000142"><a xlink:href="StoreIOBuffer_8h.html" target="_top" xlink:title=" ">
<polygon fill="#fff0f0" stroke="red" points="672,-129 582,-129 582,-110 672,-110 672,-129"/>
<text text-anchor="middle" x="627" y="-117" font-family="Helvetica,sans-Serif" font-size="10.00">StoreIOBuffer.h</text>
</a>
</g>
</g>
<!-- Node45&#45;&gt;Node142 -->
<g id="edge18_Node000045_Node000142" class="edge">
<title>Node45&#45;&gt;Node142</title>
<g id="a_edge18_Node000045_Node000142"><a xlink:title=" ">
<path fill="none" stroke="#63b8ff" d="M577.48,-164.98C586.2,-157.15 599.34,-145.34 609.9,-135.86"/>
<polygon fill="#63b8ff" stroke="#63b8ff" points="612.25,-138.46 617.35,-129.17 607.57,-133.25 612.25,-138.46"/>
</a>
</g>
</g>
<!-- Node63 -->
<g id="Node000063" class="node">
<title>Node63</title>
<g id="a_Node000063"><a xlink:href="Flag_8h.html" target="_top" xlink:title=" ">
<polygon fill="white" stroke="#666666" points="557,-74 477,-74 477,-55 557,-55 557,-74"/>
<text text-anchor="middle" x="517" y="-62" font-family="Helvetica,sans-Serif" font-size="10.00">comm/Flag.h</text>
</a>
</g>
</g>
<!-- Node46&#45;&gt;Node63 -->
<g id="edge11_Node000046_Node000063" class="edge">
<title>Node46&#45;&gt;Node63</title>
<g id="a_edge11_Node000046_Node000063"><a xlink:title=" ">
<path fill="none" stroke="#63b8ff" d="M510.32,-109.75C511.37,-102.8 512.87,-92.85 514.19,-84.13"/>
<polygon fill="#63b8ff" stroke="#63b8ff" points="517.67,-84.5 515.7,-74.09 510.75,-83.45 517.67,-84.5"/>
</a>
</g>
</g>
<!-- Node64 -->
<g id="Node000064" class="node">
<title>Node64</title>
<g id="a_Node000064"><a xlink:href="comm_2forward_8h.html" target="_top" xlink:title=" ">
<polygon fill="#fff0f0" stroke="red" points="708.5,-74 611.5,-74 611.5,-55 708.5,-55 708.5,-74"/>
<text text-anchor="middle" x="660" y="-62" font-family="Helvetica,sans-Serif" font-size="10.00">comm/forward.h</text>
</a>
</g>
</g>
<!-- Node46&#45;&gt;Node64 -->
<g id="edge12_Node000046_Node000064" class="edge">
<title>Node46&#45;&gt;Node64</title>
<g id="a_edge12_Node000046_Node000064"><a xlink:title=" ">
<path fill="none" stroke="#63b8ff" d="M533.26,-109.98C558.32,-101.19 597.63,-87.39 625.83,-77.49"/>
<polygon fill="#63b8ff" stroke="#63b8ff" points="627.02,-80.78 635.3,-74.17 624.7,-74.18 627.02,-80.78"/>
</a>
</g>
</g>
<!-- Node66 -->
<g id="Node000066" class="node">
<title>Node66</title>
<g id="a_Node000066"><a xlink:title=" ">
<polygon fill="#e0e0e0" stroke="#999999" points="819,-74 727,-74 727,-55 819,-55 819,-74"/>
<text text-anchor="middle" x="773" y="-62" font-family="Helvetica,sans-Serif" font-size="10.00">mem/forward.h</text>
</a>
</g>
</g>
<!-- Node46&#45;&gt;Node66 -->
<g id="edge14_Node000046_Node000066" class="edge">
<title>Node46&#45;&gt;Node66</title>
<g id="a_edge14_Node000046_Node000066"><a xlink:title=" ">
<path fill="none" stroke="#63b8ff" d="M551.42,-109.98C597.37,-100.76 670.75,-86.03 720.35,-76.07"/>
<polygon fill="#63b8ff" stroke="#63b8ff" points="721.14,-79.48 730.25,-74.08 719.76,-72.62 721.14,-79.48"/>
</a>
</g>
</g>
<!-- Node51 -->
<g id="Node000051" class="node">
<title>Node51</title>
<g id="a_Node000051"><a xlink:href="RefCount_8h.html" target="_top" xlink:title=" ">
<polygon fill="#fff0f0" stroke="red" points="2160.5,-19 2063.5,-19 2063.5,0 2160.5,0 2160.5,-19"/>
<text text-anchor="middle" x="2112" y="-7" font-family="Helvetica,sans-Serif" font-size="10.00">base/RefCount.h</text>
</a>
</g>
</g>
<!-- Node64&#45;&gt;Node51 -->
<g id="edge13_Node000064_Node000051" class="edge">
<title>Node64&#45;&gt;Node51</title>
<g id="a_edge13_Node000064_Node000051"><a xlink:title=" ">
<path fill="none" stroke="#63b8ff" d="M708.69,-55.96C711.83,-55.59 714.96,-55.27 718,-55 983.44,-31.39 1823.01,-15.48 2053.16,-11.49"/>
<polygon fill="#63b8ff" stroke="#63b8ff" points="2053.4,-14.98 2063.33,-11.31 2053.28,-7.98 2053.4,-14.98"/>
</a>
</g>
</g>
<!-- Node70&#45;&gt;Node63 -->
<g id="edge16_Node000070_Node000063" class="edge">
<title>Node70&#45;&gt;Node63</title>
<g id="a_edge16_Node000070_Node000063"><a xlink:title=" ">
<path fill="none" stroke="#63b8ff" d="M414.6,-109.98C434.32,-101.42 464.95,-88.11 487.58,-78.28"/>
<polygon fill="#63b8ff" stroke="#63b8ff" points="489.26,-81.37 497.04,-74.17 486.48,-74.94 489.26,-81.37"/>
</a>
</g>
</g>
<!-- Node70&#45;&gt;Node64 -->
<g id="edge17_Node000070_Node000064" class="edge">
<title>Node70&#45;&gt;Node64</title>
<g id="a_edge17_Node000070_Node000064"><a xlink:title=" ">
<path fill="none" stroke="#63b8ff" d="M436.12,-110.28C482.22,-101.06 557.11,-86.08 607.44,-76.01"/>
<polygon fill="#63b8ff" stroke="#63b8ff" points="608.35,-79.4 617.47,-74.01 606.98,-72.54 608.35,-79.4"/>
</a>
</g>
</g>
<!-- Node145&#45;&gt;Node63 -->
<g id="edge20_Node000145_Node000063" class="edge">
<title>Node145&#45;&gt;Node63</title>
<g id="a_edge20_Node000145_Node000063"><a xlink:title=" ">
<path fill="none" stroke="#63b8ff" d="M806.82,-164.91C770.36,-148.61 693.57,-114.43 681,-110 642.42,-96.4 597.52,-84.48 564.47,-76.41"/>
<polygon fill="#63b8ff" stroke="#63b8ff" points="565.15,-72.97 554.61,-74.03 563.51,-79.78 565.15,-72.97"/>
</a>
</g>
</g>
<!-- Node145&#45;&gt;Node64 -->
<g id="edge21_Node000145_Node000064" class="edge">
<title>Node145&#45;&gt;Node64</title>
<g id="a_edge21_Node000145_Node000064"><a xlink:title=" ">
<path fill="none" stroke="#63b8ff" d="M812.75,-165C798.85,-156.06 776.36,-141.58 757,-129 731.06,-112.15 701.32,-92.65 681.68,-79.75"/>
<polygon fill="#63b8ff" stroke="#63b8ff" points="683.44,-76.72 673.16,-74.16 679.6,-82.57 683.44,-76.72"/>
</a>
</g>
</g>
<!-- Node145&#45;&gt;Node93 -->
<g id="edge22_Node000145_Node000093" class="edge">
<title>Node145&#45;&gt;Node93</title>
<g id="a_edge22_Node000145_Node000093"><a xlink:title=" ">
<path fill="none" stroke="#63b8ff" d="M838.05,-164.98C849.46,-156.92 866.83,-144.65 880.43,-135.03"/>
<polygon fill="#63b8ff" stroke="#63b8ff" points="882.58,-137.8 888.73,-129.17 878.54,-132.08 882.58,-137.8"/>
</a>
</g>
</g>
<!-- Node149 -->
<g id="Node000149" class="node">
<title>Node149</title>
<g id="a_Node000149"><a xlink:href="cache__cf_8h.html" target="_top" xlink:title=" ">
<polygon fill="white" stroke="#666666" points="2795,-129 2727,-129 2727,-110 2795,-110 2795,-129"/>
<text text-anchor="middle" x="2761" y="-117" font-family="Helvetica,sans-Serif" font-size="10.00">cache_cf.h</text>
</a>
</g>
</g>
<!-- Node148&#45;&gt;Node149 -->
<g id="edge27_Node000148_Node000149" class="edge">
<title>Node148&#45;&gt;Node149</title>
<g id="a_edge27_Node000148_Node000149"><a xlink:title=" ">
<path fill="none" stroke="#63b8ff" d="M1916.58,-165.94C1919.76,-165.6 1922.92,-165.28 1926,-165 2274.73,-133.56 2364.99,-167.61 2713,-129 2714.28,-128.86 2715.57,-128.7 2716.88,-128.54"/>
<polygon fill="#63b8ff" stroke="#63b8ff" points="2717.59,-131.97 2726.99,-127.08 2716.59,-125.04 2717.59,-131.97"/>
</a>
</g>
</g>
<!-- Node125 -->
<g id="Node000125" class="node">
<title>Node125</title>
<g id="a_Node000125"><a xlink:href="SBuf_8h.html" target="_top" xlink:title=" ">
<polygon fill="#fff0f0" stroke="red" points="2518.5,-74 2447.5,-74 2447.5,-55 2518.5,-55 2518.5,-74"/>
<text text-anchor="middle" x="2483" y="-62" font-family="Helvetica,sans-Serif" font-size="10.00">sbuf/SBuf.h</text>
</a>
</g>
</g>
<!-- Node148&#45;&gt;Node125 -->
<g id="edge28_Node000148_Node000125" class="edge">
<title>Node148&#45;&gt;Node125</title>
<g id="a_edge28_Node000148_Node000125"><a xlink:title=" ">
<path fill="none" stroke="#63b8ff" d="M1916.58,-165.95C1919.76,-165.6 1922.92,-165.28 1926,-165 1967.76,-161.19 2651.06,-159.35 2680,-129 2726.26,-80.48 2600.45,-68.95 2528.81,-66.27"/>
<polygon fill="#63b8ff" stroke="#63b8ff" points="2528.78,-62.77 2518.67,-65.94 2528.54,-69.76 2528.78,-62.77"/>
</a>
</g>
</g>
<!-- Node151 -->
<g id="Node000151" class="node">
<title>Node151</title>
<g id="a_Node000151"><a xlink:href="Icmp_8h.html" target="_top" xlink:title=" ">
<polygon fill="white" stroke="#666666" points="1000,-129 950,-129 950,-110 1000,-110 1000,-129"/>
<text text-anchor="middle" x="975" y="-117" font-family="Helvetica,sans-Serif" font-size="10.00">Icmp.h</text>
</a>
</g>
</g>
<!-- Node150&#45;&gt;Node151 -->
<g id="edge30_Node000150_Node000151" class="edge">
<title>Node150&#45;&gt;Node151</title>
<g id="a_edge30_Node000150_Node000151"><a xlink:title=" ">
<path fill="none" stroke="#63b8ff" d="M1330.96,-169.4C1260.41,-163.39 1130.35,-150.66 1010.28,-129.02"/>
<polygon fill="#63b8ff" stroke="#63b8ff" points="1010.64,-125.53 1000.17,-127.17 1009.38,-132.41 1010.64,-125.53"/>
</a>
</g>
</g>
<!-- Node98 -->
<g id="Node000098" class="node">
<title>Node98</title>
<g id="a_Node000098"><a xlink:href="ip_2Address_8h.html" target="_top" xlink:title=" ">
<polygon fill="#fff0f0" stroke="red" points="1959.5,-74 1882.5,-74 1882.5,-55 1959.5,-55 1959.5,-74"/>
<text text-anchor="middle" x="1921" y="-62" font-family="Helvetica,sans-Serif" font-size="10.00">ip/Address.h</text>
</a>
</g>
</g>
<!-- Node151&#45;&gt;Node98 -->
<g id="edge31_Node000151_Node000098" class="edge">
<title>Node151&#45;&gt;Node98</title>
<g id="a_edge31_Node000151_Node000098"><a xlink:title=" ">
<path fill="none" stroke="#63b8ff" d="M1000.14,-111.61C1003.11,-110.98 1006.11,-110.42 1009,-110 1386.14,-55.58 1489.17,-114.58 1872.32,-73.89"/>
<polygon fill="#63b8ff" stroke="#63b8ff" points="1872.72,-77.36 1882.29,-72.81 1871.97,-70.4 1872.72,-77.36"/>
</a>
</g>
</g>
<!-- Node99 -->
<g id="Node000099" class="node">
<title>Node99</title>
<g id="a_Node000099"><a xlink:href="ip_2forward_8h.html" target="_top" xlink:title=" ">
<polygon fill="white" stroke="#666666" points="1439.5,-19 1364.5,-19 1364.5,0 1439.5,0 1439.5,-19"/>
<text text-anchor="middle" x="1402" y="-7" font-family="Helvetica,sans-Serif" font-size="10.00">ip/forward.h</text>
</a>
</g>
</g>
<!-- Node98&#45;&gt;Node99 -->
<g id="edge32_Node000098_Node000099" class="edge">
<title>Node98&#45;&gt;Node99</title>
<g id="a_edge32_Node000098_Node000099"><a xlink:title=" ">
<path fill="none" stroke="#63b8ff" d="M1882.27,-56.36C1879.14,-55.87 1876.02,-55.41 1873,-55 1718.89,-34.11 1535.07,-19.78 1449.81,-13.73"/>
<polygon fill="#63b8ff" stroke="#63b8ff" points="1449.89,-10.23 1439.67,-13.02 1449.4,-17.21 1449.89,-10.23"/>
</a>
</g>
</g>
<!-- Node152&#45;&gt;Node66 -->
<g id="edge38_Node000152_Node000066" class="edge">
<title>Node152&#45;&gt;Node66</title>
<g id="a_edge38_Node000152_Node000066"><a xlink:title=" ">
<path fill="none" stroke="#63b8ff" d="M803.06,-109.75C798.02,-102.34 790.66,-91.5 784.49,-82.41"/>
<polygon fill="#63b8ff" stroke="#63b8ff" points="787.35,-80.39 778.83,-74.09 781.56,-84.33 787.35,-80.39"/>
</a>
</g>
</g>
<!-- Node152&#45;&gt;Node99 -->
<g id="edge37_Node000152_Node000099" class="edge">
<title>Node152&#45;&gt;Node99</title>
<g id="a_edge37_Node000152_Node000099"><a xlink:title=" ">
<path fill="none" stroke="#63b8ff" d="M813.92,-109.6C822.41,-95.23 841.32,-67.26 866,-55 951.05,-12.75 1239.32,-9.55 1354.18,-10.01"/>
<polygon fill="#63b8ff" stroke="#63b8ff" points="1354.41,-13.51 1364.42,-10.07 1354.44,-6.51 1354.41,-13.51"/>
</a>
</g>
</g>
<!-- Node86 -->
<g id="Node000086" class="node">
<title>Node86</title>
<g id="a_Node000086"><a xlink:href="anyp_2forward_8h.html" target="_top" xlink:title=" ">
<polygon fill="white" stroke="#666666" points="1864,-74 1774,-74 1774,-55 1864,-55 1864,-74"/>
<text text-anchor="middle" x="1819" y="-62" font-family="Helvetica,sans-Serif" font-size="10.00">anyp/forward.h</text>
</a>
</g>
</g>
<!-- Node152&#45;&gt;Node86 -->
<g id="edge34_Node000152_Node000086" class="edge">
<title>Node152&#45;&gt;Node86</title>
<g id="a_edge34_Node000152_Node000086"><a xlink:title=" ">
<path fill="none" stroke="#63b8ff" d="M852.08,-111.06C855.09,-110.67 858.09,-110.3 861,-110 1203.03,-74.22 1616.75,-67.21 1763.85,-65.84"/>
<polygon fill="#63b8ff" stroke="#63b8ff" points="1764,-69.33 1773.97,-65.75 1763.94,-62.33 1764,-69.33"/>
</a>
</g>
</g>
<!-- Node129 -->
<g id="Node000129" class="node">
<title>Node129</title>
<g id="a_Node000129"><a xlink:href="hash_8h.html" target="_top" xlink:title=" ">
<polygon fill="white" stroke="#666666" points="924.5,-74 875.5,-74 875.5,-55 924.5,-55 924.5,-74"/>
<text text-anchor="middle" x="900" y="-62" font-family="Helvetica,sans-Serif" font-size="10.00">hash.h</text>
</a>
</g>
</g>
<!-- Node152&#45;&gt;Node129 -->
<g id="edge36_Node000152_Node000129" class="edge">
<title>Node152&#45;&gt;Node129</title>
<g id="a_edge36_Node000152_Node000129"><a xlink:title=" ">
<path fill="none" stroke="#63b8ff" d="M823.62,-109.98C837.86,-101.69 859.75,-88.94 876.45,-79.22"/>
<polygon fill="#63b8ff" stroke="#63b8ff" points="878.23,-82.23 885.11,-74.17 874.71,-76.18 878.23,-82.23"/>
</a>
</g>
</g>
<!-- Node86&#45;&gt;Node51 -->
<g id="edge35_Node000086_Node000051" class="edge">
<title>Node86&#45;&gt;Node51</title>
<g id="a_edge35_Node000086_Node000051"><a xlink:title=" ">
<path fill="none" stroke="#63b8ff" d="M1864.14,-55.33C1915.37,-46.07 1999.03,-30.93 2054.79,-20.85"/>
<polygon fill="#63b8ff" stroke="#63b8ff" points="2055.65,-24.25 2064.87,-19.03 2054.4,-17.36 2055.65,-24.25"/>
</a>
</g>
</g>
<!-- Node154&#45;&gt;Node51 -->
<g id="edge43_Node000154_Node000051" class="edge">
<title>Node154&#45;&gt;Node51</title>
<g id="a_edge43_Node000154_Node000051"><a xlink:title=" ">
<path fill="none" stroke="#63b8ff" d="M1791.61,-166.28C1857.02,-154.84 1977.37,-133.39 1986,-129 2035.32,-103.91 2078.92,-53.54 2099.48,-27.29"/>
<polygon fill="#63b8ff" stroke="#63b8ff" points="2102.46,-29.15 2105.77,-19.09 2096.91,-24.89 2102.46,-29.15"/>
</a>
</g>
</g>
<!-- Node154&#45;&gt;Node98 -->
<g id="edge52_Node000154_Node000098" class="edge">
<title>Node154&#45;&gt;Node98</title>
<g id="a_edge52_Node000154_Node000098"><a xlink:title=" ">
<path fill="none" stroke="#63b8ff" d="M1791.58,-166.48C1853.76,-155.78 1964.34,-135.92 1970,-129 1983.62,-112.34 1962.95,-92.66 1944.41,-79.67"/>
<polygon fill="#63b8ff" stroke="#63b8ff" points="1946.19,-76.65 1935.92,-74.04 1942.32,-82.48 1946.19,-76.65"/>
</a>
</g>
</g>
<!-- Node108 -->
<g id="Node000108" class="node">
<title>Node108</title>
<g id="a_Node000108"><a xlink:href="acl_2forward_8h.html" target="_top" xlink:title=" ">
<polygon fill="white" stroke="#666666" points="2237,-74 2157,-74 2157,-55 2237,-55 2237,-74"/>
<text text-anchor="middle" x="2197" y="-62" font-family="Helvetica,sans-Serif" font-size="10.00">acl/forward.h</text>
</a>
</g>
</g>
<!-- Node154&#45;&gt;Node108 -->
<g id="edge41_Node000154_Node000108" class="edge">
<title>Node154&#45;&gt;Node108</title>
<g id="a_edge41_Node000154_Node000108"><a xlink:title=" ">
<path fill="none" stroke="#63b8ff" d="M1791.71,-166.3C1794.85,-165.84 1797.97,-165.4 1801,-165 1884.45,-154.08 2112.97,-182.42 2178,-129 2191.05,-118.28 2195.38,-98.98 2196.7,-84.46"/>
<polygon fill="#63b8ff" stroke="#63b8ff" points="2200.22,-84.26 2197.22,-74.1 2193.23,-83.91 2200.22,-84.26"/>
</a>
</g>
</g>
<!-- Node106 -->
<g id="Node000106" class="node">
<title>Node106</title>
<g id="a_Node000106"><a xlink:href="YesNoNone_8h.html" target="_top" xlink:title=" ">
<polygon fill="#fff0f0" stroke="red" points="2670.5,-129 2563.5,-129 2563.5,-110 2670.5,-110 2670.5,-129"/>
<text text-anchor="middle" x="2617" y="-117" font-family="Helvetica,sans-Serif" font-size="10.00">base/YesNoNone.h</text>
</a>
</g>
</g>
<!-- Node154&#45;&gt;Node106 -->
<g id="edge44_Node000154_Node000106" class="edge">
<title>Node154&#45;&gt;Node106</title>
<g id="a_edge44_Node000154_Node000106"><a xlink:title=" ">
<path fill="none" stroke="#63b8ff" d="M1791.69,-166.14C1794.84,-165.71 1797.97,-165.32 1801,-165 2130.9,-129.75 2218.63,-158.85 2553.44,-128.95"/>
<polygon fill="#63b8ff" stroke="#63b8ff" points="2553.78,-132.44 2563.42,-128.05 2553.14,-125.46 2553.78,-132.44"/>
</a>
</g>
</g>
<!-- Node155 -->
<g id="Node000155" class="node">
<title>Node155</title>
<g id="a_Node000155"><a xlink:href="ClientDelayConfig_8h.html" target="_top" xlink:title=" ">
<polygon fill="#fff0f0" stroke="red" points="2168.5,-129 2055.5,-129 2055.5,-110 2168.5,-110 2168.5,-129"/>
<text text-anchor="middle" x="2112" y="-117" font-family="Helvetica,sans-Serif" font-size="10.00">ClientDelayConfig.h</text>
</a>
</g>
</g>
<!-- Node154&#45;&gt;Node155 -->
<g id="edge45_Node000154_Node000155" class="edge">
<title>Node154&#45;&gt;Node155</title>
<g id="a_edge45_Node000154_Node000155"><a xlink:title=" ">
<path fill="none" stroke="#63b8ff" d="M1791.74,-166.46C1794.87,-165.96 1797.98,-165.47 1801,-165 1885.12,-151.97 1982.25,-138.29 2045.28,-129.59"/>
<polygon fill="#63b8ff" stroke="#63b8ff" points="2046.05,-133.02 2055.48,-128.19 2045.09,-126.09 2046.05,-133.02"/>
</a>
</g>
</g>
<!-- Node156 -->
<g id="Node000156" class="node">
<title>Node156</title>
<g id="a_Node000156"><a xlink:href="DelayConfig_8h.html" target="_top" xlink:title=" ">
<polygon fill="white" stroke="#666666" points="1103.5,-129 1018.5,-129 1018.5,-110 1103.5,-110 1103.5,-129"/>
<text text-anchor="middle" x="1061" y="-117" font-family="Helvetica,sans-Serif" font-size="10.00">DelayConfig.h</text>
</a>
</g>
</g>
<!-- Node154&#45;&gt;Node156 -->
<g id="edge48_Node000154_Node000156" class="edge">
<title>Node154&#45;&gt;Node156</title>
<g id="a_edge48_Node000154_Node000156"><a xlink:title=" ">
<path fill="none" stroke="#63b8ff" d="M1708.45,-171.98C1608.02,-168 1344.01,-155.8 1113.78,-129.1"/>
<polygon fill="#63b8ff" stroke="#63b8ff" points="1113.87,-125.59 1103.53,-127.9 1113.06,-132.54 1113.87,-125.59"/>
</a>
</g>
</g>
<!-- Node157 -->
<g id="Node000157" class="node">
<title>Node157</title>
<g id="a_Node000157"><a xlink:href="HeaderMangling_8h.html" target="_top" xlink:title=" ">
<polygon fill="#fff0f0" stroke="red" points="2331,-129 2225,-129 2225,-110 2331,-110 2331,-129"/>
<text text-anchor="middle" x="2278" y="-117" font-family="Helvetica,sans-Serif" font-size="10.00">HeaderMangling.h</text>
</a>
</g>
</g>
<!-- Node154&#45;&gt;Node157 -->
<g id="edge49_Node000154_Node000157" class="edge">
<title>Node154&#45;&gt;Node157</title>
<g id="a_edge49_Node000154_Node000157"><a xlink:title=" ">
<path fill="none" stroke="#63b8ff" d="M1791.71,-166.28C1794.85,-165.82 1797.97,-165.38 1801,-165 1982.46,-141.95 2029.12,-148.51 2211,-129 2212.28,-128.86 2213.57,-128.72 2214.87,-128.58"/>
<polygon fill="#63b8ff" stroke="#63b8ff" points="2215.46,-132.03 2224.99,-127.42 2214.66,-125.08 2215.46,-132.03"/>
</a>
</g>
</g>
<!-- Node165 -->
<g id="Node000165" class="node">
<title>Node165</title>
<g id="a_Node000165"><a xlink:href="ChildConfig_8h.html" target="_top" xlink:title=" ">
<polygon fill="white" stroke="#666666" points="1236.5,-129 1121.5,-129 1121.5,-110 1236.5,-110 1236.5,-129"/>
<text text-anchor="middle" x="1179" y="-117" font-family="Helvetica,sans-Serif" font-size="10.00">helper/ChildConfig.h</text>
</a>
</g>
</g>
<!-- Node154&#45;&gt;Node165 -->
<g id="edge51_Node000154_Node000165" class="edge">
<title>Node154&#45;&gt;Node165</title>
<g id="a_edge51_Node000154_Node000165"><a xlink:title=" ">
<path fill="none" stroke="#63b8ff" d="M1708.46,-170.37C1623.8,-163.88 1424.96,-148.03 1246.81,-129.05"/>
<polygon fill="#63b8ff" stroke="#63b8ff" points="1247.04,-125.55 1236.73,-127.97 1246.3,-132.51 1247.04,-125.55"/>
</a>
</g>
</g>
<!-- Node166 -->
<g id="Node000166" class="node">
<title>Node166</title>
<g id="a_Node000166"><a xlink:href="MessageDelayPools_8h.html" target="_top" xlink:title=" ">
<polygon fill="#fff0f0" stroke="red" points="2545,-129 2421,-129 2421,-110 2545,-110 2545,-129"/>
<text text-anchor="middle" x="2483" y="-117" font-family="Helvetica,sans-Serif" font-size="10.00">MessageDelayPools.h</text>
</a>
</g>
</g>
<!-- Node154&#45;&gt;Node166 -->
<g id="edge53_Node000154_Node000166" class="edge">
<title>Node154&#45;&gt;Node166</title>
<g id="a_edge53_Node000154_Node000166"><a xlink:title=" ">
<path fill="none" stroke="#63b8ff" d="M1791.7,-166.18C1794.84,-165.74 1797.97,-165.34 1801,-165 2068.02,-134.97 2139.32,-152.73 2410.54,-129.07"/>
<polygon fill="#63b8ff" stroke="#63b8ff" points="2411.03,-132.54 2420.68,-128.18 2410.41,-125.57 2411.03,-132.54"/>
</a>
</g>
</g>
<!-- Node171 -->
<g id="Node000171" class="node">
<title>Node171</title>
<g id="a_Node000171"><a xlink:href="Notes_8h.html" target="_top" xlink:title=" ">
<polygon fill="#fff0f0" stroke="red" points="2403,-129 2349,-129 2349,-110 2403,-110 2403,-129"/>
<text text-anchor="middle" x="2376" y="-117" font-family="Helvetica,sans-Serif" font-size="10.00">Notes.h</text>
</a>
</g>
</g>
<!-- Node154&#45;&gt;Node171 -->
<g id="edge56_Node000154_Node000171" class="edge">
<title>Node154&#45;&gt;Node171</title>
<g id="a_edge56_Node000154_Node000171"><a xlink:title=" ">
<path fill="none" stroke="#63b8ff" d="M1791.7,-166.21C1794.84,-165.76 1797.97,-165.35 1801,-165 2036.22,-137.61 2100.82,-163.97 2338.96,-128.88"/>
<polygon fill="#63b8ff" stroke="#63b8ff" points="2339.59,-132.33 2348.97,-127.39 2338.56,-125.4 2339.59,-132.33"/>
</a>
</g>
</g>
<!-- Node114 -->
<g id="Node000114" class="node">
<title>Node114</title>
<g id="a_Node000114"><a xlink:href="Context_8h.html" target="_top" xlink:title=" ">
<polygon fill="#fff0f0" stroke="red" points="1361,-129 1255,-129 1255,-110 1361,-110 1361,-129"/>
<text text-anchor="middle" x="1308" y="-117" font-family="Helvetica,sans-Serif" font-size="10.00">security/Context.h</text>
</a>
</g>
</g>
<!-- Node154&#45;&gt;Node114 -->
<g id="edge59_Node000154_Node000114" class="edge">
<title>Node154&#45;&gt;Node114</title>
<g id="a_edge59_Node000154_Node000114"><a xlink:title=" ">
<path fill="none" stroke="#63b8ff" d="M1708.47,-168.86C1640.48,-161.21 1500.91,-145.3 1371.37,-129.03"/>
<polygon fill="#63b8ff" stroke="#63b8ff" points="1371.63,-125.53 1361.27,-127.75 1370.75,-132.47 1371.63,-125.53"/>
</a>
</g>
</g>
<!-- Node117 -->
<g id="Node000117" class="node">
<title>Node117</title>
<g id="a_Node000117"><a xlink:href="security_2forward_8h.html" target="_top" xlink:title=" ">
<polygon fill="#fff0f0" stroke="red" points="1484.5,-129 1379.5,-129 1379.5,-110 1484.5,-110 1484.5,-129"/>
<text text-anchor="middle" x="1432" y="-117" font-family="Helvetica,sans-Serif" font-size="10.00">security/forward.h</text>
</a>
</g>
</g>
<!-- Node154&#45;&gt;Node117 -->
<g id="edge60_Node000154_Node000117" class="edge">
<title>Node154&#45;&gt;Node117</title>
<g id="a_edge60_Node000154_Node000117"><a xlink:title=" ">
<path fill="none" stroke="#63b8ff" d="M1708.43,-166.57C1653.57,-157.43 1556.57,-141.26 1493.29,-130.71"/>
<polygon fill="#63b8ff" stroke="#63b8ff" points="1493.49,-127.2 1483.05,-129.01 1492.34,-134.1 1493.49,-127.2"/>
</a>
</g>
</g>
<!-- Node172 -->
<g id="Node000172" class="node">
<title>Node172</title>
<g id="a_Node000172"><a xlink:href="ssl_2support_8h.html" target="_top" xlink:title=" ">
<polygon fill="#fff0f0" stroke="red" points="1960.5,-129 1881.5,-129 1881.5,-110 1960.5,-110 1960.5,-129"/>
<text text-anchor="middle" x="1921" y="-117" font-family="Helvetica,sans-Serif" font-size="10.00">ssl/support.h</text>
</a>
</g>
</g>
<!-- Node154&#45;&gt;Node172 -->
<g id="edge61_Node000154_Node000172" class="edge">
<title>Node154&#45;&gt;Node172</title>
<g id="a_edge61_Node000154_Node000172"><a xlink:title=" ">
<path fill="none" stroke="#63b8ff" d="M1777.47,-164.98C1806.18,-156.09 1851.42,-142.07 1883.42,-132.15"/>
<polygon fill="#63b8ff" stroke="#63b8ff" points="1884.8,-135.39 1893.31,-129.08 1882.72,-128.7 1884.8,-135.39"/>
</a>
</g>
</g>
<!-- Node179 -->
<g id="Node000179" class="node">
<title>Node179</title>
<g id="a_Node000179"><a xlink:href="Disk_8h.html" target="_top" xlink:title=" ">
<polygon fill="#fff0f0" stroke="red" points="1577.5,-129 1502.5,-129 1502.5,-110 1577.5,-110 1577.5,-129"/>
<text text-anchor="middle" x="1540" y="-117" font-family="Helvetica,sans-Serif" font-size="10.00">store/Disk.h</text>
</a>
</g>
</g>
<!-- Node154&#45;&gt;Node179 -->
<g id="edge66_Node000154_Node000179" class="edge">
<title>Node154&#45;&gt;Node179</title>
<g id="a_edge66_Node000154_Node000179"><a xlink:title=" ">
<path fill="none" stroke="#63b8ff" d="M1716.26,-164.98C1680.32,-155.91 1623.28,-141.52 1583.87,-131.57"/>
<polygon fill="#63b8ff" stroke="#63b8ff" points="1584.56,-128.14 1574,-129.08 1582.84,-134.92 1584.56,-128.14"/>
</a>
</g>
</g>
<!-- Node133 -->
<g id="Node000133" class="node">
<title>Node133</title>
<g id="a_Node000133"><a xlink:href="store_2forward_8h.html" target="_top" xlink:title=" ">
<polygon fill="white" stroke="#666666" points="1686.5,-129 1595.5,-129 1595.5,-110 1686.5,-110 1686.5,-129"/>
<text text-anchor="middle" x="1641" y="-117" font-family="Helvetica,sans-Serif" font-size="10.00">store/forward.h</text>
</a>
</g>
</g>
<!-- Node154&#45;&gt;Node133 -->
<g id="edge67_Node000154_Node000133" class="edge">
<title>Node154&#45;&gt;Node133</title>
<g id="a_edge67_Node000154_Node000133"><a xlink:title=" ">
<path fill="none" stroke="#63b8ff" d="M1732.49,-164.98C1715.03,-156.5 1687.99,-143.35 1667.83,-133.54"/>
<polygon fill="#63b8ff" stroke="#63b8ff" points="1669.36,-130.4 1658.83,-129.17 1666.29,-136.69 1669.36,-130.4"/>
</a>
</g>
</g>
<!-- Node101 -->
<g id="Node000101" class="node">
<title>Node101</title>
<g id="a_Node000101"><a xlink:href="time_2gadgets_8h.html" target="_top" xlink:title=" ">
<polygon fill="#fff0f0" stroke="red" points="1795,-129 1705,-129 1705,-110 1795,-110 1795,-129"/>
<text text-anchor="middle" x="1750" y="-117" font-family="Helvetica,sans-Serif" font-size="10.00">time/gadgets.h</text>
</a>
</g>
</g>
<!-- Node154&#45;&gt;Node101 -->
<g id="edge68_Node000154_Node000101" class="edge">
<title>Node154&#45;&gt;Node101</title>
<g id="a_edge68_Node000154_Node000101"><a xlink:title=" ">
<path fill="none" stroke="#63b8ff" d="M1750,-164.75C1750,-157.8 1750,-147.85 1750,-139.13"/>
<polygon fill="#63b8ff" stroke="#63b8ff" points="1753.5,-139.09 1750,-129.09 1746.5,-139.09 1753.5,-139.09"/>
</a>
</g>
</g>
<!-- Node56 -->
<g id="Node000056" class="node">
<title>Node56</title>
<g id="a_Node000056"><a xlink:title=" ">
<polygon fill="#e0e0e0" stroke="#999999" points="1863,-129 1813,-129 1813,-110 1863,-110 1863,-129"/>
<text text-anchor="middle" x="1838" y="-117" font-family="Helvetica,sans-Serif" font-size="10.00">chrono</text>
</a>
</g>
</g>
<!-- Node154&#45;&gt;Node56 -->
<g id="edge69_Node000154_Node000056" class="edge">
<title>Node154&#45;&gt;Node56</title>
<g id="a_edge69_Node000154_Node000056"><a xlink:title=" ">
<path fill="none" stroke="#63b8ff" d="M1764.14,-164.98C1777.79,-156.77 1798.69,-144.18 1814.78,-134.49"/>
<polygon fill="#63b8ff" stroke="#63b8ff" points="1816.84,-137.33 1823.6,-129.17 1813.23,-131.33 1816.84,-137.33"/>
</a>
</g>
</g>
<!-- Node108&#45;&gt;Node51 -->
<g id="edge42_Node000108_Node000051" class="edge">
<title>Node108&#45;&gt;Node51</title>
<g id="a_edge42_Node000108_Node000051"><a xlink:title=" ">
<path fill="none" stroke="#63b8ff" d="M2183.34,-54.98C2170.16,-46.77 2149.97,-34.18 2134.43,-24.49"/>
<polygon fill="#63b8ff" stroke="#63b8ff" points="2136.24,-21.49 2125.91,-19.17 2132.54,-27.43 2136.24,-21.49"/>
</a>
</g>
</g>
<!-- Node155&#45;&gt;Node51 -->
<g id="edge47_Node000155_Node000051" class="edge">
<title>Node155&#45;&gt;Node51</title>
<g id="a_edge47_Node000155_Node000051"><a xlink:title=" ">
<path fill="none" stroke="#63b8ff" d="M2112,-109.66C2112,-92.17 2112,-52.8 2112,-29.27"/>
<polygon fill="#63b8ff" stroke="#63b8ff" points="2115.5,-29.16 2112,-19.16 2108.5,-29.16 2115.5,-29.16"/>
</a>
</g>
</g>
<!-- Node155&#45;&gt;Node108 -->
<g id="edge46_Node000155_Node000108" class="edge">
<title>Node155&#45;&gt;Node108</title>
<g id="a_edge46_Node000155_Node000108"><a xlink:title=" ">
<path fill="none" stroke="#63b8ff" d="M2125.66,-109.98C2138.84,-101.77 2159.03,-89.18 2174.57,-79.49"/>
<polygon fill="#63b8ff" stroke="#63b8ff" points="2176.46,-82.43 2183.09,-74.17 2172.76,-76.49 2176.46,-82.43"/>
</a>
</g>
</g>
<!-- Node157&#45;&gt;Node108 -->
<g id="edge50_Node000157_Node000108" class="edge">
<title>Node157&#45;&gt;Node108</title>
<g id="a_edge50_Node000157_Node000108"><a xlink:title=" ">
<path fill="none" stroke="#63b8ff" d="M2264.99,-109.98C2252.54,-101.84 2233.54,-89.41 2218.79,-79.76"/>
<polygon fill="#63b8ff" stroke="#63b8ff" points="2220.54,-76.72 2210.25,-74.17 2216.7,-82.57 2220.54,-76.72"/>
</a>
</g>
</g>
<!-- Node166&#45;&gt;Node51 -->
<g id="edge54_Node000166_Node000051" class="edge">
<title>Node166&#45;&gt;Node51</title>
<g id="a_edge54_Node000166_Node000051"><a xlink:title=" ">
<path fill="none" stroke="#63b8ff" d="M2456.83,-109.91C2418.28,-97.34 2343.86,-73.44 2280,-55 2238.1,-42.9 2189.95,-30.28 2155.98,-21.58"/>
<polygon fill="#63b8ff" stroke="#63b8ff" points="2156.46,-18.09 2145.91,-19.01 2154.73,-24.88 2156.46,-18.09"/>
</a>
</g>
</g>
<!-- Node166&#45;&gt;Node125 -->
<g id="edge55_Node000166_Node000125" class="edge">
<title>Node166&#45;&gt;Node125</title>
<g id="a_edge55_Node000166_Node000125"><a xlink:title=" ">
<path fill="none" stroke="#63b8ff" d="M2483,-109.75C2483,-102.8 2483,-92.85 2483,-84.13"/>
<polygon fill="#63b8ff" stroke="#63b8ff" points="2486.5,-84.09 2483,-74.09 2479.5,-84.09 2486.5,-84.09"/>
</a>
</g>
</g>
<!-- Node171&#45;&gt;Node51 -->
<g id="edge58_Node000171_Node000051" class="edge">
<title>Node171&#45;&gt;Node51</title>
<g id="a_edge58_Node000171_Node000051"><a xlink:title=" ">
<path fill="none" stroke="#63b8ff" d="M2360.3,-109.98C2336.18,-97.08 2288.33,-72.27 2246,-55 2214.71,-42.23 2178.25,-30.3 2151.27,-22.02"/>
<polygon fill="#63b8ff" stroke="#63b8ff" points="2152.01,-18.59 2141.42,-19.03 2149.97,-25.29 2152.01,-18.59"/>
</a>
</g>
</g>
<!-- Node171&#45;&gt;Node108 -->
<g id="edge57_Node000171_Node000108" class="edge">
<title>Node171&#45;&gt;Node108</title>
<g id="a_edge57_Node000171_Node000108"><a xlink:title=" ">
<path fill="none" stroke="#63b8ff" d="M2348.81,-110.45C2318.64,-101.52 2269.7,-87.03 2235.57,-76.92"/>
<polygon fill="#63b8ff" stroke="#63b8ff" points="2236.51,-73.55 2225.93,-74.07 2234.52,-80.26 2236.51,-73.55"/>
</a>
</g>
</g>
<!-- Node172&#45;&gt;Node64 -->
<g id="edge63_Node000172_Node000064" class="edge">
<title>Node172&#45;&gt;Node64</title>
<g id="a_edge63_Node000172_Node000064"><a xlink:title=" ">
<path fill="none" stroke="#63b8ff" d="M1881.49,-111.15C1878.28,-110.71 1875.09,-110.31 1872,-110 1364.87,-58.36 1230.9,-118.47 718.93,-73.95"/>
<polygon fill="#63b8ff" stroke="#63b8ff" points="718.95,-70.44 708.69,-73.05 718.34,-77.41 718.95,-70.44"/>
</a>
</g>
</g>
<!-- Node172&#45;&gt;Node125 -->
<g id="edge65_Node000172_Node000125" class="edge">
<title>Node172&#45;&gt;Node125</title>
<g id="a_edge65_Node000172_Node000125"><a xlink:title=" ">
<path fill="none" stroke="#63b8ff" d="M1960.52,-114.77C2061.59,-105.24 2329.11,-80.01 2436.96,-69.84"/>
<polygon fill="#63b8ff" stroke="#63b8ff" points="2437.57,-73.3 2447.19,-68.88 2436.91,-66.33 2437.57,-73.3"/>
</a>
</g>
</g>
<!-- Node172&#45;&gt;Node98 -->
<g id="edge64_Node000172_Node000098" class="edge">
<title>Node172&#45;&gt;Node98</title>
<g id="a_edge64_Node000172_Node000098"><a xlink:title=" ">
<path fill="none" stroke="#63b8ff" d="M1921,-109.75C1921,-102.8 1921,-92.85 1921,-84.13"/>
<polygon fill="#63b8ff" stroke="#63b8ff" points="1924.5,-84.09 1921,-74.09 1917.5,-84.09 1924.5,-84.09"/>
</a>
</g>
</g>
<!-- Node172&#45;&gt;Node86 -->
<g id="edge62_Node000172_Node000086" class="edge">
<title>Node172&#45;&gt;Node86</title>
<g id="a_edge62_Node000172_Node000086"><a xlink:title=" ">
<path fill="none" stroke="#63b8ff" d="M1904.61,-109.98C1888.43,-101.57 1863.43,-88.59 1844.62,-78.81"/>
<polygon fill="#63b8ff" stroke="#63b8ff" points="1846.17,-75.68 1835.69,-74.17 1842.95,-81.89 1846.17,-75.68"/>
</a>
</g>
</g>
</g>
</svg>
