<?xml version="1.0" encoding="UTF-8" standalone="no"?>
<!DOCTYPE svg PUBLIC "-//W3C//DTD SVG 1.1//EN"
 "http://www.w3.org/Graphics/SVG/1.1/DTD/svg11.dtd">
<!-- Generated by graphviz version 2.43.0 (0)
 -->
<!-- Title: squid/src/dns/LookupDetails.h Pages: 1 -->
<svg width="759pt" height="82pt"
 viewBox="0.00 0.00 759.00 82.00" xmlns="http://www.w3.org/2000/svg" xmlns:xlink="http://www.w3.org/1999/xlink">
<g id="graph0" class="graph" transform="scale(1 1) rotate(0) translate(4 78)">
<title>squid/src/dns/LookupDetails.h</title>
<!-- Node1 -->
<g id="Node000001" class="node">
<title>Node1</title>
<g id="a_Node000001"><a xlink:title=" ">
<polygon fill="#999999" stroke="#666666" points="484,-74 323,-74 323,-55 484,-55 484,-74"/>
<text text-anchor="middle" x="403.5" y="-62" font-family="Helvetica,sans-Serif" font-size="10.00">squid/src/dns/LookupDetails.h</text>
</a>
</g>
</g>
<!-- Node2 -->
<g id="Node000002" class="node">
<title>Node2</title>
<g id="a_Node000002"><a xlink:href="HttpRequest_8cc.html" target="_top" xlink:title=" ">
<polygon fill="white" stroke="#666666" points="137,-19 0,-19 0,0 137,0 137,-19"/>
<text text-anchor="middle" x="68.5" y="-7" font-family="Helvetica,sans-Serif" font-size="10.00">squid/src/HttpRequest.cc</text>
</a>
</g>
</g>
<!-- Node1&#45;&gt;Node2 -->
<g id="edge1_Node000001_Node000002" class="edge">
<title>Node1&#45;&gt;Node2</title>
<g id="a_edge1_Node000001_Node000002"><a xlink:title=" ">
<path fill="none" stroke="#63b8ff" d="M339.48,-53.37C276.58,-43.42 181.66,-28.4 122.47,-19.04"/>
<polygon fill="#63b8ff" stroke="#63b8ff" points="339.25,-56.88 349.68,-54.98 340.35,-49.96 339.25,-56.88"/>
</a>
</g>
</g>
<!-- Node3 -->
<g id="Node000003" class="node">
<title>Node3</title>
<g id="a_Node000003"><a xlink:href="LookupDetails_8cc.html" target="_top" xlink:title=" ">
<polygon fill="white" stroke="#666666" points="321.5,-19 155.5,-19 155.5,0 321.5,0 321.5,-19"/>
<text text-anchor="middle" x="238.5" y="-7" font-family="Helvetica,sans-Serif" font-size="10.00">squid/src/dns/LookupDetails.cc</text>
</a>
</g>
</g>
<!-- Node1&#45;&gt;Node3 -->
<g id="edge2_Node000001_Node000003" class="edge">
<title>Node1&#45;&gt;Node3</title>
<g id="a_edge2_Node000001_Node000003"><a xlink:title=" ">
<path fill="none" stroke="#63b8ff" d="M367.07,-51.8C336.28,-41.91 292.88,-27.97 265.22,-19.08"/>
<polygon fill="#63b8ff" stroke="#63b8ff" points="366.4,-55.26 376.99,-54.98 368.54,-48.59 366.4,-55.26"/>
</a>
</g>
</g>
<!-- Node4 -->
<g id="Node000004" class="node">
<title>Node4</title>
<g id="a_Node000004"><a xlink:href="fqdncache_8cc.html" target="_top" xlink:title=" ">
<polygon fill="white" stroke="#666666" points="467,-19 340,-19 340,0 467,0 467,-19"/>
<text text-anchor="middle" x="403.5" y="-7" font-family="Helvetica,sans-Serif" font-size="10.00">squid/src/fqdncache.cc</text>
</a>
</g>
</g>
<!-- Node1&#45;&gt;Node4 -->
<g id="edge3_Node000001_Node000004" class="edge">
<title>Node1&#45;&gt;Node4</title>
<g id="a_edge3_Node000001_Node000004"><a xlink:title=" ">
<path fill="none" stroke="#63b8ff" d="M403.5,-44.66C403.5,-35.93 403.5,-25.99 403.5,-19.09"/>
<polygon fill="#63b8ff" stroke="#63b8ff" points="400,-44.75 403.5,-54.75 407,-44.75 400,-44.75"/>
</a>
</g>
</g>
<!-- Node5 -->
<g id="Node000005" class="node">
<title>Node5</title>
<g id="a_Node000005"><a xlink:href="ipcache_8cc.html" target="_top" xlink:title=" ">
<polygon fill="white" stroke="#666666" points="599.5,-19 485.5,-19 485.5,0 599.5,0 599.5,-19"/>
<text text-anchor="middle" x="542.5" y="-7" font-family="Helvetica,sans-Serif" font-size="10.00">squid/src/ipcache.cc</text>
</a>
</g>
</g>
<!-- Node1&#45;&gt;Node5 -->
<g id="edge4_Node000001_Node000005" class="edge">
<title>Node1&#45;&gt;Node5</title>
<g id="a_edge4_Node000001_Node000005"><a xlink:title=" ">
<path fill="none" stroke="#63b8ff" d="M435.18,-51.42C460.97,-41.59 496.74,-27.95 519.76,-19.17"/>
<polygon fill="#63b8ff" stroke="#63b8ff" points="433.93,-48.15 425.83,-54.98 436.42,-54.69 433.93,-48.15"/>
</a>
</g>
</g>
<!-- Node6 -->
<g id="Node000006" class="node">
<title>Node6</title>
<g id="a_Node000006"><a xlink:href="peer__select_8cc.html" target="_top" xlink:title=" ">
<polygon fill="white" stroke="#666666" points="751,-19 618,-19 618,0 751,0 751,-19"/>
<text text-anchor="middle" x="684.5" y="-7" font-family="Helvetica,sans-Serif" font-size="10.00">squid/src/peer_select.cc</text>
</a>
</g>
</g>
<!-- Node1&#45;&gt;Node6 -->
<g id="edge5_Node000001_Node000006" class="edge">
<title>Node1&#45;&gt;Node6</title>
<g id="a_edge5_Node000001_Node000006"><a xlink:title=" ">
<path fill="none" stroke="#63b8ff" d="M458.5,-53.13C511.18,-43.19 589.74,-28.37 639,-19.08"/>
<polygon fill="#63b8ff" stroke="#63b8ff" points="457.83,-49.69 448.65,-54.98 459.12,-56.57 457.83,-49.69"/>
</a>
</g>
</g>
</g>
</svg>
