<?xml version="1.0" encoding="UTF-8" standalone="no"?>
<!DOCTYPE svg PUBLIC "-//W3C//DTD SVG 1.1//EN"
 "http://www.w3.org/Graphics/SVG/1.1/DTD/svg11.dtd">
<!-- Generated by graphviz version 2.43.0 (0)
 -->
<!-- Title: squid/src/icmp/pinger.cc Pages: 1 -->
<svg width="4134pt" height="247pt"
 viewBox="0.00 0.00 4134.00 247.00" xmlns="http://www.w3.org/2000/svg" xmlns:xlink="http://www.w3.org/1999/xlink">
<g id="graph0" class="graph" transform="scale(1 1) rotate(0) translate(4 243)">
<title>squid/src/icmp/pinger.cc</title>
<!-- Node1 -->
<g id="Node000001" class="node">
<title>Node1</title>
<g id="a_Node000001"><a xlink:title=" ">
<polygon fill="#999999" stroke="#666666" points="3761,-239 3627,-239 3627,-220 3761,-220 3761,-239"/>
<text text-anchor="middle" x="3694" y="-227" font-family="Helvetica,sans-Serif" font-size="10.00">squid/src/icmp/pinger.cc</text>
</a>
</g>
</g>
<!-- Node2 -->
<g id="Node000002" class="node">
<title>Node2</title>
<g id="a_Node000002"><a xlink:href="squid_8h.html" target="_top" xlink:title=" ">
<polygon fill="white" stroke="#666666" points="1721,-184 1669,-184 1669,-165 1721,-165 1721,-184"/>
<text text-anchor="middle" x="1695" y="-172" font-family="Helvetica,sans-Serif" font-size="10.00">squid.h</text>
</a>
</g>
</g>
<!-- Node1&#45;&gt;Node2 -->
<g id="edge1_Node000001_Node000002" class="edge">
<title>Node1&#45;&gt;Node2</title>
<g id="a_edge1_Node000001_Node000002"><a xlink:title=" ">
<path fill="none" stroke="#63b8ff" d="M3626.92,-226.72C3310.27,-218.33 1970.55,-182.81 1731.56,-176.47"/>
<polygon fill="#63b8ff" stroke="#63b8ff" points="1731.41,-172.96 1721.32,-176.2 1731.23,-179.96 1731.41,-172.96"/>
</a>
</g>
</g>
<!-- Node45 -->
<g id="Node000045" class="node">
<title>Node45</title>
<g id="a_Node000045"><a xlink:href="debug_2Stream_8h.html" target="_top" xlink:title=" ">
<polygon fill="white" stroke="#666666" points="3571,-184 3477,-184 3477,-165 3571,-165 3571,-184"/>
<text text-anchor="middle" x="3524" y="-172" font-family="Helvetica,sans-Serif" font-size="10.00">debug/Stream.h</text>
</a>
</g>
</g>
<!-- Node1&#45;&gt;Node45 -->
<g id="edge32_Node000001_Node000045" class="edge">
<title>Node1&#45;&gt;Node45</title>
<g id="a_edge32_Node000001_Node000045"><a xlink:title=" ">
<path fill="none" stroke="#63b8ff" d="M3666.69,-219.98C3638.15,-211.09 3593.17,-197.07 3561.36,-187.15"/>
<polygon fill="#63b8ff" stroke="#63b8ff" points="3562.12,-183.72 3551.53,-184.08 3560.03,-190.4 3562.12,-183.72"/>
</a>
</g>
</g>
<!-- Node52 -->
<g id="Node000052" class="node">
<title>Node52</title>
<g id="a_Node000052"><a xlink:href="Stopwatch_8h.html" target="_top" xlink:title=" ">
<polygon fill="white" stroke="#666666" points="3343.5,-184 3240.5,-184 3240.5,-165 3343.5,-165 3343.5,-184"/>
<text text-anchor="middle" x="3292" y="-172" font-family="Helvetica,sans-Serif" font-size="10.00">base/Stopwatch.h</text>
</a>
</g>
</g>
<!-- Node1&#45;&gt;Node52 -->
<g id="edge39_Node000001_Node000052" class="edge">
<title>Node1&#45;&gt;Node52</title>
<g id="a_edge39_Node000001_Node000052"><a xlink:title=" ">
<path fill="none" stroke="#63b8ff" d="M3627.33,-219.97C3560.79,-211.42 3455.33,-197.77 3353.72,-184.09"/>
<polygon fill="#63b8ff" stroke="#63b8ff" points="3353.96,-180.59 3343.58,-182.72 3353.02,-187.52 3353.96,-180.59"/>
</a>
</g>
</g>
<!-- Node54 -->
<g id="Node000054" class="node">
<title>Node54</title>
<g id="a_Node000054"><a xlink:href="select_8h.html" target="_top" xlink:title=" ">
<polygon fill="white" stroke="#666666" points="3684.5,-184 3589.5,-184 3589.5,-165 3684.5,-165 3684.5,-184"/>
<text text-anchor="middle" x="3637" y="-172" font-family="Helvetica,sans-Serif" font-size="10.00">compat/select.h</text>
</a>
</g>
</g>
<!-- Node1&#45;&gt;Node54 -->
<g id="edge42_Node000001_Node000054" class="edge">
<title>Node1&#45;&gt;Node54</title>
<g id="a_edge42_Node000001_Node000054"><a xlink:title=" ">
<path fill="none" stroke="#63b8ff" d="M3684.84,-219.98C3676.5,-212.23 3663.97,-200.58 3653.82,-191.14"/>
<polygon fill="#63b8ff" stroke="#63b8ff" points="3656.03,-188.42 3646.32,-184.17 3651.26,-193.54 3656.03,-188.42"/>
</a>
</g>
</g>
<!-- Node55 -->
<g id="Node000055" class="node">
<title>Node55</title>
<g id="a_Node000055"><a xlink:href="socket_8h.html" target="_top" xlink:title=" ">
<polygon fill="white" stroke="#666666" points="3799.5,-184 3702.5,-184 3702.5,-165 3799.5,-165 3799.5,-184"/>
<text text-anchor="middle" x="3751" y="-172" font-family="Helvetica,sans-Serif" font-size="10.00">compat/socket.h</text>
</a>
</g>
</g>
<!-- Node1&#45;&gt;Node55 -->
<g id="edge43_Node000001_Node000055" class="edge">
<title>Node1&#45;&gt;Node55</title>
<g id="a_edge43_Node000001_Node000055"><a xlink:title=" ">
<path fill="none" stroke="#63b8ff" d="M3703.16,-219.98C3711.5,-212.23 3724.03,-200.58 3734.18,-191.14"/>
<polygon fill="#63b8ff" stroke="#63b8ff" points="3736.74,-193.54 3741.68,-184.17 3731.97,-188.42 3736.74,-193.54"/>
</a>
</g>
</g>
<!-- Node56 -->
<g id="Node000056" class="node">
<title>Node56</title>
<g id="a_Node000056"><a xlink:href="Icmp4_8h.html" target="_top" xlink:title=" ">
<polygon fill="white" stroke="#666666" points="3874,-184 3818,-184 3818,-165 3874,-165 3874,-184"/>
<text text-anchor="middle" x="3846" y="-172" font-family="Helvetica,sans-Serif" font-size="10.00">Icmp4.h</text>
</a>
</g>
</g>
<!-- Node1&#45;&gt;Node56 -->
<g id="edge44_Node000001_Node000056" class="edge">
<title>Node1&#45;&gt;Node56</title>
<g id="a_edge44_Node000001_Node000056"><a xlink:title=" ">
<path fill="none" stroke="#63b8ff" d="M3718.42,-219.98C3743.72,-211.16 3783.45,-197.31 3811.86,-187.41"/>
<polygon fill="#63b8ff" stroke="#63b8ff" points="3813.1,-190.68 3821.39,-184.08 3810.79,-184.07 3813.1,-190.68"/>
</a>
</g>
</g>
<!-- Node62 -->
<g id="Node000062" class="node">
<title>Node62</title>
<g id="a_Node000062"><a xlink:href="Icmp6_8h.html" target="_top" xlink:title=" ">
<polygon fill="white" stroke="#666666" points="3948,-184 3892,-184 3892,-165 3948,-165 3948,-184"/>
<text text-anchor="middle" x="3920" y="-172" font-family="Helvetica,sans-Serif" font-size="10.00">Icmp6.h</text>
</a>
</g>
</g>
<!-- Node1&#45;&gt;Node62 -->
<g id="edge46_Node000001_Node000062" class="edge">
<title>Node1&#45;&gt;Node62</title>
<g id="a_edge46_Node000001_Node000062"><a xlink:title=" ">
<path fill="none" stroke="#63b8ff" d="M3730.31,-219.98C3771.92,-210.23 3839.81,-194.31 3882.08,-184.39"/>
<polygon fill="#63b8ff" stroke="#63b8ff" points="3883.05,-187.76 3891.99,-182.07 3881.45,-180.94 3883.05,-187.76"/>
</a>
</g>
</g>
<!-- Node63 -->
<g id="Node000063" class="node">
<title>Node63</title>
<g id="a_Node000063"><a xlink:href="IcmpPinger_8h.html" target="_top" xlink:title=" ">
<polygon fill="white" stroke="#666666" points="4046,-184 3966,-184 3966,-165 4046,-165 4046,-184"/>
<text text-anchor="middle" x="4006" y="-172" font-family="Helvetica,sans-Serif" font-size="10.00">IcmpPinger.h</text>
</a>
</g>
</g>
<!-- Node1&#45;&gt;Node63 -->
<g id="edge48_Node000001_Node000063" class="edge">
<title>Node1&#45;&gt;Node63</title>
<g id="a_edge48_Node000001_Node000063"><a xlink:title=" ">
<path fill="none" stroke="#63b8ff" d="M3744.92,-219.95C3795.74,-211.4 3876.34,-197.8 3955.72,-184.21"/>
<polygon fill="#63b8ff" stroke="#63b8ff" points="3956.63,-187.61 3965.89,-182.47 3955.44,-180.71 3956.63,-187.61"/>
</a>
</g>
</g>
<!-- Node64 -->
<g id="Node000064" class="node">
<title>Node64</title>
<g id="a_Node000064"><a xlink:href="ip_2tools_8h.html" target="_top" xlink:title=" ">
<polygon fill="white" stroke="#666666" points="4126,-184 4064,-184 4064,-165 4126,-165 4126,-184"/>
<text text-anchor="middle" x="4095" y="-172" font-family="Helvetica,sans-Serif" font-size="10.00">ip/tools.h</text>
</a>
</g>
</g>
<!-- Node1&#45;&gt;Node64 -->
<g id="edge50_Node000001_Node000064" class="edge">
<title>Node1&#45;&gt;Node64</title>
<g id="a_edge50_Node000001_Node000064"><a xlink:title=" ">
<path fill="none" stroke="#63b8ff" d="M3761.12,-221.99C3831.6,-214.75 3945.84,-201.9 4053.54,-184.12"/>
<polygon fill="#63b8ff" stroke="#63b8ff" points="4054.32,-187.54 4063.61,-182.44 4053.17,-180.63 4054.32,-187.54"/>
</a>
</g>
</g>
<!-- Node65 -->
<g id="Node000065" class="node">
<title>Node65</title>
<g id="a_Node000065"><a xlink:href="time_2gadgets_8h.html" target="_top" xlink:title=" ">
<polygon fill="white" stroke="#666666" points="3452,-184 3362,-184 3362,-165 3452,-165 3452,-184"/>
<text text-anchor="middle" x="3407" y="-172" font-family="Helvetica,sans-Serif" font-size="10.00">time/gadgets.h</text>
</a>
</g>
</g>
<!-- Node1&#45;&gt;Node65 -->
<g id="edge51_Node000001_Node000065" class="edge">
<title>Node1&#45;&gt;Node65</title>
<g id="a_edge51_Node000001_Node000065"><a xlink:title=" ">
<path fill="none" stroke="#63b8ff" d="M3647.89,-219.98C3597.28,-210.64 3516.06,-195.64 3462.12,-185.68"/>
<polygon fill="#63b8ff" stroke="#63b8ff" points="3462.52,-182.19 3452.05,-183.82 3461.25,-189.08 3462.52,-182.19"/>
</a>
</g>
</g>
<!-- Node3 -->
<g id="Node000003" class="node">
<title>Node3</title>
<g id="a_Node000003"><a xlink:href="autoconf_8h.html" target="_top" xlink:title=" ">
<polygon fill="white" stroke="#666666" points="1677,-129 1609,-129 1609,-110 1677,-110 1677,-129"/>
<text text-anchor="middle" x="1643" y="-117" font-family="Helvetica,sans-Serif" font-size="10.00">autoconf.h</text>
</a>
</g>
</g>
<!-- Node2&#45;&gt;Node3 -->
<g id="edge2_Node000002_Node000003" class="edge">
<title>Node2&#45;&gt;Node3</title>
<g id="a_edge2_Node000002_Node000003"><a xlink:title=" ">
<path fill="none" stroke="#63b8ff" d="M1686.41,-164.75C1678.84,-157.03 1667.62,-145.6 1658.49,-136.28"/>
<polygon fill="#63b8ff" stroke="#63b8ff" points="1660.93,-133.78 1651.43,-129.09 1655.93,-138.68 1660.93,-133.78"/>
</a>
</g>
</g>
<!-- Node4 -->
<g id="Node000004" class="node">
<title>Node4</title>
<g id="a_Node000004"><a xlink:href="version_8h.html" target="_top" xlink:title=" ">
<polygon fill="white" stroke="#666666" points="1591,-129 1529,-129 1529,-110 1591,-110 1591,-129"/>
<text text-anchor="middle" x="1560" y="-117" font-family="Helvetica,sans-Serif" font-size="10.00">version.h</text>
</a>
</g>
</g>
<!-- Node2&#45;&gt;Node4 -->
<g id="edge3_Node000002_Node000004" class="edge">
<title>Node2&#45;&gt;Node4</title>
<g id="a_edge3_Node000002_Node000004"><a xlink:title=" ">
<path fill="none" stroke="#63b8ff" d="M1673.31,-164.98C1651.2,-156.3 1616.68,-142.75 1591.55,-132.88"/>
<polygon fill="#63b8ff" stroke="#63b8ff" points="1592.67,-129.57 1582.08,-129.17 1590.11,-136.08 1592.67,-129.57"/>
</a>
</g>
</g>
<!-- Node5 -->
<g id="Node000005" class="node">
<title>Node5</title>
<g id="a_Node000005"><a xlink:href="compat_8h.html" target="_top" xlink:title=" ">
<polygon fill="white" stroke="#666666" points="1797,-129 1695,-129 1695,-110 1797,-110 1797,-129"/>
<text text-anchor="middle" x="1746" y="-117" font-family="Helvetica,sans-Serif" font-size="10.00">compat/compat.h</text>
</a>
</g>
</g>
<!-- Node2&#45;&gt;Node5 -->
<g id="edge4_Node000002_Node000005" class="edge">
<title>Node2&#45;&gt;Node5</title>
<g id="a_edge4_Node000002_Node000005"><a xlink:title=" ">
<path fill="none" stroke="#63b8ff" d="M1703.42,-164.75C1710.77,-157.11 1721.63,-145.82 1730.54,-136.56"/>
<polygon fill="#63b8ff" stroke="#63b8ff" points="1733.32,-138.72 1737.74,-129.09 1728.28,-133.87 1733.32,-138.72"/>
</a>
</g>
</g>
<!-- Node6 -->
<g id="Node000006" class="node">
<title>Node6</title>
<g id="a_Node000006"><a xlink:href="osdetect_8h.html" target="_top" xlink:title=" ">
<polygon fill="white" stroke="#666666" points="3271.5,-74 3164.5,-74 3164.5,-55 3271.5,-55 3271.5,-74"/>
<text text-anchor="middle" x="3218" y="-62" font-family="Helvetica,sans-Serif" font-size="10.00">compat/osdetect.h</text>
</a>
</g>
</g>
<!-- Node5&#45;&gt;Node6 -->
<g id="edge5_Node000005_Node000006" class="edge">
<title>Node5&#45;&gt;Node6</title>
<g id="a_edge5_Node000005_Node000006"><a xlink:title=" ">
<path fill="none" stroke="#63b8ff" d="M1797.29,-118.78C1980.18,-119.36 2617.57,-117.96 3154.15,-73.96"/>
<polygon fill="#63b8ff" stroke="#63b8ff" points="3154.75,-77.42 3164.42,-73.11 3154.17,-70.44 3154.75,-77.42"/>
</a>
</g>
</g>
<!-- Node7 -->
<g id="Node000007" class="node">
<title>Node7</title>
<g id="a_Node000007"><a xlink:href="fdsetsize_8h.html" target="_top" xlink:title=" ">
<polygon fill="white" stroke="#666666" points="110,-74 0,-74 0,-55 110,-55 110,-74"/>
<text text-anchor="middle" x="55" y="-62" font-family="Helvetica,sans-Serif" font-size="10.00">compat/fdsetsize.h</text>
</a>
</g>
</g>
<!-- Node5&#45;&gt;Node7 -->
<g id="edge6_Node000005_Node000007" class="edge">
<title>Node5&#45;&gt;Node7</title>
<g id="a_edge6_Node000005_Node000007"><a xlink:title=" ">
<path fill="none" stroke="#63b8ff" d="M1694.98,-110.86C1691.95,-110.53 1688.94,-110.24 1686,-110 995.01,-53.32 815.25,-127.23 120.13,-73.98"/>
<polygon fill="#63b8ff" stroke="#63b8ff" points="120.36,-70.49 110.12,-73.21 119.82,-77.47 120.36,-70.49"/>
</a>
</g>
</g>
<!-- Node8 -->
<g id="Node000008" class="node">
<title>Node8</title>
<g id="a_Node000008"><a xlink:href="types_8h.html" target="_top" xlink:title=" ">
<polygon fill="white" stroke="#666666" points="220,-74 128,-74 128,-55 220,-55 220,-74"/>
<text text-anchor="middle" x="174" y="-62" font-family="Helvetica,sans-Serif" font-size="10.00">compat/types.h</text>
</a>
</g>
</g>
<!-- Node5&#45;&gt;Node8 -->
<g id="edge7_Node000005_Node000008" class="edge">
<title>Node5&#45;&gt;Node8</title>
<g id="a_edge7_Node000005_Node000008"><a xlink:title=" ">
<path fill="none" stroke="#63b8ff" d="M1694.98,-110.86C1691.95,-110.54 1688.94,-110.24 1686,-110 1043.77,-56.76 875.91,-130.82 230.18,-73.96"/>
<polygon fill="#63b8ff" stroke="#63b8ff" points="230.43,-70.47 220.16,-73.07 229.81,-77.45 230.43,-70.47"/>
</a>
</g>
</g>
<!-- Node10 -->
<g id="Node000010" class="node">
<title>Node10</title>
<g id="a_Node000010"><a xlink:href="aix_8h.html" target="_top" xlink:title=" ">
<polygon fill="white" stroke="#666666" points="333.5,-74 238.5,-74 238.5,-55 333.5,-55 333.5,-74"/>
<text text-anchor="middle" x="286" y="-62" font-family="Helvetica,sans-Serif" font-size="10.00">compat/os/aix.h</text>
</a>
</g>
</g>
<!-- Node5&#45;&gt;Node10 -->
<g id="edge9_Node000005_Node000010" class="edge">
<title>Node5&#45;&gt;Node10</title>
<g id="a_edge9_Node000005_Node000010"><a xlink:title=" ">
<path fill="none" stroke="#63b8ff" d="M1694.98,-110.87C1691.95,-110.54 1688.94,-110.25 1686,-110 1094.33,-60.32 939.56,-125.39 343.67,-73.91"/>
<polygon fill="#63b8ff" stroke="#63b8ff" points="343.8,-70.41 333.53,-73.03 343.19,-77.38 343.8,-70.41"/>
</a>
</g>
</g>
<!-- Node11 -->
<g id="Node000011" class="node">
<title>Node11</title>
<g id="a_Node000011"><a xlink:href="android_8h.html" target="_top" xlink:title=" ">
<polygon fill="white" stroke="#666666" points="468,-74 352,-74 352,-55 468,-55 468,-74"/>
<text text-anchor="middle" x="410" y="-62" font-family="Helvetica,sans-Serif" font-size="10.00">compat/os/android.h</text>
</a>
</g>
</g>
<!-- Node5&#45;&gt;Node11 -->
<g id="edge10_Node000005_Node000011" class="edge">
<title>Node5&#45;&gt;Node11</title>
<g id="a_edge10_Node000005_Node000011"><a xlink:title=" ">
<path fill="none" stroke="#63b8ff" d="M1694.98,-110.88C1691.95,-110.55 1688.94,-110.25 1686,-110 1153.78,-64.52 1014.7,-115.23 478.4,-74.02"/>
<polygon fill="#63b8ff" stroke="#63b8ff" points="478.31,-70.5 468.07,-73.21 477.77,-77.48 478.31,-70.5"/>
</a>
</g>
</g>
<!-- Node12 -->
<g id="Node000012" class="node">
<title>Node12</title>
<g id="a_Node000012"><a xlink:href="dragonfly_8h.html" target="_top" xlink:title=" ">
<polygon fill="white" stroke="#666666" points="610,-74 486,-74 486,-55 610,-55 610,-74"/>
<text text-anchor="middle" x="548" y="-62" font-family="Helvetica,sans-Serif" font-size="10.00">compat/os/dragonfly.h</text>
</a>
</g>
</g>
<!-- Node5&#45;&gt;Node12 -->
<g id="edge11_Node000005_Node000012" class="edge">
<title>Node5&#45;&gt;Node12</title>
<g id="a_edge11_Node000005_Node000012"><a xlink:title=" ">
<path fill="none" stroke="#63b8ff" d="M1694.98,-110.89C1691.95,-110.56 1688.93,-110.26 1686,-110 1216.66,-68.96 1093.84,-109.65 620.49,-74.04"/>
<polygon fill="#63b8ff" stroke="#63b8ff" points="620.54,-70.53 610.31,-73.26 620.01,-77.51 620.54,-70.53"/>
</a>
</g>
</g>
<!-- Node13 -->
<g id="Node000013" class="node">
<title>Node13</title>
<g id="a_Node000013"><a xlink:href="freebsd_8h.html" target="_top" xlink:title=" ">
<polygon fill="white" stroke="#666666" points="744,-74 628,-74 628,-55 744,-55 744,-74"/>
<text text-anchor="middle" x="686" y="-62" font-family="Helvetica,sans-Serif" font-size="10.00">compat/os/freebsd.h</text>
</a>
</g>
</g>
<!-- Node5&#45;&gt;Node13 -->
<g id="edge12_Node000005_Node000013" class="edge">
<title>Node5&#45;&gt;Node13</title>
<g id="a_edge12_Node000005_Node000013"><a xlink:title=" ">
<path fill="none" stroke="#63b8ff" d="M1694.98,-110.91C1691.94,-110.57 1688.93,-110.26 1686,-110 1276.02,-73.15 1168.3,-107.58 754.22,-74.01"/>
<polygon fill="#63b8ff" stroke="#63b8ff" points="754.32,-70.51 744.07,-73.18 753.75,-77.49 754.32,-70.51"/>
</a>
</g>
</g>
<!-- Node14 -->
<g id="Node000014" class="node">
<title>Node14</title>
<g id="a_Node000014"><a xlink:href="hpux_8h.html" target="_top" xlink:title=" ">
<polygon fill="white" stroke="#666666" points="866,-74 762,-74 762,-55 866,-55 866,-74"/>
<text text-anchor="middle" x="814" y="-62" font-family="Helvetica,sans-Serif" font-size="10.00">compat/os/hpux.h</text>
</a>
</g>
</g>
<!-- Node5&#45;&gt;Node14 -->
<g id="edge13_Node000005_Node000014" class="edge">
<title>Node5&#45;&gt;Node14</title>
<g id="a_edge13_Node000005_Node000014"><a xlink:title=" ">
<path fill="none" stroke="#63b8ff" d="M1694.98,-110.93C1691.94,-110.59 1688.93,-110.27 1686,-110 1330.08,-76.97 1236.03,-106.38 876.38,-74.03"/>
<polygon fill="#63b8ff" stroke="#63b8ff" points="876.48,-70.52 866.21,-73.1 875.85,-77.49 876.48,-70.52"/>
</a>
</g>
</g>
<!-- Node15 -->
<g id="Node000015" class="node">
<title>Node15</title>
<g id="a_Node000015"><a xlink:href="linux_8h.html" target="_top" xlink:title=" ">
<polygon fill="white" stroke="#666666" points="988,-74 884,-74 884,-55 988,-55 988,-74"/>
<text text-anchor="middle" x="936" y="-62" font-family="Helvetica,sans-Serif" font-size="10.00">compat/os/linux.h</text>
</a>
</g>
</g>
<!-- Node5&#45;&gt;Node15 -->
<g id="edge14_Node000005_Node000015" class="edge">
<title>Node5&#45;&gt;Node15</title>
<g id="a_edge14_Node000005_Node000015"><a xlink:title=" ">
<path fill="none" stroke="#63b8ff" d="M1694.97,-110.96C1691.94,-110.61 1688.93,-110.28 1686,-110 1384.06,-80.78 1303.96,-102.7 998.25,-74.03"/>
<polygon fill="#63b8ff" stroke="#63b8ff" points="998.49,-70.54 988.21,-73.08 997.83,-77.51 998.49,-70.54"/>
</a>
</g>
</g>
<!-- Node16 -->
<g id="Node000016" class="node">
<title>Node16</title>
<g id="a_Node000016"><a xlink:href="macosx_8h.html" target="_top" xlink:title=" ">
<polygon fill="white" stroke="#666666" points="1124,-74 1006,-74 1006,-55 1124,-55 1124,-74"/>
<text text-anchor="middle" x="1065" y="-62" font-family="Helvetica,sans-Serif" font-size="10.00">compat/os/macosx.h</text>
</a>
</g>
</g>
<!-- Node5&#45;&gt;Node16 -->
<g id="edge15_Node000005_Node000016" class="edge">
<title>Node5&#45;&gt;Node16</title>
<g id="a_edge15_Node000005_Node000016"><a xlink:title=" ">
<path fill="none" stroke="#63b8ff" d="M1694.97,-111C1691.94,-110.64 1688.93,-110.3 1686,-110 1444.35,-85.05 1379.95,-96.95 1134.62,-74.1"/>
<polygon fill="#63b8ff" stroke="#63b8ff" points="1134.6,-70.58 1124.32,-73.12 1133.94,-77.55 1134.6,-70.58"/>
</a>
</g>
</g>
<!-- Node17 -->
<g id="Node000017" class="node">
<title>Node17</title>
<g id="a_Node000017"><a xlink:href="mingw_8h.html" target="_top" xlink:title=" ">
<polygon fill="white" stroke="#666666" points="1254,-74 1142,-74 1142,-55 1254,-55 1254,-74"/>
<text text-anchor="middle" x="1198" y="-62" font-family="Helvetica,sans-Serif" font-size="10.00">compat/os/mingw.h</text>
</a>
</g>
</g>
<!-- Node5&#45;&gt;Node17 -->
<g id="edge16_Node000005_Node000017" class="edge">
<title>Node5&#45;&gt;Node17</title>
<g id="a_edge16_Node000005_Node000017"><a xlink:title=" ">
<path fill="none" stroke="#63b8ff" d="M1694.96,-111.07C1691.93,-110.69 1688.93,-110.33 1686,-110 1501.72,-89.12 1452.27,-94.06 1263.95,-74.05"/>
<polygon fill="#63b8ff" stroke="#63b8ff" points="1264.32,-70.57 1254,-72.99 1263.57,-77.53 1264.32,-70.57"/>
</a>
</g>
</g>
<!-- Node18 -->
<g id="Node000018" class="node">
<title>Node18</title>
<g id="a_Node000018"><a xlink:href="mswindows_8h.html" target="_top" xlink:title=" ">
<polygon fill="white" stroke="#666666" points="1409.5,-74 1272.5,-74 1272.5,-55 1409.5,-55 1409.5,-74"/>
<text text-anchor="middle" x="1341" y="-62" font-family="Helvetica,sans-Serif" font-size="10.00">compat/os/mswindows.h</text>
</a>
</g>
</g>
<!-- Node5&#45;&gt;Node18 -->
<g id="edge17_Node000005_Node000018" class="edge">
<title>Node5&#45;&gt;Node18</title>
<g id="a_edge17_Node000005_Node000018"><a xlink:title=" ">
<path fill="none" stroke="#63b8ff" d="M1694.94,-111.22C1691.92,-110.81 1688.92,-110.4 1686,-110 1594.45,-97.61 1489.12,-84.14 1419.17,-75.3"/>
<polygon fill="#63b8ff" stroke="#63b8ff" points="1419.47,-71.81 1409.11,-74.03 1418.59,-78.76 1419.47,-71.81"/>
</a>
</g>
</g>
<!-- Node19 -->
<g id="Node000019" class="node">
<title>Node19</title>
<g id="a_Node000019"><a xlink:href="netbsd_8h.html" target="_top" xlink:title=" ">
<polygon fill="white" stroke="#666666" points="1540.5,-74 1427.5,-74 1427.5,-55 1540.5,-55 1540.5,-74"/>
<text text-anchor="middle" x="1484" y="-62" font-family="Helvetica,sans-Serif" font-size="10.00">compat/os/netbsd.h</text>
</a>
</g>
</g>
<!-- Node5&#45;&gt;Node19 -->
<g id="edge18_Node000005_Node000019" class="edge">
<title>Node5&#45;&gt;Node19</title>
<g id="a_edge18_Node000005_Node000019"><a xlink:title=" ">
<path fill="none" stroke="#63b8ff" d="M1703.91,-109.98C1658.3,-100.76 1585.48,-86.03 1536.25,-76.07"/>
<polygon fill="#63b8ff" stroke="#63b8ff" points="1536.92,-72.63 1526.42,-74.08 1535.53,-79.5 1536.92,-72.63"/>
</a>
</g>
</g>
<!-- Node20 -->
<g id="Node000020" class="node">
<title>Node20</title>
<g id="a_Node000020"><a xlink:href="openbsd_8h.html" target="_top" xlink:title=" ">
<polygon fill="white" stroke="#666666" points="1679.5,-74 1558.5,-74 1558.5,-55 1679.5,-55 1679.5,-74"/>
<text text-anchor="middle" x="1619" y="-62" font-family="Helvetica,sans-Serif" font-size="10.00">compat/os/openbsd.h</text>
</a>
</g>
</g>
<!-- Node5&#45;&gt;Node20 -->
<g id="edge19_Node000005_Node000020" class="edge">
<title>Node5&#45;&gt;Node20</title>
<g id="a_edge19_Node000005_Node000020"><a xlink:title=" ">
<path fill="none" stroke="#63b8ff" d="M1725.6,-109.98C1704.98,-101.38 1672.89,-87.99 1649.31,-78.15"/>
<polygon fill="#63b8ff" stroke="#63b8ff" points="1650.35,-74.79 1639.78,-74.17 1647.66,-81.25 1650.35,-74.79"/>
</a>
</g>
</g>
<!-- Node21 -->
<g id="Node000021" class="node">
<title>Node21</title>
<g id="a_Node000021"><a xlink:href="os2_8h.html" target="_top" xlink:title=" ">
<polygon fill="white" stroke="#666666" points="1794.5,-74 1697.5,-74 1697.5,-55 1794.5,-55 1794.5,-74"/>
<text text-anchor="middle" x="1746" y="-62" font-family="Helvetica,sans-Serif" font-size="10.00">compat/os/os2.h</text>
</a>
</g>
</g>
<!-- Node5&#45;&gt;Node21 -->
<g id="edge20_Node000005_Node000021" class="edge">
<title>Node5&#45;&gt;Node21</title>
<g id="a_edge20_Node000005_Node000021"><a xlink:title=" ">
<path fill="none" stroke="#63b8ff" d="M1746,-109.75C1746,-102.8 1746,-92.85 1746,-84.13"/>
<polygon fill="#63b8ff" stroke="#63b8ff" points="1749.5,-84.09 1746,-74.09 1742.5,-84.09 1749.5,-84.09"/>
</a>
</g>
</g>
<!-- Node22 -->
<g id="Node000022" class="node">
<title>Node22</title>
<g id="a_Node000022"><a xlink:href="qnx_8h.html" target="_top" xlink:title=" ">
<polygon fill="white" stroke="#666666" points="1911,-74 1813,-74 1813,-55 1911,-55 1911,-74"/>
<text text-anchor="middle" x="1862" y="-62" font-family="Helvetica,sans-Serif" font-size="10.00">compat/os/qnx.h</text>
</a>
</g>
</g>
<!-- Node5&#45;&gt;Node22 -->
<g id="edge21_Node000005_Node000022" class="edge">
<title>Node5&#45;&gt;Node22</title>
<g id="a_edge21_Node000005_Node000022"><a xlink:title=" ">
<path fill="none" stroke="#63b8ff" d="M1764.64,-109.98C1783.3,-101.46 1812.25,-88.23 1833.74,-78.41"/>
<polygon fill="#63b8ff" stroke="#63b8ff" points="1835.38,-81.51 1843.02,-74.17 1832.47,-75.14 1835.38,-81.51"/>
</a>
</g>
</g>
<!-- Node23 -->
<g id="Node000023" class="node">
<title>Node23</title>
<g id="a_Node000023"><a xlink:href="sgi_8h.html" target="_top" xlink:title=" ">
<polygon fill="white" stroke="#666666" points="2023,-74 1929,-74 1929,-55 2023,-55 2023,-74"/>
<text text-anchor="middle" x="1976" y="-62" font-family="Helvetica,sans-Serif" font-size="10.00">compat/os/sgi.h</text>
</a>
</g>
</g>
<!-- Node5&#45;&gt;Node23 -->
<g id="edge22_Node000005_Node000023" class="edge">
<title>Node5&#45;&gt;Node23</title>
<g id="a_edge22_Node000005_Node000023"><a xlink:title=" ">
<path fill="none" stroke="#63b8ff" d="M1782.95,-109.98C1822.57,-100.86 1885.59,-86.33 1928.77,-76.38"/>
<polygon fill="#63b8ff" stroke="#63b8ff" points="1929.8,-79.74 1938.76,-74.08 1928.23,-72.92 1929.8,-79.74"/>
</a>
</g>
</g>
<!-- Node24 -->
<g id="Node000024" class="node">
<title>Node24</title>
<g id="a_Node000024"><a xlink:href="solaris_8h.html" target="_top" xlink:title=" ">
<polygon fill="white" stroke="#666666" points="2153,-74 2041,-74 2041,-55 2153,-55 2153,-74"/>
<text text-anchor="middle" x="2097" y="-62" font-family="Helvetica,sans-Serif" font-size="10.00">compat/os/solaris.h</text>
</a>
</g>
</g>
<!-- Node5&#45;&gt;Node24 -->
<g id="edge23_Node000005_Node000024" class="edge">
<title>Node5&#45;&gt;Node24</title>
<g id="a_edge23_Node000005_Node000024"><a xlink:title=" ">
<path fill="none" stroke="#63b8ff" d="M1797.04,-110.79C1858.8,-101.47 1962.93,-85.74 2030.81,-75.49"/>
<polygon fill="#63b8ff" stroke="#63b8ff" points="2031.6,-78.92 2040.96,-73.96 2030.55,-71.99 2031.6,-78.92"/>
</a>
</g>
</g>
<!-- Node25 -->
<g id="Node000025" class="node">
<title>Node25</title>
<g id="a_Node000025"><a xlink:href="sunos_8h.html" target="_top" xlink:title=" ">
<polygon fill="white" stroke="#666666" points="2279,-74 2171,-74 2171,-55 2279,-55 2279,-74"/>
<text text-anchor="middle" x="2225" y="-62" font-family="Helvetica,sans-Serif" font-size="10.00">compat/os/sunos.h</text>
</a>
</g>
</g>
<!-- Node5&#45;&gt;Node25 -->
<g id="edge24_Node000005_Node000025" class="edge">
<title>Node5&#45;&gt;Node25</title>
<g id="a_edge24_Node000005_Node000025"><a xlink:title=" ">
<path fill="none" stroke="#63b8ff" d="M1797.29,-113.47C1873.95,-105.86 2023.24,-90.64 2160.44,-74.16"/>
<polygon fill="#63b8ff" stroke="#63b8ff" points="2161.21,-77.59 2170.72,-72.92 2160.37,-70.64 2161.21,-77.59"/>
</a>
</g>
</g>
<!-- Node26 -->
<g id="Node000026" class="node">
<title>Node26</title>
<g id="a_Node000026"><a xlink:href="assert_8h.html" target="_top" xlink:title=" ">
<polygon fill="white" stroke="#666666" points="2392.5,-74 2297.5,-74 2297.5,-55 2392.5,-55 2392.5,-74"/>
<text text-anchor="middle" x="2345" y="-62" font-family="Helvetica,sans-Serif" font-size="10.00">compat/assert.h</text>
</a>
</g>
</g>
<!-- Node5&#45;&gt;Node26 -->
<g id="edge25_Node000005_Node000026" class="edge">
<title>Node5&#45;&gt;Node26</title>
<g id="a_edge25_Node000005_Node000026"><a xlink:title=" ">
<path fill="none" stroke="#63b8ff" d="M1797.3,-115.42C1891.95,-109.5 2100.65,-95.28 2287.44,-73.98"/>
<polygon fill="#63b8ff" stroke="#63b8ff" points="2287.91,-77.45 2297.45,-72.83 2287.11,-70.5 2287.91,-77.45"/>
</a>
</g>
</g>
<!-- Node27 -->
<g id="Node000027" class="node">
<title>Node27</title>
<g id="a_Node000027"><a xlink:href="compat__shared_8h.html" target="_top" xlink:title=" ">
<polygon fill="#fff0f0" stroke="red" points="2551,-74 2411,-74 2411,-55 2551,-55 2551,-74"/>
<text text-anchor="middle" x="2481" y="-62" font-family="Helvetica,sans-Serif" font-size="10.00">compat/compat_shared.h</text>
</a>
</g>
</g>
<!-- Node5&#45;&gt;Node27 -->
<g id="edge26_Node000005_Node000027" class="edge">
<title>Node5&#45;&gt;Node27</title>
<g id="a_edge26_Node000005_Node000027"><a xlink:title=" ">
<path fill="none" stroke="#63b8ff" d="M1797.01,-115.7C1905.74,-109.58 2168.59,-94.02 2400.79,-73.98"/>
<polygon fill="#63b8ff" stroke="#63b8ff" points="2401.11,-77.47 2410.77,-73.11 2400.51,-70.49 2401.11,-77.47"/>
</a>
</g>
</g>
<!-- Node37 -->
<g id="Node000037" class="node">
<title>Node37</title>
<g id="a_Node000037"><a xlink:href="stdvarargs_8h.html" target="_top" xlink:title=" ">
<polygon fill="#fff0f0" stroke="red" points="2686.5,-74 2569.5,-74 2569.5,-55 2686.5,-55 2686.5,-74"/>
<text text-anchor="middle" x="2628" y="-62" font-family="Helvetica,sans-Serif" font-size="10.00">compat/stdvarargs.h</text>
</a>
</g>
</g>
<!-- Node5&#45;&gt;Node37 -->
<g id="edge27_Node000005_Node000037" class="edge">
<title>Node5&#45;&gt;Node37</title>
<g id="a_edge27_Node000005_Node000037"><a xlink:title=" ">
<path fill="none" stroke="#63b8ff" d="M1797.05,-116.95C1923.99,-112.82 2264.32,-100.12 2559.39,-73.98"/>
<polygon fill="#63b8ff" stroke="#63b8ff" points="2559.77,-77.46 2569.42,-73.09 2559.15,-70.49 2559.77,-77.46"/>
</a>
</g>
</g>
<!-- Node39 -->
<g id="Node000039" class="node">
<title>Node39</title>
<g id="a_Node000039"><a xlink:href="stdio_8h.html" target="_top" xlink:title=" ">
<polygon fill="#fff0f0" stroke="red" points="2793.5,-74 2704.5,-74 2704.5,-55 2793.5,-55 2793.5,-74"/>
<text text-anchor="middle" x="2749" y="-62" font-family="Helvetica,sans-Serif" font-size="10.00">compat/stdio.h</text>
</a>
</g>
</g>
<!-- Node5&#45;&gt;Node39 -->
<g id="edge28_Node000005_Node000039" class="edge">
<title>Node5&#45;&gt;Node39</title>
<g id="a_edge28_Node000005_Node000039"><a xlink:title=" ">
<path fill="none" stroke="#63b8ff" d="M1797.07,-118.07C1938.17,-116.45 2345.43,-108.95 2694.22,-73.95"/>
<polygon fill="#63b8ff" stroke="#63b8ff" points="2694.66,-77.42 2704.26,-72.93 2693.96,-70.45 2694.66,-77.42"/>
</a>
</g>
</g>
<!-- Node41 -->
<g id="Node000041" class="node">
<title>Node41</title>
<g id="a_Node000041"><a xlink:href="statvfs_8h.html" target="_top" xlink:title=" ">
<polygon fill="white" stroke="#666666" points="2910.5,-74 2811.5,-74 2811.5,-55 2910.5,-55 2910.5,-74"/>
<text text-anchor="middle" x="2861" y="-62" font-family="Helvetica,sans-Serif" font-size="10.00">compat/statvfs.h</text>
</a>
</g>
</g>
<!-- Node5&#45;&gt;Node41 -->
<g id="edge29_Node000005_Node000041" class="edge">
<title>Node5&#45;&gt;Node41</title>
<g id="a_edge29_Node000005_Node000041"><a xlink:title=" ">
<path fill="none" stroke="#63b8ff" d="M1797.22,-118.17C1948.89,-116.81 2408.99,-109.88 2801.34,-73.94"/>
<polygon fill="#63b8ff" stroke="#63b8ff" points="2801.83,-77.41 2811.47,-73.01 2801.19,-70.44 2801.83,-77.41"/>
</a>
</g>
</g>
<!-- Node42 -->
<g id="Node000042" class="node">
<title>Node42</title>
<g id="a_Node000042"><a xlink:href="debug_8h.html" target="_top" xlink:title=" ">
<polygon fill="white" stroke="#666666" points="3023.5,-74 2928.5,-74 2928.5,-55 3023.5,-55 3023.5,-74"/>
<text text-anchor="middle" x="2976" y="-62" font-family="Helvetica,sans-Serif" font-size="10.00">compat/debug.h</text>
</a>
</g>
</g>
<!-- Node5&#45;&gt;Node42 -->
<g id="edge30_Node000005_Node000042" class="edge">
<title>Node5&#45;&gt;Node42</title>
<g id="a_edge30_Node000005_Node000042"><a xlink:title=" ">
<path fill="none" stroke="#63b8ff" d="M1797.01,-118.57C1959.3,-118.36 2478.35,-114.41 2918.41,-73.92"/>
<polygon fill="#63b8ff" stroke="#63b8ff" points="2918.83,-77.4 2928.46,-72.99 2918.18,-70.43 2918.83,-77.4"/>
</a>
</g>
</g>
<!-- Node43 -->
<g id="Node000043" class="node">
<title>Node43</title>
<g id="a_Node000043"><a xlink:href="valgrind_8h.html" target="_top" xlink:title=" ">
<polygon fill="#fff0f0" stroke="red" points="3146.5,-74 3041.5,-74 3041.5,-55 3146.5,-55 3146.5,-74"/>
<text text-anchor="middle" x="3094" y="-62" font-family="Helvetica,sans-Serif" font-size="10.00">compat/valgrind.h</text>
</a>
</g>
</g>
<!-- Node5&#45;&gt;Node43 -->
<g id="edge31_Node000005_Node000043" class="edge">
<title>Node5&#45;&gt;Node43</title>
<g id="a_edge31_Node000005_Node000043"><a xlink:title=" ">
<path fill="none" stroke="#63b8ff" d="M1797.26,-118.59C1969.79,-118.52 2545.23,-115.05 3031.25,-73.95"/>
<polygon fill="#63b8ff" stroke="#63b8ff" points="3031.61,-77.44 3041.28,-73.1 3031.01,-70.46 3031.61,-77.44"/>
</a>
</g>
</g>
<!-- Node9 -->
<g id="Node000009" class="node">
<title>Node9</title>
<g id="a_Node000009"><a xlink:title=" ">
<polygon fill="#e0e0e0" stroke="#999999" points="1762,-19 1712,-19 1712,0 1762,0 1762,-19"/>
<text text-anchor="middle" x="1737" y="-7" font-family="Helvetica,sans-Serif" font-size="10.00">cstdint</text>
</a>
</g>
</g>
<!-- Node8&#45;&gt;Node9 -->
<g id="edge8_Node000008_Node000009" class="edge">
<title>Node8&#45;&gt;Node9</title>
<g id="a_edge8_Node000008_Node000009"><a xlink:title=" ">
<path fill="none" stroke="#63b8ff" d="M220.16,-55.94C223.15,-55.58 226.11,-55.26 229,-55 528.49,-27.54 1504.19,-13.54 1701.88,-10.94"/>
<polygon fill="#63b8ff" stroke="#63b8ff" points="1702.04,-14.44 1711.99,-10.81 1701.95,-7.44 1702.04,-14.44"/>
</a>
</g>
</g>
<!-- Node46 -->
<g id="Node000046" class="node">
<title>Node46</title>
<g id="a_Node000046"><a xlink:href="Here_8h.html" target="_top" xlink:title=" ">
<polygon fill="white" stroke="#666666" points="3651.5,-129 3576.5,-129 3576.5,-110 3651.5,-110 3651.5,-129"/>
<text text-anchor="middle" x="3614" y="-117" font-family="Helvetica,sans-Serif" font-size="10.00">base/Here.h</text>
</a>
</g>
</g>
<!-- Node45&#45;&gt;Node46 -->
<g id="edge33_Node000045_Node000046" class="edge">
<title>Node45&#45;&gt;Node46</title>
<g id="a_edge33_Node000045_Node000046"><a xlink:title=" ">
<path fill="none" stroke="#63b8ff" d="M3538.46,-164.98C3552.42,-156.77 3573.79,-144.18 3590.25,-134.49"/>
<polygon fill="#63b8ff" stroke="#63b8ff" points="3592.44,-137.26 3599.28,-129.17 3588.88,-131.23 3592.44,-137.26"/>
</a>
</g>
</g>
<!-- Node48 -->
<g id="Node000048" class="node">
<title>Node48</title>
<g id="a_Node000048"><a xlink:href="AllocatorProxy_8h.html" target="_top" xlink:title=" ">
<polygon fill="white" stroke="#666666" points="3793,-129 3669,-129 3669,-110 3793,-110 3793,-129"/>
<text text-anchor="middle" x="3731" y="-117" font-family="Helvetica,sans-Serif" font-size="10.00">mem/AllocatorProxy.h</text>
</a>
</g>
</g>
<!-- Node45&#45;&gt;Node48 -->
<g id="edge35_Node000045_Node000048" class="edge">
<title>Node45&#45;&gt;Node48</title>
<g id="a_edge35_Node000045_Node000048"><a xlink:title=" ">
<path fill="none" stroke="#63b8ff" d="M3557.26,-164.98C3592.61,-155.93 3648.67,-141.58 3687.51,-131.64"/>
<polygon fill="#63b8ff" stroke="#63b8ff" points="3688.66,-134.95 3697.48,-129.08 3686.93,-128.17 3688.66,-134.95"/>
</a>
</g>
</g>
<!-- Node49 -->
<g id="Node000049" class="node">
<title>Node49</title>
<g id="a_Node000049"><a xlink:title=" ">
<polygon fill="#e0e0e0" stroke="#999999" points="3871,-129 3811,-129 3811,-110 3871,-110 3871,-129"/>
<text text-anchor="middle" x="3841" y="-117" font-family="Helvetica,sans-Serif" font-size="10.00">iostream</text>
</a>
</g>
</g>
<!-- Node45&#45;&gt;Node49 -->
<g id="edge36_Node000045_Node000049" class="edge">
<title>Node45&#45;&gt;Node49</title>
<g id="a_edge36_Node000045_Node000049"><a xlink:title=" ">
<path fill="none" stroke="#63b8ff" d="M3571.25,-166.26C3634.62,-156.51 3744.81,-139.34 3800.97,-129.09"/>
<polygon fill="#63b8ff" stroke="#63b8ff" points="3801.61,-132.53 3810.8,-127.26 3800.33,-125.65 3801.61,-132.53"/>
</a>
</g>
</g>
<!-- Node50 -->
<g id="Node000050" class="node">
<title>Node50</title>
<g id="a_Node000050"><a xlink:title=" ">
<polygon fill="#e0e0e0" stroke="#999999" points="3484,-129 3428,-129 3428,-110 3484,-110 3484,-129"/>
<text text-anchor="middle" x="3456" y="-117" font-family="Helvetica,sans-Serif" font-size="10.00">sstream</text>
</a>
</g>
</g>
<!-- Node45&#45;&gt;Node50 -->
<g id="edge37_Node000045_Node000050" class="edge">
<title>Node45&#45;&gt;Node50</title>
<g id="a_edge37_Node000045_Node000050"><a xlink:title=" ">
<path fill="none" stroke="#63b8ff" d="M3513.07,-164.98C3502.92,-157.07 3487.58,-145.11 3475.35,-135.58"/>
<polygon fill="#63b8ff" stroke="#63b8ff" points="3477.16,-132.56 3467.12,-129.17 3472.86,-138.08 3477.16,-132.56"/>
</a>
</g>
</g>
<!-- Node51 -->
<g id="Node000051" class="node">
<title>Node51</title>
<g id="a_Node000051"><a xlink:title=" ">
<polygon fill="#e0e0e0" stroke="#999999" points="3558,-129 3502,-129 3502,-110 3558,-110 3558,-129"/>
<text text-anchor="middle" x="3530" y="-117" font-family="Helvetica,sans-Serif" font-size="10.00">iomanip</text>
</a>
</g>
</g>
<!-- Node45&#45;&gt;Node51 -->
<g id="edge38_Node000045_Node000051" class="edge">
<title>Node45&#45;&gt;Node51</title>
<g id="a_edge38_Node000045_Node000051"><a xlink:title=" ">
<path fill="none" stroke="#63b8ff" d="M3524.99,-164.75C3525.78,-157.8 3526.9,-147.85 3527.89,-139.13"/>
<polygon fill="#63b8ff" stroke="#63b8ff" points="3531.38,-139.42 3529.03,-129.09 3524.42,-138.63 3531.38,-139.42"/>
</a>
</g>
</g>
<!-- Node47 -->
<g id="Node000047" class="node">
<title>Node47</title>
<g id="a_Node000047"><a xlink:title=" ">
<polygon fill="#e0e0e0" stroke="#999999" points="3531,-74 3483,-74 3483,-55 3531,-55 3531,-74"/>
<text text-anchor="middle" x="3507" y="-62" font-family="Helvetica,sans-Serif" font-size="10.00">iosfwd</text>
</a>
</g>
</g>
<!-- Node46&#45;&gt;Node47 -->
<g id="edge34_Node000046_Node000047" class="edge">
<title>Node46&#45;&gt;Node47</title>
<g id="a_edge34_Node000046_Node000047"><a xlink:title=" ">
<path fill="none" stroke="#63b8ff" d="M3596.81,-109.98C3579.75,-101.54 3553.37,-88.47 3533.6,-78.68"/>
<polygon fill="#63b8ff" stroke="#63b8ff" points="3535.02,-75.47 3524.5,-74.17 3531.91,-81.75 3535.02,-75.47"/>
</a>
</g>
</g>
<!-- Node52&#45;&gt;Node9 -->
<g id="edge41_Node000052_Node000009" class="edge">
<title>Node52&#45;&gt;Node9</title>
<g id="a_edge41_Node000052_Node000009"><a xlink:title=" ">
<path fill="none" stroke="#63b8ff" d="M3294.46,-164.7C3300.06,-142.49 3311.04,-83.87 3280,-55 3251.47,-28.45 2000.1,-13.4 1772.36,-10.88"/>
<polygon fill="#63b8ff" stroke="#63b8ff" points="1772.34,-7.38 1762.3,-10.77 1772.26,-14.38 1772.34,-7.38"/>
</a>
</g>
</g>
<!-- Node53 -->
<g id="Node000053" class="node">
<title>Node53</title>
<g id="a_Node000053"><a xlink:title=" ">
<polygon fill="#e0e0e0" stroke="#999999" points="3272,-129 3222,-129 3222,-110 3272,-110 3272,-129"/>
<text text-anchor="middle" x="3247" y="-117" font-family="Helvetica,sans-Serif" font-size="10.00">chrono</text>
</a>
</g>
</g>
<!-- Node52&#45;&gt;Node53 -->
<g id="edge40_Node000052_Node000053" class="edge">
<title>Node52&#45;&gt;Node53</title>
<g id="a_edge40_Node000052_Node000053"><a xlink:title=" ">
<path fill="none" stroke="#63b8ff" d="M3284.57,-164.75C3278.15,-157.18 3268.69,-146.05 3260.88,-136.84"/>
<polygon fill="#63b8ff" stroke="#63b8ff" points="3263.43,-134.45 3254.29,-129.09 3258.1,-138.98 3263.43,-134.45"/>
</a>
</g>
</g>
<!-- Node57 -->
<g id="Node000057" class="node">
<title>Node57</title>
<g id="a_Node000057"><a xlink:href="Icmp_8h.html" target="_top" xlink:title=" ">
<polygon fill="#fff0f0" stroke="red" points="3945,-129 3895,-129 3895,-110 3945,-110 3945,-129"/>
<text text-anchor="middle" x="3920" y="-117" font-family="Helvetica,sans-Serif" font-size="10.00">Icmp.h</text>
</a>
</g>
</g>
<!-- Node56&#45;&gt;Node57 -->
<g id="edge45_Node000056_Node000057" class="edge">
<title>Node56&#45;&gt;Node57</title>
<g id="a_edge45_Node000056_Node000057"><a xlink:title=" ">
<path fill="none" stroke="#63b8ff" d="M3857.89,-164.98C3869.15,-156.92 3886.29,-144.65 3899.71,-135.03"/>
<polygon fill="#63b8ff" stroke="#63b8ff" points="3901.8,-137.84 3907.89,-129.17 3897.73,-132.15 3901.8,-137.84"/>
</a>
</g>
</g>
<!-- Node62&#45;&gt;Node57 -->
<g id="edge47_Node000062_Node000057" class="edge">
<title>Node62&#45;&gt;Node57</title>
<g id="a_edge47_Node000062_Node000057"><a xlink:title=" ">
<path fill="none" stroke="#63b8ff" d="M3920,-164.75C3920,-157.8 3920,-147.85 3920,-139.13"/>
<polygon fill="#63b8ff" stroke="#63b8ff" points="3923.5,-139.09 3920,-129.09 3916.5,-139.09 3923.5,-139.09"/>
</a>
</g>
</g>
<!-- Node63&#45;&gt;Node57 -->
<g id="edge49_Node000063_Node000057" class="edge">
<title>Node63&#45;&gt;Node57</title>
<g id="a_edge49_Node000063_Node000057"><a xlink:title=" ">
<path fill="none" stroke="#63b8ff" d="M3992.18,-164.98C3978.85,-156.77 3958.42,-144.18 3942.69,-134.49"/>
<polygon fill="#63b8ff" stroke="#63b8ff" points="3944.42,-131.44 3934.07,-129.17 3940.75,-137.4 3944.42,-131.44"/>
</a>
</g>
</g>
<!-- Node65&#45;&gt;Node47 -->
<g id="edge53_Node000065_Node000047" class="edge">
<title>Node65&#45;&gt;Node47</title>
<g id="a_edge53_Node000065_Node000047"><a xlink:title=" ">
<path fill="none" stroke="#63b8ff" d="M3406.35,-164.74C3405.84,-151.53 3406.73,-126.32 3419,-110 3432.26,-92.37 3454.46,-81.21 3473.25,-74.48"/>
<polygon fill="#63b8ff" stroke="#63b8ff" points="3474.58,-77.73 3482.97,-71.27 3472.38,-71.08 3474.58,-77.73"/>
</a>
</g>
</g>
<!-- Node66 -->
<g id="Node000066" class="node">
<title>Node66</title>
<g id="a_Node000066"><a xlink:title=" ">
<polygon fill="#e0e0e0" stroke="#999999" points="3372,-129 3328,-129 3328,-110 3372,-110 3372,-129"/>
<text text-anchor="middle" x="3350" y="-117" font-family="Helvetica,sans-Serif" font-size="10.00">ctime</text>
</a>
</g>
</g>
<!-- Node65&#45;&gt;Node66 -->
<g id="edge52_Node000065_Node000066" class="edge">
<title>Node65&#45;&gt;Node66</title>
<g id="a_edge52_Node000065_Node000066"><a xlink:title=" ">
<path fill="none" stroke="#63b8ff" d="M3397.84,-164.98C3389.5,-157.23 3376.97,-145.58 3366.82,-136.14"/>
<polygon fill="#63b8ff" stroke="#63b8ff" points="3369.03,-133.42 3359.32,-129.17 3364.26,-138.54 3369.03,-133.42"/>
</a>
</g>
</g>
</g>
</svg>
