<?xml version="1.0" encoding="UTF-8" standalone="no"?>
<!DOCTYPE svg PUBLIC "-//W3C//DTD SVG 1.1//EN"
 "http://www.w3.org/Graphics/SVG/1.1/DTD/svg11.dtd">
<!-- Generated by graphviz version 2.43.0 (0)
 -->
<!-- Title: squid/src/tests/stub_libformat.cc Pages: 1 -->
<!--zoomable 313 -->

<svg id="main" version="1.1" xmlns="http://www.w3.org/2000/svg" xmlns:xlink="http://www.w3.org/1999/xlink" xml:space="preserve" onload="init(evt)">
<style type="text/css"><![CDATA[
.node, .edge {opacity: 0.7;}
.node.selected, .edge.selected {opacity: 1;}
.edge:hover path { stroke: red; }
.edge:hover polygon { stroke: red; fill: red; }
]]></style>

<defs>
  <circle id="rim" cx="0" cy="0" r="7"/>
  <circle id="rim2" cx="0" cy="0" r="3.5"/>
  <g id="zoomPlus">
    <use xlink:href="#rim" fill="#404040"><set attributeName="fill" to="#808080" begin="zoomplus.mouseover" end="zoomplus.mouseout"/></use>
    <path d="M-4,0h8M0,-4v8" fill="none" stroke="white" stroke-width="1.5" pointer-events="none"/>
  </g>
  <g id="zoomMin">
    <use xlink:href="#rim" fill="#404040"><set attributeName="fill" to="#808080" begin="zoomminus.mouseover" end="zoomminus.mouseout"/></use>
    <path d="M-4,0h8" fill="none" stroke="white" stroke-width="1.5" pointer-events="none"/>
  </g>
  <g id="arrowUp" transform="translate(30 24)">
    <use xlink:href="#rim"/>
    <path pointer-events="none" fill="none" stroke="white" stroke-width="1.5" d="M0,-3.0v7 M-2.5,-0.5L0,-3.0L2.5,-0.5"/>
  </g>
  <g id="arrowRight" transform="rotate(90) translate(36 -43)">
    <use xlink:href="#rim"/>
    <path pointer-events="none" fill="none" stroke="white" stroke-width="1.5" d="M0,-3.0v7 M-2.5,-0.5L0,-3.0L2.5,-0.5"/>
  </g>
  <g id="arrowDown" transform="rotate(180) translate(-30 -48)">
    <use xlink:href="#rim"/>
    <path pointer-events="none" fill="none" stroke="white" stroke-width="1.5" d="M0,-3.0v7 M-2.5,-0.5L0,-3.0L2.5,-0.5"/>
  </g>
  <g id="arrowLeft" transform="rotate(270) translate(-36 17)">
    <use xlink:href="#rim"/>
    <path pointer-events="none" fill="none" stroke="white" stroke-width="1.5" d="M0,-3.0v7 M-2.5,-0.5L0,-3.0L2.5,-0.5"/>
  </g>
  <g id="resetDef">
    <use xlink:href="#rim2" fill="#404040"><set attributeName="fill" to="#808080" begin="reset.mouseover" end="reset.mouseout"/></use>
  </g>
</defs>
<script type="application/ecmascript">
var viewWidth = 4125;
var viewHeight = 313;
var sectionId = 'dynsection-0';
</script>
<script type="application/ecmascript" xlink:href="svg.min.js"/>
<svg id="graph" class="graph">
<g id="viewport">
<title>squid/src/tests/stub_libformat.cc</title>
<!-- Node1 -->
<g id="Node000001" class="node">
<title>Node1</title>
<g id="a_Node000001"><a xlink:title=" ">
<polygon fill="#999999" stroke="#666666" points="3675,-305 3564,-305 3564,-275 3675,-275 3675,-305"/>
<text text-anchor="start" x="3572" y="-293" font-family="Helvetica,sans-Serif" font-size="10.00">squid/src/tests/stub</text>
<text text-anchor="middle" x="3619.5" y="-282" font-family="Helvetica,sans-Serif" font-size="10.00">_libformat.cc</text>
</a>
</g>
</g>
<!-- Node2 -->
<g id="Node000002" class="node">
<title>Node2</title>
<g id="a_Node000002"><a xlink:href="squid_8h.html" target="_top" xlink:title=" ">
<polygon fill="white" stroke="#666666" points="1781.5,-239 1729.5,-239 1729.5,-220 1781.5,-220 1781.5,-239"/>
<text text-anchor="middle" x="1755.5" y="-227" font-family="Helvetica,sans-Serif" font-size="10.00">squid.h</text>
</a>
</g>
</g>
<!-- Node1&#45;&gt;Node2 -->
<g id="edge1_Node000001_Node000002" class="edge">
<title>Node1&#45;&gt;Node2</title>
<g id="a_edge1_Node000001_Node000002"><a xlink:title=" ">
<path fill="none" stroke="#63b8ff" d="M3563.97,-287.26C3283.03,-278.44 2022.7,-238.89 1791.87,-231.64"/>
<polygon fill="#63b8ff" stroke="#63b8ff" points="1791.77,-228.14 1781.66,-231.32 1791.55,-235.13 1791.77,-228.14"/>
</a>
</g>
</g>
<!-- Node45 -->
<g id="Node000045" class="node">
<title>Node45</title>
<g id="a_Node000045"><a xlink:href="Format_8h.html" target="_top" xlink:title=" ">
<polygon fill="white" stroke="#666666" points="3667.5,-239 3571.5,-239 3571.5,-220 3667.5,-220 3667.5,-239"/>
<text text-anchor="middle" x="3619.5" y="-227" font-family="Helvetica,sans-Serif" font-size="10.00">format/Format.h</text>
</a>
</g>
</g>
<!-- Node1&#45;&gt;Node45 -->
<g id="edge31_Node000001_Node000045" class="edge">
<title>Node1&#45;&gt;Node45</title>
<g id="a_edge31_Node000001_Node000045"><a xlink:title=" ">
<path fill="none" stroke="#63b8ff" d="M3619.5,-274.84C3619.5,-267.21 3619.5,-257.7 3619.5,-249.45"/>
<polygon fill="#63b8ff" stroke="#63b8ff" points="3623,-249.27 3619.5,-239.27 3616,-249.27 3623,-249.27"/>
</a>
</g>
</g>
<!-- Node90 -->
<g id="Node000090" class="node">
<title>Node90</title>
<g id="a_Node000090"><a xlink:href="STUB_8h.html" target="_top" xlink:title=" ">
<polygon fill="white" stroke="#666666" points="3969,-239 3890,-239 3890,-220 3969,-220 3969,-239"/>
<text text-anchor="middle" x="3929.5" y="-227" font-family="Helvetica,sans-Serif" font-size="10.00">tests/STUB.h</text>
</a>
</g>
</g>
<!-- Node1&#45;&gt;Node90 -->
<g id="edge55_Node000001_Node000090" class="edge">
<title>Node1&#45;&gt;Node90</title>
<g id="a_edge55_Node000001_Node000090"><a xlink:title=" ">
<path fill="none" stroke="#63b8ff" d="M3675.28,-278.47C3733.54,-267.48 3824.05,-250.4 3879.9,-239.86"/>
<polygon fill="#63b8ff" stroke="#63b8ff" points="3880.73,-243.27 3889.9,-237.97 3879.43,-236.39 3880.73,-243.27"/>
</a>
</g>
</g>
<!-- Node3 -->
<g id="Node000003" class="node">
<title>Node3</title>
<g id="a_Node000003"><a xlink:href="autoconf_8h.html" target="_top" xlink:title=" ">
<polygon fill="white" stroke="#666666" points="1840.5,-184 1772.5,-184 1772.5,-165 1840.5,-165 1840.5,-184"/>
<text text-anchor="middle" x="1806.5" y="-172" font-family="Helvetica,sans-Serif" font-size="10.00">autoconf.h</text>
</a>
</g>
</g>
<!-- Node2&#45;&gt;Node3 -->
<g id="edge2_Node000002_Node000003" class="edge">
<title>Node2&#45;&gt;Node3</title>
<g id="a_edge2_Node000002_Node000003"><a xlink:title=" ">
<path fill="none" stroke="#63b8ff" d="M1763.92,-219.75C1771.27,-212.11 1782.13,-200.82 1791.04,-191.56"/>
<polygon fill="#63b8ff" stroke="#63b8ff" points="1793.82,-193.72 1798.24,-184.09 1788.78,-188.87 1793.82,-193.72"/>
</a>
</g>
</g>
<!-- Node4 -->
<g id="Node000004" class="node">
<title>Node4</title>
<g id="a_Node000004"><a xlink:href="version_8h.html" target="_top" xlink:title=" ">
<polygon fill="white" stroke="#666666" points="1634.5,-184 1572.5,-184 1572.5,-165 1634.5,-165 1634.5,-184"/>
<text text-anchor="middle" x="1603.5" y="-172" font-family="Helvetica,sans-Serif" font-size="10.00">version.h</text>
</a>
</g>
</g>
<!-- Node2&#45;&gt;Node4 -->
<g id="edge3_Node000002_Node000004" class="edge">
<title>Node2&#45;&gt;Node4</title>
<g id="a_edge3_Node000002_Node000004"><a xlink:title=" ">
<path fill="none" stroke="#63b8ff" d="M1731.08,-219.98C1705.78,-211.16 1666.05,-197.31 1637.64,-187.41"/>
<polygon fill="#63b8ff" stroke="#63b8ff" points="1638.71,-184.07 1628.11,-184.08 1636.4,-190.68 1638.71,-184.07"/>
</a>
</g>
</g>
<!-- Node5 -->
<g id="Node000005" class="node">
<title>Node5</title>
<g id="a_Node000005"><a xlink:href="compat_8h.html" target="_top" xlink:title=" ">
<polygon fill="white" stroke="#666666" points="1754.5,-184 1652.5,-184 1652.5,-165 1754.5,-165 1754.5,-184"/>
<text text-anchor="middle" x="1703.5" y="-172" font-family="Helvetica,sans-Serif" font-size="10.00">compat/compat.h</text>
</a>
</g>
</g>
<!-- Node2&#45;&gt;Node5 -->
<g id="edge4_Node000002_Node000005" class="edge">
<title>Node2&#45;&gt;Node5</title>
<g id="a_edge4_Node000002_Node000005"><a xlink:title=" ">
<path fill="none" stroke="#63b8ff" d="M1746.91,-219.75C1739.34,-212.03 1728.12,-200.6 1718.99,-191.28"/>
<polygon fill="#63b8ff" stroke="#63b8ff" points="1721.43,-188.78 1711.93,-184.09 1716.43,-193.68 1721.43,-188.78"/>
</a>
</g>
</g>
<!-- Node6 -->
<g id="Node000006" class="node">
<title>Node6</title>
<g id="a_Node000006"><a xlink:href="osdetect_8h.html" target="_top" xlink:title=" ">
<polygon fill="white" stroke="#666666" points="1999,-129 1892,-129 1892,-110 1999,-110 1999,-129"/>
<text text-anchor="middle" x="1945.5" y="-117" font-family="Helvetica,sans-Serif" font-size="10.00">compat/osdetect.h</text>
</a>
</g>
</g>
<!-- Node5&#45;&gt;Node6 -->
<g id="edge5_Node000005_Node000006" class="edge">
<title>Node5&#45;&gt;Node6</title>
<g id="a_edge5_Node000005_Node000006"><a xlink:title=" ">
<path fill="none" stroke="#63b8ff" d="M1742.38,-164.98C1784.24,-155.82 1850.93,-141.21 1896.38,-131.26"/>
<polygon fill="#63b8ff" stroke="#63b8ff" points="1897.29,-134.64 1906.31,-129.08 1895.8,-127.8 1897.29,-134.64"/>
</a>
</g>
</g>
<!-- Node7 -->
<g id="Node000007" class="node">
<title>Node7</title>
<g id="a_Node000007"><a xlink:href="fdsetsize_8h.html" target="_top" xlink:title=" ">
<polygon fill="white" stroke="#666666" points="2127.5,-129 2017.5,-129 2017.5,-110 2127.5,-110 2127.5,-129"/>
<text text-anchor="middle" x="2072.5" y="-117" font-family="Helvetica,sans-Serif" font-size="10.00">compat/fdsetsize.h</text>
</a>
</g>
</g>
<!-- Node5&#45;&gt;Node7 -->
<g id="edge6_Node000005_Node000007" class="edge">
<title>Node5&#45;&gt;Node7</title>
<g id="a_edge6_Node000005_Node000007"><a xlink:title=" ">
<path fill="none" stroke="#63b8ff" d="M1754.81,-166.13C1820.68,-156.67 1935.06,-140.24 2007.11,-129.89"/>
<polygon fill="#63b8ff" stroke="#63b8ff" points="2008.02,-133.3 2017.42,-128.41 2007.02,-126.37 2008.02,-133.3"/>
</a>
</g>
</g>
<!-- Node8 -->
<g id="Node000008" class="node">
<title>Node8</title>
<g id="a_Node000008"><a xlink:href="types_8h.html" target="_top" xlink:title=" ">
<polygon fill="#fff0f0" stroke="red" points="2237.5,-129 2145.5,-129 2145.5,-110 2237.5,-110 2237.5,-129"/>
<text text-anchor="middle" x="2191.5" y="-117" font-family="Helvetica,sans-Serif" font-size="10.00">compat/types.h</text>
</a>
</g>
</g>
<!-- Node5&#45;&gt;Node8 -->
<g id="edge7_Node000005_Node000008" class="edge">
<title>Node5&#45;&gt;Node8</title>
<g id="a_edge7_Node000005_Node000008"><a xlink:title=" ">
<path fill="none" stroke="#63b8ff" d="M1754.54,-166.11C1757.57,-165.72 1760.57,-165.35 1763.5,-165 1925.65,-145.7 1969.54,-149.56 2135.26,-129.09"/>
<polygon fill="#63b8ff" stroke="#63b8ff" points="2135.82,-132.54 2145.31,-127.83 2134.96,-125.6 2135.82,-132.54"/>
</a>
</g>
</g>
<!-- Node10 -->
<g id="Node000010" class="node">
<title>Node10</title>
<g id="a_Node000010"><a xlink:href="aix_8h.html" target="_top" xlink:title=" ">
<polygon fill="white" stroke="#666666" points="2351,-129 2256,-129 2256,-110 2351,-110 2351,-129"/>
<text text-anchor="middle" x="2303.5" y="-117" font-family="Helvetica,sans-Serif" font-size="10.00">compat/os/aix.h</text>
</a>
</g>
</g>
<!-- Node5&#45;&gt;Node10 -->
<g id="edge8_Node000005_Node000010" class="edge">
<title>Node5&#45;&gt;Node10</title>
<g id="a_edge8_Node000005_Node000010"><a xlink:title=" ">
<path fill="none" stroke="#63b8ff" d="M1754.53,-166.04C1757.57,-165.67 1760.57,-165.32 1763.5,-165 1974.28,-142.24 2030.86,-152.57 2245.92,-128.97"/>
<polygon fill="#63b8ff" stroke="#63b8ff" points="2246.4,-132.44 2255.95,-127.86 2245.62,-125.48 2246.4,-132.44"/>
</a>
</g>
</g>
<!-- Node11 -->
<g id="Node000011" class="node">
<title>Node11</title>
<g id="a_Node000011"><a xlink:href="android_8h.html" target="_top" xlink:title=" ">
<polygon fill="white" stroke="#666666" points="2485.5,-129 2369.5,-129 2369.5,-110 2485.5,-110 2485.5,-129"/>
<text text-anchor="middle" x="2427.5" y="-117" font-family="Helvetica,sans-Serif" font-size="10.00">compat/os/android.h</text>
</a>
</g>
</g>
<!-- Node5&#45;&gt;Node11 -->
<g id="edge9_Node000005_Node000011" class="edge">
<title>Node5&#45;&gt;Node11</title>
<g id="a_edge9_Node000005_Node000011"><a xlink:title=" ">
<path fill="none" stroke="#63b8ff" d="M1754.53,-165.99C1757.56,-165.63 1760.57,-165.3 1763.5,-165 2024.18,-138.71 2093.51,-153.09 2358.95,-128.97"/>
<polygon fill="#63b8ff" stroke="#63b8ff" points="2359.65,-132.43 2369.29,-128.03 2359.01,-125.45 2359.65,-132.43"/>
</a>
</g>
</g>
<!-- Node12 -->
<g id="Node000012" class="node">
<title>Node12</title>
<g id="a_Node000012"><a xlink:href="dragonfly_8h.html" target="_top" xlink:title=" ">
<polygon fill="white" stroke="#666666" points="2627.5,-129 2503.5,-129 2503.5,-110 2627.5,-110 2627.5,-129"/>
<text text-anchor="middle" x="2565.5" y="-117" font-family="Helvetica,sans-Serif" font-size="10.00">compat/os/dragonfly.h</text>
</a>
</g>
</g>
<!-- Node5&#45;&gt;Node12 -->
<g id="edge10_Node000005_Node000012" class="edge">
<title>Node5&#45;&gt;Node12</title>
<g id="a_edge10_Node000005_Node000012"><a xlink:title=" ">
<path fill="none" stroke="#63b8ff" d="M1754.53,-165.95C1757.56,-165.6 1760.57,-165.28 1763.5,-165 2084,-134.47 2168.64,-155.9 2493.03,-129.06"/>
<polygon fill="#63b8ff" stroke="#63b8ff" points="2493.51,-132.53 2503.19,-128.21 2492.93,-125.56 2493.51,-132.53"/>
</a>
</g>
</g>
<!-- Node13 -->
<g id="Node000013" class="node">
<title>Node13</title>
<g id="a_Node000013"><a xlink:href="freebsd_8h.html" target="_top" xlink:title=" ">
<polygon fill="white" stroke="#666666" points="2761.5,-129 2645.5,-129 2645.5,-110 2761.5,-110 2761.5,-129"/>
<text text-anchor="middle" x="2703.5" y="-117" font-family="Helvetica,sans-Serif" font-size="10.00">compat/os/freebsd.h</text>
</a>
</g>
</g>
<!-- Node5&#45;&gt;Node13 -->
<g id="edge11_Node000005_Node000013" class="edge">
<title>Node5&#45;&gt;Node13</title>
<g id="a_edge11_Node000005_Node000013"><a xlink:title=" ">
<path fill="none" stroke="#63b8ff" d="M1754.52,-165.92C1757.56,-165.58 1760.57,-165.27 1763.5,-165 2146.92,-130.02 2247.81,-160.93 2635.34,-129.01"/>
<polygon fill="#63b8ff" stroke="#63b8ff" points="2635.75,-132.49 2645.43,-128.17 2635.17,-125.52 2635.75,-132.49"/>
</a>
</g>
</g>
<!-- Node14 -->
<g id="Node000014" class="node">
<title>Node14</title>
<g id="a_Node000014"><a xlink:href="hpux_8h.html" target="_top" xlink:title=" ">
<polygon fill="white" stroke="#666666" points="2883.5,-129 2779.5,-129 2779.5,-110 2883.5,-110 2883.5,-129"/>
<text text-anchor="middle" x="2831.5" y="-117" font-family="Helvetica,sans-Serif" font-size="10.00">compat/os/hpux.h</text>
</a>
</g>
</g>
<!-- Node5&#45;&gt;Node14 -->
<g id="edge12_Node000005_Node000014" class="edge">
<title>Node5&#45;&gt;Node14</title>
<g id="a_edge12_Node000005_Node000014"><a xlink:title=" ">
<path fill="none" stroke="#63b8ff" d="M1754.52,-165.9C1757.56,-165.56 1760.57,-165.26 1763.5,-165 2206.22,-125.84 2322.6,-167.32 2769.03,-129.02"/>
<polygon fill="#63b8ff" stroke="#63b8ff" points="2769.64,-132.48 2779.3,-128.13 2769.03,-125.51 2769.64,-132.48"/>
</a>
</g>
</g>
<!-- Node15 -->
<g id="Node000015" class="node">
<title>Node15</title>
<g id="a_Node000015"><a xlink:href="linux_8h.html" target="_top" xlink:title=" ">
<polygon fill="white" stroke="#666666" points="3005.5,-129 2901.5,-129 2901.5,-110 3005.5,-110 3005.5,-129"/>
<text text-anchor="middle" x="2953.5" y="-117" font-family="Helvetica,sans-Serif" font-size="10.00">compat/os/linux.h</text>
</a>
</g>
</g>
<!-- Node5&#45;&gt;Node15 -->
<g id="edge13_Node000005_Node000015" class="edge">
<title>Node5&#45;&gt;Node15</title>
<g id="a_edge13_Node000005_Node000015"><a xlink:title=" ">
<path fill="none" stroke="#63b8ff" d="M1754.52,-165.89C1757.55,-165.55 1760.57,-165.25 1763.5,-165 2260.37,-122.01 2390.57,-171.05 2891.28,-129"/>
<polygon fill="#63b8ff" stroke="#63b8ff" points="2891.63,-132.48 2901.3,-128.15 2891.04,-125.5 2891.63,-132.48"/>
</a>
</g>
</g>
<!-- Node16 -->
<g id="Node000016" class="node">
<title>Node16</title>
<g id="a_Node000016"><a xlink:href="macosx_8h.html" target="_top" xlink:title=" ">
<polygon fill="white" stroke="#666666" points="3141.5,-129 3023.5,-129 3023.5,-110 3141.5,-110 3141.5,-129"/>
<text text-anchor="middle" x="3082.5" y="-117" font-family="Helvetica,sans-Serif" font-size="10.00">compat/os/macosx.h</text>
</a>
</g>
</g>
<!-- Node5&#45;&gt;Node16 -->
<g id="edge14_Node000005_Node000016" class="edge">
<title>Node5&#45;&gt;Node16</title>
<g id="a_edge14_Node000005_Node000016"><a xlink:title=" ">
<path fill="none" stroke="#63b8ff" d="M1754.52,-165.88C1757.55,-165.55 1760.56,-165.25 1763.5,-165 2314.35,-118.2 2458.15,-170.89 3012.93,-129.03"/>
<polygon fill="#63b8ff" stroke="#63b8ff" points="3013.49,-132.5 3023.2,-128.25 3012.96,-125.52 3013.49,-132.5"/>
</a>
</g>
</g>
<!-- Node17 -->
<g id="Node000017" class="node">
<title>Node17</title>
<g id="a_Node000017"><a xlink:href="mingw_8h.html" target="_top" xlink:title=" ">
<polygon fill="white" stroke="#666666" points="3271.5,-129 3159.5,-129 3159.5,-110 3271.5,-110 3271.5,-129"/>
<text text-anchor="middle" x="3215.5" y="-117" font-family="Helvetica,sans-Serif" font-size="10.00">compat/os/mingw.h</text>
</a>
</g>
</g>
<!-- Node5&#45;&gt;Node17 -->
<g id="edge15_Node000005_Node000017" class="edge">
<title>Node5&#45;&gt;Node17</title>
<g id="a_edge15_Node000005_Node000017"><a xlink:title=" ">
<path fill="none" stroke="#63b8ff" d="M1754.52,-165.87C1757.55,-165.54 1760.56,-165.25 1763.5,-165 2374.71,-113.94 2534.02,-176.37 3149.16,-129.01"/>
<polygon fill="#63b8ff" stroke="#63b8ff" points="3149.47,-132.49 3159.17,-128.23 3148.93,-125.52 3149.47,-132.49"/>
</a>
</g>
</g>
<!-- Node18 -->
<g id="Node000018" class="node">
<title>Node18</title>
<g id="a_Node000018"><a xlink:href="mswindows_8h.html" target="_top" xlink:title=" ">
<polygon fill="white" stroke="#666666" points="137,-129 0,-129 0,-110 137,-110 137,-129"/>
<text text-anchor="middle" x="68.5" y="-117" font-family="Helvetica,sans-Serif" font-size="10.00">compat/os/mswindows.h</text>
</a>
</g>
</g>
<!-- Node5&#45;&gt;Node18 -->
<g id="edge16_Node000005_Node000018" class="edge">
<title>Node5&#45;&gt;Node18</title>
<g id="a_edge16_Node000005_Node000018"><a xlink:title=" ">
<path fill="none" stroke="#63b8ff" d="M1652.48,-165.86C1649.45,-165.53 1646.44,-165.24 1643.5,-165 983.19,-110.48 811.73,-172.93 147.63,-129.08"/>
<polygon fill="#63b8ff" stroke="#63b8ff" points="147.53,-125.57 137.32,-128.39 147.07,-132.55 147.53,-125.57"/>
</a>
</g>
</g>
<!-- Node19 -->
<g id="Node000019" class="node">
<title>Node19</title>
<g id="a_Node000019"><a xlink:href="netbsd_8h.html" target="_top" xlink:title=" ">
<polygon fill="white" stroke="#666666" points="268,-129 155,-129 155,-110 268,-110 268,-129"/>
<text text-anchor="middle" x="211.5" y="-117" font-family="Helvetica,sans-Serif" font-size="10.00">compat/os/netbsd.h</text>
</a>
</g>
</g>
<!-- Node5&#45;&gt;Node19 -->
<g id="edge17_Node000005_Node000019" class="edge">
<title>Node5&#45;&gt;Node19</title>
<g id="a_edge17_Node000005_Node000019"><a xlink:title=" ">
<path fill="none" stroke="#63b8ff" d="M1652.48,-165.87C1649.45,-165.54 1646.44,-165.25 1643.5,-165 1041.25,-114.58 884.17,-175.77 278.49,-129.07"/>
<polygon fill="#63b8ff" stroke="#63b8ff" points="278.43,-125.55 268.18,-128.26 277.88,-132.53 278.43,-125.55"/>
</a>
</g>
</g>
<!-- Node20 -->
<g id="Node000020" class="node">
<title>Node20</title>
<g id="a_Node000020"><a xlink:href="openbsd_8h.html" target="_top" xlink:title=" ">
<polygon fill="white" stroke="#666666" points="407,-129 286,-129 286,-110 407,-110 407,-129"/>
<text text-anchor="middle" x="346.5" y="-117" font-family="Helvetica,sans-Serif" font-size="10.00">compat/os/openbsd.h</text>
</a>
</g>
</g>
<!-- Node5&#45;&gt;Node20 -->
<g id="edge18_Node000005_Node000020" class="edge">
<title>Node5&#45;&gt;Node20</title>
<g id="a_edge18_Node000005_Node000020"><a xlink:title=" ">
<path fill="none" stroke="#63b8ff" d="M1652.48,-165.88C1649.45,-165.55 1646.44,-165.25 1643.5,-165 1102.78,-118.92 961.66,-169.8 417.13,-129.04"/>
<polygon fill="#63b8ff" stroke="#63b8ff" points="417.29,-125.55 407.05,-128.28 416.76,-132.53 417.29,-125.55"/>
</a>
</g>
</g>
<!-- Node21 -->
<g id="Node000021" class="node">
<title>Node21</title>
<g id="a_Node000021"><a xlink:href="os2_8h.html" target="_top" xlink:title=" ">
<polygon fill="white" stroke="#666666" points="522,-129 425,-129 425,-110 522,-110 522,-129"/>
<text text-anchor="middle" x="473.5" y="-117" font-family="Helvetica,sans-Serif" font-size="10.00">compat/os/os2.h</text>
</a>
</g>
</g>
<!-- Node5&#45;&gt;Node21 -->
<g id="edge19_Node000005_Node000021" class="edge">
<title>Node5&#45;&gt;Node21</title>
<g id="a_edge19_Node000005_Node000021"><a xlink:title=" ">
<path fill="none" stroke="#63b8ff" d="M1652.48,-165.89C1649.45,-165.56 1646.43,-165.25 1643.5,-165 1154.24,-122.55 1025.78,-172.23 532.43,-128.95"/>
<polygon fill="#63b8ff" stroke="#63b8ff" points="532.46,-125.44 522.19,-128.04 531.84,-132.41 532.46,-125.44"/>
</a>
</g>
</g>
<!-- Node22 -->
<g id="Node000022" class="node">
<title>Node22</title>
<g id="a_Node000022"><a xlink:href="qnx_8h.html" target="_top" xlink:title=" ">
<polygon fill="white" stroke="#666666" points="638.5,-129 540.5,-129 540.5,-110 638.5,-110 638.5,-129"/>
<text text-anchor="middle" x="589.5" y="-117" font-family="Helvetica,sans-Serif" font-size="10.00">compat/os/qnx.h</text>
</a>
</g>
</g>
<!-- Node5&#45;&gt;Node22 -->
<g id="edge20_Node000005_Node000022" class="edge">
<title>Node5&#45;&gt;Node22</title>
<g id="a_edge20_Node000005_Node000022"><a xlink:title=" ">
<path fill="none" stroke="#63b8ff" d="M1652.48,-165.9C1649.44,-165.57 1646.43,-165.26 1643.5,-165 1205.61,-126.18 1090.37,-168.52 648.67,-128.99"/>
<polygon fill="#63b8ff" stroke="#63b8ff" points="648.78,-125.48 638.5,-128.07 648.15,-132.45 648.78,-125.48"/>
</a>
</g>
</g>
<!-- Node23 -->
<g id="Node000023" class="node">
<title>Node23</title>
<g id="a_Node000023"><a xlink:href="sgi_8h.html" target="_top" xlink:title=" ">
<polygon fill="white" stroke="#666666" points="750.5,-129 656.5,-129 656.5,-110 750.5,-110 750.5,-129"/>
<text text-anchor="middle" x="703.5" y="-117" font-family="Helvetica,sans-Serif" font-size="10.00">compat/os/sgi.h</text>
</a>
</g>
</g>
<!-- Node5&#45;&gt;Node23 -->
<g id="edge21_Node000005_Node000023" class="edge">
<title>Node5&#45;&gt;Node23</title>
<g id="a_edge21_Node000005_Node000023"><a xlink:title=" ">
<path fill="none" stroke="#63b8ff" d="M1652.48,-165.92C1649.44,-165.58 1646.43,-165.27 1643.5,-165 1255.25,-129.68 1152.66,-165.93 760.71,-128.99"/>
<polygon fill="#63b8ff" stroke="#63b8ff" points="760.79,-125.48 750.51,-128.02 760.13,-132.45 760.79,-125.48"/>
</a>
</g>
</g>
<!-- Node24 -->
<g id="Node000024" class="node">
<title>Node24</title>
<g id="a_Node000024"><a xlink:href="solaris_8h.html" target="_top" xlink:title=" ">
<polygon fill="white" stroke="#666666" points="880.5,-129 768.5,-129 768.5,-110 880.5,-110 880.5,-129"/>
<text text-anchor="middle" x="824.5" y="-117" font-family="Helvetica,sans-Serif" font-size="10.00">compat/os/solaris.h</text>
</a>
</g>
</g>
<!-- Node5&#45;&gt;Node24 -->
<g id="edge22_Node000005_Node000024" class="edge">
<title>Node5&#45;&gt;Node24</title>
<g id="a_edge22_Node000005_Node000024"><a xlink:title=" ">
<path fill="none" stroke="#63b8ff" d="M1652.48,-165.94C1649.44,-165.6 1646.43,-165.28 1643.5,-165 1312.76,-133.74 1225.37,-158.29 890.81,-129.04"/>
<polygon fill="#63b8ff" stroke="#63b8ff" points="891.11,-125.55 880.84,-128.16 890.49,-132.52 891.11,-125.55"/>
</a>
</g>
</g>
<!-- Node25 -->
<g id="Node000025" class="node">
<title>Node25</title>
<g id="a_Node000025"><a xlink:href="sunos_8h.html" target="_top" xlink:title=" ">
<polygon fill="white" stroke="#666666" points="1006.5,-129 898.5,-129 898.5,-110 1006.5,-110 1006.5,-129"/>
<text text-anchor="middle" x="952.5" y="-117" font-family="Helvetica,sans-Serif" font-size="10.00">compat/os/sunos.h</text>
</a>
</g>
</g>
<!-- Node5&#45;&gt;Node25 -->
<g id="edge23_Node000005_Node000025" class="edge">
<title>Node5&#45;&gt;Node25</title>
<g id="a_edge23_Node000005_Node000025"><a xlink:title=" ">
<path fill="none" stroke="#63b8ff" d="M1652.47,-165.98C1649.44,-165.62 1646.43,-165.29 1643.5,-165 1368.56,-137.69 1295.49,-155.29 1016.77,-129.04"/>
<polygon fill="#63b8ff" stroke="#63b8ff" points="1017.05,-125.55 1006.77,-128.09 1016.39,-132.52 1017.05,-125.55"/>
</a>
</g>
</g>
<!-- Node26 -->
<g id="Node000026" class="node">
<title>Node26</title>
<g id="a_Node000026"><a xlink:href="assert_8h.html" target="_top" xlink:title=" ">
<polygon fill="white" stroke="#666666" points="1120,-129 1025,-129 1025,-110 1120,-110 1120,-129"/>
<text text-anchor="middle" x="1072.5" y="-117" font-family="Helvetica,sans-Serif" font-size="10.00">compat/assert.h</text>
</a>
</g>
</g>
<!-- Node5&#45;&gt;Node26 -->
<g id="edge24_Node000005_Node000026" class="edge">
<title>Node5&#45;&gt;Node26</title>
<g id="a_edge24_Node000005_Node000026"><a xlink:title=" ">
<path fill="none" stroke="#63b8ff" d="M1652.47,-166.02C1649.44,-165.65 1646.43,-165.31 1643.5,-165 1418.99,-141.27 1358.84,-153.55 1130.02,-128.96"/>
<polygon fill="#63b8ff" stroke="#63b8ff" points="1130.37,-125.48 1120.05,-127.87 1129.61,-132.43 1130.37,-125.48"/>
</a>
</g>
</g>
<!-- Node27 -->
<g id="Node000027" class="node">
<title>Node27</title>
<g id="a_Node000027"><a xlink:href="compat__shared_8h.html" target="_top" xlink:title=" ">
<polygon fill="#fff0f0" stroke="red" points="1278.5,-129 1138.5,-129 1138.5,-110 1278.5,-110 1278.5,-129"/>
<text text-anchor="middle" x="1208.5" y="-117" font-family="Helvetica,sans-Serif" font-size="10.00">compat/compat_shared.h</text>
</a>
</g>
</g>
<!-- Node5&#45;&gt;Node27 -->
<g id="edge25_Node000005_Node000027" class="edge">
<title>Node5&#45;&gt;Node27</title>
<g id="a_edge25_Node000005_Node000027"><a xlink:title=" ">
<path fill="none" stroke="#63b8ff" d="M1652.46,-166.13C1649.43,-165.73 1646.42,-165.35 1643.5,-165 1488.87,-146.24 1447.36,-145.53 1288.82,-129.13"/>
<polygon fill="#63b8ff" stroke="#63b8ff" points="1289.02,-125.63 1278.71,-128.08 1288.29,-132.59 1289.02,-125.63"/>
</a>
</g>
</g>
<!-- Node37 -->
<g id="Node000037" class="node">
<title>Node37</title>
<g id="a_Node000037"><a xlink:href="stdvarargs_8h.html" target="_top" xlink:title=" ">
<polygon fill="#fff0f0" stroke="red" points="1414,-129 1297,-129 1297,-110 1414,-110 1414,-129"/>
<text text-anchor="middle" x="1355.5" y="-117" font-family="Helvetica,sans-Serif" font-size="10.00">compat/stdvarargs.h</text>
</a>
</g>
</g>
<!-- Node5&#45;&gt;Node37 -->
<g id="edge26_Node000005_Node000037" class="edge">
<title>Node5&#45;&gt;Node37</title>
<g id="a_edge26_Node000005_Node000037"><a xlink:title=" ">
<path fill="none" stroke="#63b8ff" d="M1652.15,-165.68C1590.92,-156.35 1488.45,-140.75 1421.42,-130.54"/>
<polygon fill="#63b8ff" stroke="#63b8ff" points="1421.8,-127.06 1411.39,-129.01 1420.74,-133.98 1421.8,-127.06"/>
</a>
</g>
</g>
<!-- Node39 -->
<g id="Node000039" class="node">
<title>Node39</title>
<g id="a_Node000039"><a xlink:href="stdio_8h.html" target="_top" xlink:title=" ">
<polygon fill="#fff0f0" stroke="red" points="1521,-129 1432,-129 1432,-110 1521,-110 1521,-129"/>
<text text-anchor="middle" x="1476.5" y="-117" font-family="Helvetica,sans-Serif" font-size="10.00">compat/stdio.h</text>
</a>
</g>
</g>
<!-- Node5&#45;&gt;Node39 -->
<g id="edge27_Node000005_Node000039" class="edge">
<title>Node5&#45;&gt;Node39</title>
<g id="a_edge27_Node000005_Node000039"><a xlink:title=" ">
<path fill="none" stroke="#63b8ff" d="M1667.03,-164.98C1627.93,-155.86 1565.73,-141.33 1523.11,-131.38"/>
<polygon fill="#63b8ff" stroke="#63b8ff" points="1523.79,-127.95 1513.26,-129.08 1522.2,-134.76 1523.79,-127.95"/>
</a>
</g>
</g>
<!-- Node41 -->
<g id="Node000041" class="node">
<title>Node41</title>
<g id="a_Node000041"><a xlink:href="statvfs_8h.html" target="_top" xlink:title=" ">
<polygon fill="white" stroke="#666666" points="1638,-129 1539,-129 1539,-110 1638,-110 1638,-129"/>
<text text-anchor="middle" x="1588.5" y="-117" font-family="Helvetica,sans-Serif" font-size="10.00">compat/statvfs.h</text>
</a>
</g>
</g>
<!-- Node5&#45;&gt;Node41 -->
<g id="edge28_Node000005_Node000041" class="edge">
<title>Node5&#45;&gt;Node41</title>
<g id="a_edge28_Node000005_Node000041"><a xlink:title=" ">
<path fill="none" stroke="#63b8ff" d="M1685.02,-164.98C1666.52,-156.46 1637.82,-143.23 1616.52,-133.41"/>
<polygon fill="#63b8ff" stroke="#63b8ff" points="1617.86,-130.18 1607.31,-129.17 1614.93,-136.53 1617.86,-130.18"/>
</a>
</g>
</g>
<!-- Node42 -->
<g id="Node000042" class="node">
<title>Node42</title>
<g id="a_Node000042"><a xlink:href="debug_8h.html" target="_top" xlink:title=" ">
<polygon fill="white" stroke="#666666" points="1751,-129 1656,-129 1656,-110 1751,-110 1751,-129"/>
<text text-anchor="middle" x="1703.5" y="-117" font-family="Helvetica,sans-Serif" font-size="10.00">compat/debug.h</text>
</a>
</g>
</g>
<!-- Node5&#45;&gt;Node42 -->
<g id="edge29_Node000005_Node000042" class="edge">
<title>Node5&#45;&gt;Node42</title>
<g id="a_edge29_Node000005_Node000042"><a xlink:title=" ">
<path fill="none" stroke="#63b8ff" d="M1703.5,-164.75C1703.5,-157.8 1703.5,-147.85 1703.5,-139.13"/>
<polygon fill="#63b8ff" stroke="#63b8ff" points="1707,-139.09 1703.5,-129.09 1700,-139.09 1707,-139.09"/>
</a>
</g>
</g>
<!-- Node43 -->
<g id="Node000043" class="node">
<title>Node43</title>
<g id="a_Node000043"><a xlink:href="valgrind_8h.html" target="_top" xlink:title=" ">
<polygon fill="#fff0f0" stroke="red" points="1874,-129 1769,-129 1769,-110 1874,-110 1874,-129"/>
<text text-anchor="middle" x="1821.5" y="-117" font-family="Helvetica,sans-Serif" font-size="10.00">compat/valgrind.h</text>
</a>
</g>
</g>
<!-- Node5&#45;&gt;Node43 -->
<g id="edge30_Node000005_Node000043" class="edge">
<title>Node5&#45;&gt;Node43</title>
<g id="a_edge30_Node000005_Node000043"><a xlink:title=" ">
<path fill="none" stroke="#63b8ff" d="M1722.46,-164.98C1741.53,-156.42 1771.16,-143.11 1793.05,-133.28"/>
<polygon fill="#63b8ff" stroke="#63b8ff" points="1794.51,-136.46 1802.2,-129.17 1791.64,-130.07 1794.51,-136.46"/>
</a>
</g>
</g>
<!-- Node46 -->
<g id="Node000046" class="node">
<title>Node46</title>
<g id="a_Node000046"><a xlink:href="RefCount_8h.html" target="_top" xlink:title=" ">
<polygon fill="white" stroke="#666666" points="3416,-74 3319,-74 3319,-55 3416,-55 3416,-74"/>
<text text-anchor="middle" x="3367.5" y="-62" font-family="Helvetica,sans-Serif" font-size="10.00">base/RefCount.h</text>
</a>
</g>
</g>
<!-- Node45&#45;&gt;Node46 -->
<g id="edge32_Node000045_Node000046" class="edge">
<title>Node45&#45;&gt;Node46</title>
<g id="a_edge32_Node000045_Node000046"><a xlink:title=" ">
<path fill="none" stroke="#63b8ff" d="M3571.3,-228.64C3502.11,-225.91 3376.61,-209.41 3318.5,-129 3306.09,-111.83 3325.73,-92.65 3343.71,-79.9"/>
<polygon fill="#63b8ff" stroke="#63b8ff" points="3345.88,-82.66 3352.26,-74.2 3342,-76.84 3345.88,-82.66"/>
</a>
</g>
</g>
<!-- Node50 -->
<g id="Node000050" class="node">
<title>Node50</title>
<g id="a_Node000050"><a xlink:href="ConfigParser_8h.html" target="_top" xlink:title=" ">
<polygon fill="white" stroke="#666666" points="3662.5,-184 3576.5,-184 3576.5,-165 3662.5,-165 3662.5,-184"/>
<text text-anchor="middle" x="3619.5" y="-172" font-family="Helvetica,sans-Serif" font-size="10.00">ConfigParser.h</text>
</a>
</g>
</g>
<!-- Node45&#45;&gt;Node50 -->
<g id="edge36_Node000045_Node000050" class="edge">
<title>Node45&#45;&gt;Node50</title>
<g id="a_edge36_Node000045_Node000050"><a xlink:title=" ">
<path fill="none" stroke="#63b8ff" d="M3619.5,-219.75C3619.5,-212.8 3619.5,-202.85 3619.5,-194.13"/>
<polygon fill="#63b8ff" stroke="#63b8ff" points="3623,-194.09 3619.5,-184.09 3616,-194.09 3623,-194.09"/>
</a>
</g>
</g>
<!-- Node71 -->
<g id="Node000071" class="node">
<title>Node71</title>
<g id="a_Node000071"><a xlink:href="SBuf_8h.html" target="_top" xlink:title=" ">
<polygon fill="#fff0f0" stroke="red" points="4006,-129 3935,-129 3935,-110 4006,-110 4006,-129"/>
<text text-anchor="middle" x="3970.5" y="-117" font-family="Helvetica,sans-Serif" font-size="10.00">sbuf/SBuf.h</text>
</a>
</g>
</g>
<!-- Node45&#45;&gt;Node71 -->
<g id="edge50_Node000045_Node000071" class="edge">
<title>Node45&#45;&gt;Node71</title>
<g id="a_edge50_Node000045_Node000071"><a xlink:title=" ">
<path fill="none" stroke="#63b8ff" d="M3647.34,-219.94C3709.93,-200.68 3861.83,-153.94 3932.8,-132.1"/>
<polygon fill="#63b8ff" stroke="#63b8ff" points="3934.13,-135.35 3942.66,-129.07 3932.07,-128.66 3934.13,-135.35"/>
</a>
</g>
</g>
<!-- Node47 -->
<g id="Node000047" class="node">
<title>Node47</title>
<g id="a_Node000047"><a xlink:href="Lock_8h.html" target="_top" xlink:title=" ">
<polygon fill="white" stroke="#666666" points="3443.5,-19 3369.5,-19 3369.5,0 3443.5,0 3443.5,-19"/>
<text text-anchor="middle" x="3406.5" y="-7" font-family="Helvetica,sans-Serif" font-size="10.00">base/Lock.h</text>
</a>
</g>
</g>
<!-- Node46&#45;&gt;Node47 -->
<g id="edge33_Node000046_Node000047" class="edge">
<title>Node46&#45;&gt;Node47</title>
<g id="a_edge33_Node000046_Node000047"><a xlink:title=" ">
<path fill="none" stroke="#63b8ff" d="M3373.94,-54.75C3379.39,-47.34 3387.36,-36.5 3394.06,-27.41"/>
<polygon fill="#63b8ff" stroke="#63b8ff" points="3397.07,-29.22 3400.18,-19.09 3391.43,-25.07 3397.07,-29.22"/>
</a>
</g>
</g>
<!-- Node48 -->
<g id="Node000048" class="node">
<title>Node48</title>
<g id="a_Node000048"><a xlink:title=" ">
<polygon fill="#e0e0e0" stroke="#999999" points="3819.5,-19 3759.5,-19 3759.5,0 3819.5,0 3819.5,-19"/>
<text text-anchor="middle" x="3789.5" y="-7" font-family="Helvetica,sans-Serif" font-size="10.00">iostream</text>
</a>
</g>
</g>
<!-- Node46&#45;&gt;Node48 -->
<g id="edge34_Node000046_Node000048" class="edge">
<title>Node46&#45;&gt;Node48</title>
<g id="a_edge34_Node000046_Node000048"><a xlink:title=" ">
<path fill="none" stroke="#63b8ff" d="M3416.32,-57.37C3500.45,-46.8 3671.2,-25.36 3749.11,-15.57"/>
<polygon fill="#63b8ff" stroke="#63b8ff" points="3749.98,-18.99 3759.46,-14.27 3749.11,-12.05 3749.98,-18.99"/>
</a>
</g>
</g>
<!-- Node49 -->
<g id="Node000049" class="node">
<title>Node49</title>
<g id="a_Node000049"><a xlink:title=" ">
<polygon fill="#e0e0e0" stroke="#999999" points="3351,-19 3306,-19 3306,0 3351,0 3351,-19"/>
<text text-anchor="middle" x="3328.5" y="-7" font-family="Helvetica,sans-Serif" font-size="10.00">utility</text>
</a>
</g>
</g>
<!-- Node46&#45;&gt;Node49 -->
<g id="edge35_Node000046_Node000049" class="edge">
<title>Node46&#45;&gt;Node49</title>
<g id="a_edge35_Node000046_Node000049"><a xlink:title=" ">
<path fill="none" stroke="#63b8ff" d="M3361.06,-54.75C3355.61,-47.34 3347.64,-36.5 3340.94,-27.41"/>
<polygon fill="#63b8ff" stroke="#63b8ff" points="3343.57,-25.07 3334.82,-19.09 3337.93,-29.22 3343.57,-25.07"/>
</a>
</g>
</g>
<!-- Node51 -->
<g id="Node000051" class="node">
<title>Node51</title>
<g id="a_Node000051"><a xlink:href="acl_2forward_8h.html" target="_top" xlink:title=" ">
<polygon fill="white" stroke="#666666" points="3407.5,-129 3327.5,-129 3327.5,-110 3407.5,-110 3407.5,-129"/>
<text text-anchor="middle" x="3367.5" y="-117" font-family="Helvetica,sans-Serif" font-size="10.00">acl/forward.h</text>
</a>
</g>
</g>
<!-- Node50&#45;&gt;Node51 -->
<g id="edge37_Node000050_Node000051" class="edge">
<title>Node50&#45;&gt;Node51</title>
<g id="a_edge37_Node000050_Node000051"><a xlink:title=" ">
<path fill="none" stroke="#63b8ff" d="M3579.01,-164.98C3535.2,-155.77 3465.27,-141.06 3417.93,-131.11"/>
<polygon fill="#63b8ff" stroke="#63b8ff" points="3418.39,-127.63 3407.89,-128.99 3416.95,-134.48 3418.39,-127.63"/>
</a>
</g>
</g>
<!-- Node52 -->
<g id="Node000052" class="node">
<title>Node52</title>
<g id="a_Node000052"><a xlink:href="base_2forward_8h.html" target="_top" xlink:title=" ">
<polygon fill="white" stroke="#666666" points="3917,-129 3828,-129 3828,-110 3917,-110 3917,-129"/>
<text text-anchor="middle" x="3872.5" y="-117" font-family="Helvetica,sans-Serif" font-size="10.00">base/forward.h</text>
</a>
</g>
</g>
<!-- Node50&#45;&gt;Node52 -->
<g id="edge39_Node000050_Node000052" class="edge">
<title>Node50&#45;&gt;Node52</title>
<g id="a_edge39_Node000050_Node000052"><a xlink:title=" ">
<path fill="none" stroke="#63b8ff" d="M3660.15,-164.98C3704,-155.8 3773.92,-141.15 3821.45,-131.19"/>
<polygon fill="#63b8ff" stroke="#63b8ff" points="3822.46,-134.56 3831.53,-129.08 3821.03,-127.71 3822.46,-134.56"/>
</a>
</g>
</g>
<!-- Node53 -->
<g id="Node000053" class="node">
<title>Node53</title>
<g id="a_Node000053"><a xlink:href="sbuf_2forward_8h.html" target="_top" xlink:title=" ">
<polygon fill="#fff0f0" stroke="red" points="3724,-74 3637,-74 3637,-55 3724,-55 3724,-74"/>
<text text-anchor="middle" x="3680.5" y="-62" font-family="Helvetica,sans-Serif" font-size="10.00">sbuf/forward.h</text>
</a>
</g>
</g>
<!-- Node50&#45;&gt;Node53 -->
<g id="edge40_Node000050_Node000053" class="edge">
<title>Node50&#45;&gt;Node53</title>
<g id="a_edge40_Node000050_Node000053"><a xlink:title=" ">
<path fill="none" stroke="#63b8ff" d="M3640.02,-165C3654.52,-157.77 3672.85,-145.86 3681.5,-129 3688.58,-115.21 3687.58,-97.41 3685.24,-84.16"/>
<polygon fill="#63b8ff" stroke="#63b8ff" points="3688.64,-83.33 3683.11,-74.3 3681.8,-84.81 3688.64,-83.33"/>
</a>
</g>
</g>
<!-- Node56 -->
<g id="Node000056" class="node">
<title>Node56</title>
<g id="a_Node000056"><a xlink:href="SquidString_8h.html" target="_top" xlink:title=" ">
<polygon fill="#fff0f0" stroke="red" points="3810,-129 3729,-129 3729,-110 3810,-110 3810,-129"/>
<text text-anchor="middle" x="3769.5" y="-117" font-family="Helvetica,sans-Serif" font-size="10.00">SquidString.h</text>
</a>
</g>
</g>
<!-- Node50&#45;&gt;Node56 -->
<g id="edge41_Node000050_Node000056" class="edge">
<title>Node50&#45;&gt;Node56</title>
<g id="a_edge41_Node000050_Node000056"><a xlink:title=" ">
<path fill="none" stroke="#63b8ff" d="M3643.6,-164.98C3668.38,-156.23 3707.2,-142.51 3735.19,-132.62"/>
<polygon fill="#63b8ff" stroke="#63b8ff" points="3736.7,-135.8 3744.96,-129.17 3734.37,-129.2 3736.7,-135.8"/>
</a>
</g>
</g>
<!-- Node67 -->
<g id="Node000067" class="node">
<title>Node67</title>
<g id="a_Node000067"><a xlink:title=" ">
<polygon fill="#e0e0e0" stroke="#999999" points="3483.5,-129 3425.5,-129 3425.5,-110 3483.5,-110 3483.5,-129"/>
<text text-anchor="middle" x="3454.5" y="-117" font-family="Helvetica,sans-Serif" font-size="10.00">memory</text>
</a>
</g>
</g>
<!-- Node50&#45;&gt;Node67 -->
<g id="edge46_Node000050_Node000067" class="edge">
<title>Node50&#45;&gt;Node67</title>
<g id="a_edge46_Node000050_Node000067"><a xlink:title=" ">
<path fill="none" stroke="#63b8ff" d="M3592.99,-164.98C3565.29,-156.09 3521.64,-142.07 3490.76,-132.15"/>
<polygon fill="#63b8ff" stroke="#63b8ff" points="3491.81,-128.81 3481.22,-129.08 3489.67,-135.47 3491.81,-128.81"/>
</a>
</g>
</g>
<!-- Node68 -->
<g id="Node000068" class="node">
<title>Node68</title>
<g id="a_Node000068"><a xlink:title=" ">
<polygon fill="#e0e0e0" stroke="#999999" points="3549,-129 3502,-129 3502,-110 3549,-110 3549,-129"/>
<text text-anchor="middle" x="3525.5" y="-117" font-family="Helvetica,sans-Serif" font-size="10.00">queue</text>
</a>
</g>
</g>
<!-- Node50&#45;&gt;Node68 -->
<g id="edge47_Node000050_Node000068" class="edge">
<title>Node50&#45;&gt;Node68</title>
<g id="a_edge47_Node000050_Node000068"><a xlink:title=" ">
<path fill="none" stroke="#63b8ff" d="M3604.4,-164.98C3589.68,-156.69 3567.08,-143.94 3549.83,-134.22"/>
<polygon fill="#63b8ff" stroke="#63b8ff" points="3551.31,-131.03 3540.88,-129.17 3547.87,-137.13 3551.31,-131.03"/>
</a>
</g>
</g>
<!-- Node69 -->
<g id="Node000069" class="node">
<title>Node69</title>
<g id="a_Node000069"><a xlink:title=" ">
<polygon fill="#e0e0e0" stroke="#999999" points="3610,-129 3567,-129 3567,-110 3610,-110 3610,-129"/>
<text text-anchor="middle" x="3588.5" y="-117" font-family="Helvetica,sans-Serif" font-size="10.00">stack</text>
</a>
</g>
</g>
<!-- Node50&#45;&gt;Node69 -->
<g id="edge48_Node000050_Node000069" class="edge">
<title>Node50&#45;&gt;Node69</title>
<g id="a_edge48_Node000050_Node000069"><a xlink:title=" ">
<path fill="none" stroke="#63b8ff" d="M3614.38,-164.75C3610.14,-157.49 3603.97,-146.95 3598.72,-137.98"/>
<polygon fill="#63b8ff" stroke="#63b8ff" points="3601.59,-135.95 3593.52,-129.09 3595.55,-139.49 3601.59,-135.95"/>
</a>
</g>
</g>
<!-- Node70 -->
<g id="Node000070" class="node">
<title>Node70</title>
<g id="a_Node000070"><a xlink:title=" ">
<polygon fill="#e0e0e0" stroke="#999999" points="3672.5,-129 3628.5,-129 3628.5,-110 3672.5,-110 3672.5,-129"/>
<text text-anchor="middle" x="3650.5" y="-117" font-family="Helvetica,sans-Serif" font-size="10.00">string</text>
</a>
</g>
</g>
<!-- Node50&#45;&gt;Node70 -->
<g id="edge49_Node000050_Node000070" class="edge">
<title>Node50&#45;&gt;Node70</title>
<g id="a_edge49_Node000050_Node000070"><a xlink:title=" ">
<path fill="none" stroke="#63b8ff" d="M3624.62,-164.75C3628.86,-157.49 3635.03,-146.95 3640.28,-137.98"/>
<polygon fill="#63b8ff" stroke="#63b8ff" points="3643.45,-139.49 3645.48,-129.09 3637.41,-135.95 3643.45,-139.49"/>
</a>
</g>
</g>
<!-- Node51&#45;&gt;Node46 -->
<g id="edge38_Node000051_Node000046" class="edge">
<title>Node51&#45;&gt;Node46</title>
<g id="a_edge38_Node000051_Node000046"><a xlink:title=" ">
<path fill="none" stroke="#63b8ff" d="M3367.5,-109.75C3367.5,-102.8 3367.5,-92.85 3367.5,-84.13"/>
<polygon fill="#63b8ff" stroke="#63b8ff" points="3371,-84.09 3367.5,-74.09 3364,-84.09 3371,-84.09"/>
</a>
</g>
</g>
<!-- Node56&#45;&gt;Node53 -->
<g id="edge45_Node000056_Node000053" class="edge">
<title>Node56&#45;&gt;Node53</title>
<g id="a_edge45_Node000056_Node000053"><a xlink:title=" ">
<path fill="none" stroke="#63b8ff" d="M3755.2,-109.98C3741.4,-101.77 3720.26,-89.18 3703.99,-79.49"/>
<polygon fill="#63b8ff" stroke="#63b8ff" points="3705.44,-76.28 3695.06,-74.17 3701.86,-82.29 3705.44,-76.28"/>
</a>
</g>
</g>
<!-- Node57 -->
<g id="Node000057" class="node">
<title>Node57</title>
<g id="a_Node000057"><a xlink:href="TextException_8h.html" target="_top" xlink:title=" ">
<polygon fill="#fff0f0" stroke="red" points="3974.5,-74 3854.5,-74 3854.5,-55 3974.5,-55 3974.5,-74"/>
<text text-anchor="middle" x="3914.5" y="-62" font-family="Helvetica,sans-Serif" font-size="10.00">base/TextException.h</text>
</a>
</g>
</g>
<!-- Node56&#45;&gt;Node57 -->
<g id="edge42_Node000056_Node000057" class="edge">
<title>Node56&#45;&gt;Node57</title>
<g id="a_edge42_Node000056_Node000057"><a xlink:title=" ">
<path fill="none" stroke="#63b8ff" d="M3792.8,-109.98C3816.75,-101.23 3854.28,-87.51 3881.33,-77.62"/>
<polygon fill="#63b8ff" stroke="#63b8ff" points="3882.59,-80.89 3890.78,-74.17 3880.19,-74.32 3882.59,-80.89"/>
</a>
</g>
</g>
<!-- Node62 -->
<g id="Node000062" class="node">
<title>Node62</title>
<g id="a_Node000062"><a xlink:href="debug_2Stream_8h.html" target="_top" xlink:title=" ">
<polygon fill="#fff0f0" stroke="red" points="3836.5,-74 3742.5,-74 3742.5,-55 3836.5,-55 3836.5,-74"/>
<text text-anchor="middle" x="3789.5" y="-62" font-family="Helvetica,sans-Serif" font-size="10.00">debug/Stream.h</text>
</a>
</g>
</g>
<!-- Node56&#45;&gt;Node62 -->
<g id="edge43_Node000056_Node000062" class="edge">
<title>Node56&#45;&gt;Node62</title>
<g id="a_edge43_Node000056_Node000062"><a xlink:title=" ">
<path fill="none" stroke="#63b8ff" d="M3772.8,-109.75C3775.48,-102.65 3779.35,-92.4 3782.69,-83.56"/>
<polygon fill="#63b8ff" stroke="#63b8ff" points="3786,-84.68 3786.26,-74.09 3779.45,-82.21 3786,-84.68"/>
</a>
</g>
</g>
<!-- Node62&#45;&gt;Node48 -->
<g id="edge44_Node000062_Node000048" class="edge">
<title>Node62&#45;&gt;Node48</title>
<g id="a_edge44_Node000062_Node000048"><a xlink:title=" ">
<path fill="none" stroke="#63b8ff" d="M3789.5,-54.75C3789.5,-47.8 3789.5,-37.85 3789.5,-29.13"/>
<polygon fill="#63b8ff" stroke="#63b8ff" points="3793,-29.09 3789.5,-19.09 3786,-29.09 3793,-29.09"/>
</a>
</g>
</g>
<!-- Node71&#45;&gt;Node53 -->
<g id="edge54_Node000071_Node000053" class="edge">
<title>Node71&#45;&gt;Node53</title>
<g id="a_edge54_Node000071_Node000053"><a xlink:title=" ">
<path fill="none" stroke="#63b8ff" d="M3934.64,-111.7C3931.55,-111.12 3928.47,-110.55 3925.5,-110 3859.68,-97.81 3783.86,-84.08 3734.21,-75.14"/>
<polygon fill="#63b8ff" stroke="#63b8ff" points="3734.79,-71.69 3724.33,-73.37 3733.55,-78.58 3734.79,-71.69"/>
</a>
</g>
</g>
<!-- Node71&#45;&gt;Node57 -->
<g id="edge52_Node000071_Node000057" class="edge">
<title>Node71&#45;&gt;Node57</title>
<g id="a_edge52_Node000071_Node000057"><a xlink:title=" ">
<path fill="none" stroke="#63b8ff" d="M3961.5,-109.98C3953.31,-102.23 3940.99,-90.58 3931.03,-81.14"/>
<polygon fill="#63b8ff" stroke="#63b8ff" points="3933.33,-78.5 3923.66,-74.17 3928.52,-83.59 3933.33,-78.5"/>
</a>
</g>
</g>
<!-- Node71&#45;&gt;Node62 -->
<g id="edge53_Node000071_Node000062" class="edge">
<title>Node71&#45;&gt;Node62</title>
<g id="a_edge53_Node000071_Node000062"><a xlink:title=" ">
<path fill="none" stroke="#63b8ff" d="M3941.42,-109.98C3910.9,-101.05 3862.74,-86.94 3828.84,-77.02"/>
<polygon fill="#63b8ff" stroke="#63b8ff" points="3829.39,-73.53 3818.81,-74.08 3827.42,-80.25 3829.39,-73.53"/>
</a>
</g>
</g>
<!-- Node72 -->
<g id="Node000072" class="node">
<title>Node72</title>
<g id="a_Node000072"><a xlink:href="InstanceId_8h.html" target="_top" xlink:title=" ">
<polygon fill="#fff0f0" stroke="red" points="4094.5,-74 3992.5,-74 3992.5,-55 4094.5,-55 4094.5,-74"/>
<text text-anchor="middle" x="4043.5" y="-62" font-family="Helvetica,sans-Serif" font-size="10.00">base/InstanceId.h</text>
</a>
</g>
</g>
<!-- Node71&#45;&gt;Node72 -->
<g id="edge51_Node000071_Node000072" class="edge">
<title>Node71&#45;&gt;Node72</title>
<g id="a_edge51_Node000071_Node000072"><a xlink:title=" ">
<path fill="none" stroke="#63b8ff" d="M3982.23,-109.98C3993.23,-102 4009.92,-89.88 4023.1,-80.31"/>
<polygon fill="#63b8ff" stroke="#63b8ff" points="4025.52,-82.88 4031.56,-74.17 4021.41,-77.21 4025.52,-82.88"/>
</a>
</g>
</g>
<!-- Node90&#45;&gt;Node48 -->
<g id="edge56_Node000090_Node000048" class="edge">
<title>Node90&#45;&gt;Node48</title>
<g id="a_edge56_Node000090_Node000048"><a xlink:title=" ">
<path fill="none" stroke="#63b8ff" d="M3950.85,-219.91C4008.99,-195.36 4161.95,-122.32 4103.5,-55 4068.51,-14.7 3906.42,-9.92 3829.81,-9.97"/>
<polygon fill="#63b8ff" stroke="#63b8ff" points="3829.58,-6.47 3819.59,-10.01 3829.6,-13.47 3829.58,-6.47"/>
</a>
</g>
</g>
</g>
</svg>

<g id="navigator" transform="translate(0 0)" fill="#404254">
  <rect fill="#f2f5e9" fill-opacity="0.5" stroke="#606060" stroke-width=".5" x="0" y="0" width="60" height="60"/>
  <use id="zoomplus" xlink:href="#zoomPlus" x="17" y="9" onmousedown="handleZoom(evt,'in')"/>
  <use id="zoomminus" xlink:href="#zoomMin" x="42" y="9" onmousedown="handleZoom(evt,'out')"/>
  <use id="reset" xlink:href="#resetDef" x="30" y="36" onmousedown="handleReset()"/>
   <use id="arrowup" xlink:href="#arrowUp" x="0" y="0" onmousedown="handlePan(0,-1)"/>
  <use id="arrowright" xlink:href="#arrowRight" x="0" y="0" onmousedown="handlePan(1,0)"/>
  <use id="arrowdown" xlink:href="#arrowDown" x="0" y="0" onmousedown="handlePan(0,1)"/>
  <use id="arrowleft" xlink:href="#arrowLeft" x="0" y="0" onmousedown="handlePan(-1,0)"/>
</g>
<svg viewBox="0 0 15 15" width="100%" height="30px" preserveAspectRatio="xMaxYMin meet">
 <g id="arrow_out" transform="scale(0.3 0.3)">
  <a xlink:href="stub__libformat_8cc__incl_org.svg" target="_base">
   <rect id="button" ry="5" rx="5" y="6" x="6" height="38" width="38"
        fill="#f2f5e9" fill-opacity="0.5" stroke="#606060" stroke-width="1.0"/>
   <path id="arrow"
     d="M 11.500037,31.436501 C 11.940474,20.09759 22.043105,11.32322 32.158766,21.979434 L 37.068811,17.246167 C 37.068811,17.246167 37.088388,32 37.088388,32 L 22.160133,31.978069 C 22.160133,31.978069 26.997745,27.140456 26.997745,27.140456 C 18.528582,18.264221 13.291696,25.230495 11.500037,31.436501 z"
     style="fill:#404040;"/>
  </a>
 </g>
</svg>

<style type='text/css'>
<![CDATA[
[data-mouse-over-selected='false'] { opacity: 0.7; }
[data-mouse-over-selected='true']  { opacity: 1.0; }
]]>
</style>
<script type="application/ecmascript"><![CDATA[
document.addEventListener('DOMContentLoaded', (event) => {
  highlightEdges();
  highlightAdjacentNodes();
});
]]></script>
</svg>
