<?xml version="1.0" encoding="UTF-8" standalone="no"?>
<!DOCTYPE svg PUBLIC "-//W3C//DTD SVG 1.1//EN"
 "http://www.w3.org/Graphics/SVG/1.1/DTD/svg11.dtd">
<!-- Generated by graphviz version 2.43.0 (0)
 -->
<!-- Title: squid/src/acl/Tree.h Pages: 1 -->
<svg width="1097pt" height="93pt"
 viewBox="0.00 0.00 1096.50 93.00" xmlns="http://www.w3.org/2000/svg" xmlns:xlink="http://www.w3.org/1999/xlink">
<g id="graph0" class="graph" transform="scale(1 1) rotate(0) translate(4 89)">
<title>squid/src/acl/Tree.h</title>
<!-- Node1 -->
<g id="Node000001" class="node">
<title>Node1</title>
<g id="a_Node000001"><a xlink:title=" ">
<polygon fill="#999999" stroke="#666666" points="610.5,-85 500.5,-85 500.5,-66 610.5,-66 610.5,-85"/>
<text text-anchor="middle" x="555.5" y="-73" font-family="Helvetica,sans-Serif" font-size="10.00">squid/src/acl/Tree.h</text>
</a>
</g>
</g>
<!-- Node2 -->
<g id="Node000002" class="node">
<title>Node2</title>
<g id="a_Node000002"><a xlink:href="Notes_8cc.html" target="_top" xlink:title=" ">
<polygon fill="white" stroke="#666666" points="105,-24.5 0,-24.5 0,-5.5 105,-5.5 105,-24.5"/>
<text text-anchor="middle" x="52.5" y="-12.5" font-family="Helvetica,sans-Serif" font-size="10.00">squid/src/Notes.cc</text>
</a>
</g>
</g>
<!-- Node1&#45;&gt;Node2 -->
<g id="edge1_Node000001_Node000002" class="edge">
<title>Node1&#45;&gt;Node2</title>
<g id="a_edge1_Node000001_Node000002"><a xlink:title=" ">
<path fill="none" stroke="#63b8ff" d="M490.23,-70.5C403.69,-64.6 246.41,-51.85 113.5,-30 104.6,-28.54 95.06,-26.55 86.23,-24.53"/>
<polygon fill="#63b8ff" stroke="#63b8ff" points="490.22,-74 500.43,-71.18 490.69,-67.02 490.22,-74"/>
</a>
</g>
</g>
<!-- Node3 -->
<g id="Node000003" class="node">
<title>Node3</title>
<g id="a_Node000003"><a xlink:href="Checklist_8cc.html" target="_top" xlink:title=" ">
<polygon fill="white" stroke="#666666" points="262,-24.5 123,-24.5 123,-5.5 262,-5.5 262,-24.5"/>
<text text-anchor="middle" x="192.5" y="-12.5" font-family="Helvetica,sans-Serif" font-size="10.00">squid/src/acl/Checklist.cc</text>
</a>
</g>
</g>
<!-- Node1&#45;&gt;Node3 -->
<g id="edge2_Node000001_Node000003" class="edge">
<title>Node1&#45;&gt;Node3</title>
<g id="a_edge2_Node000001_Node000003"><a xlink:title=" ">
<path fill="none" stroke="#63b8ff" d="M490.42,-64.68C432.81,-55.9 346.5,-42.52 271.5,-30 261.2,-28.28 250.15,-26.37 239.68,-24.52"/>
<polygon fill="#63b8ff" stroke="#63b8ff" points="490.06,-68.17 500.47,-66.21 491.11,-61.25 490.06,-68.17"/>
</a>
</g>
</g>
<!-- Node4 -->
<g id="Node000004" class="node">
<title>Node4</title>
<g id="a_Node000004"><a xlink:href="acl_2Gadgets_8cc.html" target="_top" xlink:title=" ">
<polygon fill="white" stroke="#666666" points="414.5,-24.5 280.5,-24.5 280.5,-5.5 414.5,-5.5 414.5,-24.5"/>
<text text-anchor="middle" x="347.5" y="-12.5" font-family="Helvetica,sans-Serif" font-size="10.00">squid/src/acl/Gadgets.cc</text>
</a>
</g>
</g>
<!-- Node1&#45;&gt;Node4 -->
<g id="edge3_Node000001_Node000004" class="edge">
<title>Node1&#45;&gt;Node4</title>
<g id="a_edge3_Node000001_Node000004"><a xlink:title=" ">
<path fill="none" stroke="#63b8ff" d="M515.51,-63.25C475.28,-51.94 414.15,-34.75 377.78,-24.52"/>
<polygon fill="#63b8ff" stroke="#63b8ff" points="514.68,-66.66 525.26,-65.99 516.58,-59.92 514.68,-66.66"/>
</a>
</g>
</g>
<!-- Node5 -->
<g id="Node000005" class="node">
<title>Node5</title>
<g id="a_Node000005"><a xlink:href="Tree_8cc.html" target="_top" xlink:title=" ">
<polygon fill="white" stroke="#666666" points="546.5,-24.5 432.5,-24.5 432.5,-5.5 546.5,-5.5 546.5,-24.5"/>
<text text-anchor="middle" x="489.5" y="-12.5" font-family="Helvetica,sans-Serif" font-size="10.00">squid/src/acl/Tree.cc</text>
</a>
</g>
</g>
<!-- Node1&#45;&gt;Node5 -->
<g id="edge4_Node000001_Node000005" class="edge">
<title>Node1&#45;&gt;Node5</title>
<g id="a_edge4_Node000001_Node000005"><a xlink:title=" ">
<path fill="none" stroke="#63b8ff" d="M538.26,-59.22C525.84,-48.21 509.53,-33.75 499.28,-24.67"/>
<polygon fill="#63b8ff" stroke="#63b8ff" points="535.96,-61.85 545.76,-65.87 540.6,-56.62 535.96,-61.85"/>
</a>
</g>
</g>
<!-- Node6 -->
<g id="Node000006" class="node">
<title>Node6</title>
<g id="a_Node000006"><a xlink:href="AccessRule_8cc.html" target="_top" xlink:title=" ">
<polygon fill="white" stroke="#666666" points="680.5,-30 564.5,-30 564.5,0 680.5,0 680.5,-30"/>
<text text-anchor="start" x="572.5" y="-18" font-family="Helvetica,sans-Serif" font-size="10.00">squid/src/adaptation</text>
<text text-anchor="middle" x="622.5" y="-7" font-family="Helvetica,sans-Serif" font-size="10.00">/AccessRule.cc</text>
</a>
</g>
</g>
<!-- Node1&#45;&gt;Node6 -->
<g id="edge5_Node000001_Node000006" class="edge">
<title>Node1&#45;&gt;Node6</title>
<g id="a_edge5_Node000001_Node000006"><a xlink:title=" ">
<path fill="none" stroke="#63b8ff" d="M572.98,-59.23C583.3,-50.23 596.26,-38.91 606.33,-30.11"/>
<polygon fill="#63b8ff" stroke="#63b8ff" points="570.62,-56.65 565.39,-65.87 575.22,-61.93 570.62,-56.65"/>
</a>
</g>
</g>
<!-- Node7 -->
<g id="Node000007" class="node">
<title>Node7</title>
<g id="a_Node000007"><a xlink:href="auth_2Config_8cc.html" target="_top" xlink:title=" ">
<polygon fill="white" stroke="#666666" points="830.5,-24.5 698.5,-24.5 698.5,-5.5 830.5,-5.5 830.5,-24.5"/>
<text text-anchor="middle" x="764.5" y="-12.5" font-family="Helvetica,sans-Serif" font-size="10.00">squid/src/auth/Config.cc</text>
</a>
</g>
</g>
<!-- Node1&#45;&gt;Node7 -->
<g id="edge6_Node000001_Node000007" class="edge">
<title>Node1&#45;&gt;Node7</title>
<g id="a_edge6_Node000001_Node000007"><a xlink:title=" ">
<path fill="none" stroke="#63b8ff" d="M595.69,-63.25C636.1,-51.94 697.53,-34.75 734.07,-24.52"/>
<polygon fill="#63b8ff" stroke="#63b8ff" points="594.58,-59.93 585.89,-65.99 596.46,-66.67 594.58,-59.93"/>
</a>
</g>
</g>
<!-- Node8 -->
<g id="Node000008" class="node">
<title>Node8</title>
<g id="a_Node000008"><a xlink:href="cache__cf_8cc.html" target="_top" xlink:title=" ">
<polygon fill="white" stroke="#666666" points="968,-24.5 849,-24.5 849,-5.5 968,-5.5 968,-24.5"/>
<text text-anchor="middle" x="908.5" y="-12.5" font-family="Helvetica,sans-Serif" font-size="10.00">squid/src/cache_cf.cc</text>
</a>
</g>
</g>
<!-- Node1&#45;&gt;Node8 -->
<g id="edge7_Node000001_Node000008" class="edge">
<title>Node1&#45;&gt;Node8</title>
<g id="a_edge7_Node000001_Node000008"><a xlink:title=" ">
<path fill="none" stroke="#63b8ff" d="M620.66,-65.14C678.32,-56.65 764.66,-43.45 839.5,-30 848.76,-28.34 858.7,-26.41 868.06,-24.52"/>
<polygon fill="#63b8ff" stroke="#63b8ff" points="619.98,-61.7 610.6,-66.61 621,-68.62 619.98,-61.7"/>
</a>
</g>
</g>
<!-- Node9 -->
<g id="Node000009" class="node">
<title>Node9</title>
<g id="a_Node000009"><a xlink:href="KeyLog_8cc.html" target="_top" xlink:title=" ">
<polygon fill="white" stroke="#666666" points="1088.5,-30 986.5,-30 986.5,0 1088.5,0 1088.5,-30"/>
<text text-anchor="start" x="994.5" y="-18" font-family="Helvetica,sans-Serif" font-size="10.00">squid/src/security</text>
<text text-anchor="middle" x="1037.5" y="-7" font-family="Helvetica,sans-Serif" font-size="10.00">/KeyLog.cc</text>
</a>
</g>
</g>
<!-- Node1&#45;&gt;Node9 -->
<g id="edge8_Node000001_Node000009" class="edge">
<title>Node1&#45;&gt;Node9</title>
<g id="a_edge8_Node000001_Node000009"><a xlink:title=" ">
<path fill="none" stroke="#63b8ff" d="M620.83,-70.14C704.06,-64 852.15,-51.15 977.5,-30 980.35,-29.52 983.26,-28.98 986.2,-28.41"/>
<polygon fill="#63b8ff" stroke="#63b8ff" points="620.48,-66.66 610.76,-70.87 620.99,-73.64 620.48,-66.66"/>
</a>
</g>
</g>
</g>
</svg>
